<?xml version="1.0" encoding="UTF-8" standalone="no"?>
<!-- Created with Inkscape (http://www.inkscape.org/) -->

<svg
   width="210mm"
   height="297mm"
   viewBox="0 0 210 297"
   version="1.1"
   id="svg5"
   inkscape:version="1.1 (1:1.1+202105261517+ce6663b3b7)"
   sodipodi:docname="logo.svg"
   xmlns:inkscape="http://www.inkscape.org/namespaces/inkscape"
   xmlns:sodipodi="http://sodipodi.sourceforge.net/DTD/sodipodi-0.dtd"
   xmlns:xlink="http://www.w3.org/1999/xlink"
   xmlns="http://www.w3.org/2000/svg"
   xmlns:svg="http://www.w3.org/2000/svg">
  <sodipodi:namedview
     id="namedview7"
     pagecolor="#ffffff"
     bordercolor="#666666"
     borderopacity="1.0"
     inkscape:pageshadow="2"
     inkscape:pageopacity="0.0"
     inkscape:pagecheckerboard="0"
     inkscape:document-units="mm"
     showgrid="false"
     inkscape:snap-bbox="true"
     inkscape:bbox-paths="true"
     inkscape:bbox-nodes="true"
     inkscape:snap-bbox-edge-midpoints="true"
     inkscape:snap-bbox-midpoints="true"
     inkscape:object-paths="true"
     inkscape:snap-intersection-paths="true"
     inkscape:snap-smooth-nodes="true"
     inkscape:snap-midpoints="true"
     inkscape:snap-object-midpoints="true"
     inkscape:snap-center="true"
     inkscape:snap-global="false"
     inkscape:zoom="8"
     inkscape:cx="300.9375"
     inkscape:cy="414.9375"
     inkscape:window-width="1920"
     inkscape:window-height="1016"
     inkscape:window-x="0"
     inkscape:window-y="27"
     inkscape:window-maximized="1"
     inkscape:current-layer="layer1" />
  <defs
     id="defs2">
    <linearGradient
       inkscape:collect="always"
       id="linearGradient33748">
      <stop
         style="stop-color:#007eff;stop-opacity:1;"
         offset="0"
         id="stop33744" />
      <stop
         style="stop-color:#007eff;stop-opacity:0;"
         offset="1"
         id="stop33746" />
    </linearGradient>
    <linearGradient
       inkscape:collect="always"
       xlink:href="#linearGradient33748"
       id="linearGradient33750"
       x1="104.8494"
       y1="-70.809074"
       x2="104.84572"
       y2="-78.790848"
       gradientUnits="userSpaceOnUse"
       gradientTransform="translate(0.00839616,-0.44229246)" />
  </defs>
  <g
     inkscape:label="Capa 1"
     inkscape:groupmode="layer"
     id="layer1">
    <rect
       style="fill:#ebefef;fill-opacity:1;stroke:none;stroke-width:0.0495028;stroke-linejoin:round;stroke-miterlimit:4;stroke-dasharray:none;stroke-opacity:1"
       id="rect35635"
       width="2.7792561"
       height="2.779"
       x="125.78023"
       y="-62.830589"
       transform="rotate(90)" />
    <rect
       style="fill:url(#linearGradient33750);fill-opacity:1;stroke:none;stroke-width:0.0495028;stroke-linejoin:round;stroke-miterlimit:4;stroke-dasharray:none;stroke-opacity:1"
       id="rect35635-6"
       width="7.8925171"
       height="7.8917589"
       x="101.11264"
       y="-79.269058"
       ry="0"
       transform="rotate(90)" />
    <text
       xml:space="preserve"
       style="font-style:normal;font-variant:normal;font-weight:normal;font-stretch:normal;font-size:9.50525px;line-height:1.25;font-family:sans-serif;-inkscape-font-specification:sans-serif;letter-spacing:0px;word-spacing:0px;fill:#ff7f00;fill-opacity:1;stroke-width:0.648084"
       x="56.21088"
       y="124.63135"
       id="text9427-5"><tspan
         sodipodi:role="line"
         id="tspan9425-9"
         style="font-style:normal;font-variant:normal;font-weight:normal;font-stretch:normal;font-family:sans-serif;-inkscape-font-specification:sans-serif;fill:#ff7f00;fill-opacity:1;stroke-width:0.648084"
         x="56.21088"
         y="124.63135">M</tspan></text>
    <path
       style="fill:#b3b3b0;stroke-width:0.1;stroke-linejoin:round"
       id="path859"
       d="m 62.14809,151.6736 c 0.393017,-1.29808 0.847277,-2.5781 1.31182,-3.85221 0.06866,-0.1762 0.358592,-0.94263 0.469299,-1.15059 0.05418,-0.10178 0.303263,-0.3349 0.201139,-0.28139 -2.611522,1.3684 -1.733317,0.48517 -1.294979,1.11186 0.08303,0.11871 0.141065,0.25307 0.211597,0.37961 0.202724,0.43265 0.347356,0.88826 0.503362,1.33876 0.02722,0.0786 0.139536,0.45398 0.231984,0.54427 0.05033,0.0492 0.127593,0.0593 0.191389,0.0889 0.623708,-0.37813 1.27581,-0.71297 1.871123,-1.1344 0.04209,-0.0298 0.356166,-0.661 0.36649,-0.68191 0.169802,-0.34381 0.33065,-0.69155 0.503158,-1.03408 0.07307,-0.13545 0.179308,-0.36364 0.299048,-0.47582 0.05028,-0.0471 0.23617,-0.14194 0.178181,-0.10474 -0.499184,0.32026 -1.041376,0.58025 -1.501894,0.95398 -0.05576,0.0453 0.130048,0.0671 0.179412,0.11928 0.08568,0.0905 0.146523,0.2017 0.219786,0.30255 0.07065,0.16823 0.15439,0.33154 0.211953,0.50468 0.14533,0.43715 0.370012,1.42628 0.44968,1.81884 0.242668,1.19567 0.405548,2.40241 0.558139,3.612 0.03393,0.3224 0.06787,0.6448 0.101801,0.9672 0,0 1.509567,-0.79454 1.509567,-0.79454 v 0 c -0.05092,-0.31395 -0.101846,-0.6279 -0.152768,-0.94186 -0.18951,-1.20787 -0.366197,-2.41735 -0.547031,-3.62654 -0.06182,-0.41333 -0.208873,-1.45914 -0.323173,-1.92155 -0.04751,-0.19221 -0.12441,-0.37593 -0.186616,-0.5639 -0.07082,-0.1253 -0.127368,-0.25982 -0.212463,-0.3759 -0.05944,-0.0811 -0.120978,-0.24007 -0.216797,-0.20965 -0.008,0.003 -1.610106,0.45848 -2.028388,1.03011 -0.101103,0.13817 -0.188971,0.33738 -0.262422,0.48785 -0.217085,0.45976 -0.413276,0.94588 -0.692438,1.37264 -0.447887,0.6847 -0.812332,0.59045 1.261972,-0.44504 -0.03666,0.0248 -0.06801,0.0883 -0.109966,0.0743 -0.113422,-0.0379 -0.25668,-0.44617 -0.26725,-0.47196 -0.183555,-0.44777 -0.333896,-0.90811 -0.518795,-1.35537 -0.06625,-0.14343 -0.121542,-0.29245 -0.198763,-0.43028 -0.07032,-0.12551 -0.104778,-0.39907 -0.242374,-0.35709 -0.662996,0.20227 -1.247556,0.61205 -1.8292,0.9891 -0.08673,0.0562 -0.09231,0.18523 -0.130506,0.28127 -0.07449,0.18731 -0.347416,0.98421 -0.395642,1.12355 -0.454236,1.31998 -0.902181,2.6481 -1.50296,3.91029 0,0 1.783525,-0.80226 1.783525,-0.80226 z" />
    <path
       style="fill:#b3b3b0;stroke-width:0.1;stroke-linejoin:round"
       id="path861"
       d="m 58.4851,154.52655 c -0.0027,-0.14795 -0.01259,-0.29594 -0.0081,-0.44385 0.03724,-1.23241 0.181734,-2.45773 0.33633,-3.67961 0.255511,-2.01951 0.18482,-1.47085 0.511437,-3.49623 0.288399,-1.47939 0.309785,-1.68664 0.652404,-3.09287 0.09405,-0.38603 0.156311,-0.78332 0.301207,-1.15327 0.11932,-0.30465 0.353055,-0.554 0.484762,-0.8535 0.04164,-0.0947 -0.312367,0.24283 -0.209926,0.22852 0.813533,-0.11368 1.603643,-0.35688 2.405465,-0.53531 4.081391,-0.62574 8.208105,-0.83399 12.32725,-1.02857 0,0 0.971616,-0.71545 0.971616,-0.71545 v 0 c -4.090477,0.32699 -8.182822,0.63001 -12.27232,0.96913 -2.373421,0.34033 -2.62128,0.1036 -4.775515,1.78129 -0.252476,0.19663 -0.315118,0.56204 -0.412593,0.86684 -0.115848,0.36225 -0.150802,0.74556 -0.222502,1.11906 -0.221054,1.15157 -0.345964,1.87533 -0.556384,3.05361 -0.276003,1.69466 -0.547571,3.3899 -0.818523,5.08536 -0.121812,0.76221 -0.260683,1.52164 -0.382003,2.28393 -0.02606,0.1638 -0.043,0.32893 -0.0645,0.49339 0,0 1.731936,-0.88247 1.731936,-0.88247 z" />
    <path
       style="fill:#b3b3b0;stroke-width:0.1;stroke-linejoin:round"
       id="path863"
       d="m 59.265324,146.01068 c 2.534143,-0.15755 5.075571,-0.14984 7.613463,-0.13014 1.044096,0.001 2.087438,0.0494 3.131267,0.0637 0.632002,0.009 1.26416,-0.005 1.896075,-0.0139 0.591751,-0.007 0.311126,-0.004 0.84187,-0.008 0,0 1.519378,-1.1105 1.519378,-1.1105 v 0 c -0.560242,0.0271 -0.265031,0.0134 -0.885661,0.0406 -1.755318,0.0694 -3.511622,0.10921 -5.268167,0.13119 -2.418183,0.0184 -4.841507,0.0386 -7.255211,-0.13015 0,0 -1.593014,1.1574 -1.593014,1.1574 z" />
    <path
       style="fill:#b3b3b0;stroke-width:0.1;stroke-linejoin:round"
       id="path865"
       d="m 56.513306,138.96224 c -0.178792,1.66399 -0.614955,3.29134 -1.008944,4.91443 -0.509383,2.0021 -0.941144,4.02294 -1.270957,6.06221 -0.04823,0.31855 -0.09509,0.6373 -0.14469,0.95564 -0.157708,1.01226 -0.151062,0.86808 -0.281459,1.89511 -0.118983,0.93714 -0.206856,1.87566 -0.281956,2.81712 -0.08883,1.09504 -0.08639,2.19374 0.01339,3.28776 0.04879,0.53491 0.09425,0.79862 0.170659,1.31951 0,0 1.600028,-0.84818 1.600028,-0.84818 v 0 c -0.09889,-0.54743 -0.139152,-0.7175 -0.200155,-1.28674 -0.11539,-1.07675 -0.123687,-2.16406 -0.0419,-3.24344 0.0528,-0.73791 0.07131,-1.08617 0.150746,-1.82692 0.137425,-1.28147 0.352698,-2.55306 0.557742,-3.82491 0.324458,-2.01374 0.706175,-4.02106 1.18355,-6.00434 0.432345,-1.6943 0.91585,-3.37491 1.316114,-5.07742 0,0 -1.762178,0.86017 -1.762178,0.86017 z" />
    <path
       style="fill:#b3b3b0;stroke-width:0.1;stroke-linejoin:round"
       id="path867"
       d="m 58.816284,138.60294 c -0.448037,0.2648 -0.940408,0.46595 -1.34411,0.79441 -0.203496,0.16556 0.483392,-0.20459 0.729809,-0.29461 1.350256,-0.49323 2.751195,-0.81082 4.155466,-1.10378 1.771161,-0.37396 3.577476,-0.46393 5.380773,-0.52389 2.124956,-0.0448 4.250994,-0.0433 6.375956,-10e-4 1.082505,0.0348 2.16372,0.13808 3.21883,0.39006 0.604449,0.14435 0.717442,0.19689 1.289894,0.39135 0.882531,0.32959 1.584558,0.95691 2.086269,1.74791 0.08834,0.13929 0.161838,0.28745 0.242755,0.43118 0.426429,0.82097 0.535242,1.72624 0.592106,2.63483 0.04059,0.58131 0.0145,1.15991 -0.12155,1.7277 -0.08524,0.35578 -0.127904,0.44511 -0.25061,0.7855 -0.279263,0.66395 -0.726125,1.22008 -1.30969,1.64258 -0.147471,0.10677 -0.305113,0.19874 -0.457669,0.2981 -0.174445,0.10256 -0.690848,0.42121 -0.523338,0.30768 0.301779,-0.20454 0.672,-0.32007 0.9266,-0.581 0.159565,-0.16353 -0.417224,0.18648 -0.627906,0.27488 -0.52917,0.22205 -1.068732,0.41738 -1.606577,0.61695 -0.60725,0.35755 -1.290134,0.61008 -1.821746,1.07266 -0.09727,0.0846 0.136433,0.22994 0.245213,0.29915 0.06195,0.0394 1.039733,0.33683 1.056934,0.34248 0.566634,0.18596 0.567436,0.19591 1.112615,0.41323 0.550183,0.21931 1.063226,0.50197 1.40099,1.00419 0.194771,0.2896 0.228439,0.4214 0.358177,0.74277 0.180555,0.56959 0.283475,1.165 0.185957,1.76133 -0.06521,0.39879 -0.149196,0.57333 -0.287126,0.95159 -0.174278,0.34938 -0.2384,0.52023 -0.477263,0.83146 -0.334952,0.43644 -0.776309,0.82193 -1.223737,1.1385 -0.167379,0.11843 -0.346171,0.21983 -0.519256,0.32975 0.3165,-0.18573 0.674762,-0.3139 0.949497,-0.55717 0.198575,-0.17584 -0.471765,0.24339 -0.714886,0.34942 -0.286239,0.12484 -0.577468,0.23865 -0.871926,0.34263 -1.198052,0.42307 -2.435521,0.66867 -3.675533,0.93155 -3.373332,0.65298 -6.780811,1.09901 -10.181291,1.5806 -1.866233,0.27372 -3.73801,0.50465 -5.61063,0.72928 0,0 -1.279133,0.95431 -1.279133,0.95431 v 0 c 1.880227,-0.25258 3.763994,-0.47722 5.641615,-0.74804 3.391924,-0.53706 6.788742,-1.04216 10.181904,-1.57119 0.68502,-0.13146 1.873499,-0.34797 2.572298,-0.52395 0.546473,-0.13762 1.312124,-0.3827 1.844985,-0.59804 0.998937,-0.4037 1.901653,-1.01274 2.829118,-1.54725 0.174511,-0.11709 0.354891,-0.22587 0.523536,-0.35127 0.454194,-0.33771 0.898983,-0.74354 1.228659,-1.20642 0.229394,-0.32207 0.29146,-0.5075 0.452379,-0.86569 0.134723,-0.40248 0.212842,-0.5752 0.273193,-0.99798 0.08934,-0.62583 -0.01942,-1.25016 -0.210233,-1.84651 -0.120401,-0.29067 -0.202829,-0.5291 -0.378806,-0.79377 -0.356587,-0.5363 -0.909251,-0.83783 -1.499484,-1.05427 -0.549214,-0.21731 -1.105231,-0.41085 -1.658511,-0.61723 -0.129046,-0.0481 -0.252781,-0.11189 -0.385496,-0.14873 -0.551299,-0.15301 -1.389972,4.35533 -1.520303,0.79671 0.551669,-0.22178 1.110287,-0.42532 1.660485,-0.65079 0.212267,-0.087 0.430318,-0.16224 0.633796,-0.26817 0.729382,-0.37972 1.444784,-0.78579 2.162299,-1.18747 0.182264,-0.10203 0.357791,-0.21566 0.536684,-0.32349 0.155908,-0.1078 0.31764,-0.20764 0.467722,-0.32342 0.590736,-0.45573 1.029931,-1.04901 1.294117,-1.74577 0.11049,-0.33967 0.15712,-0.45335 0.232185,-0.80687 0.123561,-0.58194 0.139563,-1.17396 0.09348,-1.76581 -0.0317,-0.46033 -0.0613,-0.92209 -0.160229,-1.37433 -0.101216,-0.46273 -0.276084,-0.90402 -0.484759,-1.32795 -0.08667,-0.14763 -0.165705,-0.30001 -0.260006,-0.44288 -0.412972,-0.62569 -0.959545,-1.22766 -1.625663,-1.58929 -0.175821,-0.0955 -0.368014,-0.15704 -0.552021,-0.23556 -0.209929,-0.068 -0.417836,-0.14264 -0.629785,-0.20408 -1.295408,-0.37548 -2.63624,-0.55506 -3.983993,-0.56919 -2.131634,-0.0203 -4.263588,0.008 -6.395299,0.007 -0.918898,0.0117 -1.836857,0.0215 -2.753045,0.10208 -0.636022,0.0559 -1.068422,0.11695 -1.70007,0.22752 -0.322487,0.0565 -0.64321,0.12255 -0.964816,0.18382 -1.075071,0.2233 -2.146575,0.4598 -3.205232,0.75329 -0.29496,0.0818 -0.586877,0.17418 -0.879313,0.26457 -0.216599,0.0669 -0.444707,0.1065 -0.647732,0.20738 -0.671608,0.33371 -1.311412,0.72793 -1.967119,1.09189 0,0 1.829599,-0.70554 1.829599,-0.70554 z" />
    <path
       style="fill:#b3b3b0;stroke-width:0.1;stroke-linejoin:round"
       id="path869"
       d="m 68.045199,170.1516 c 0.02074,0.11594 0.04672,0.23107 0.06224,0.34782 0.125087,0.94121 0.156858,1.89169 0.190352,2.83936 0.05206,1.47306 0.04308,1.33621 0.07207,2.85551 0.08549,2.93165 0.03284,5.86476 -0.01923,8.79646 -0.01852,0.59627 -0.02566,1.19244 -0.0155,1.78882 0,0 1.666435,-0.86397 1.666435,-0.86397 v 0 c -0.07239,-0.56313 -0.120165,-1.12839 -0.143078,-1.69598 -0.141896,-2.90657 -0.152506,-5.81768 -0.114337,-8.72707 0.0034,-2.09073 0.01082,-4.18139 0.03469,-6.27193 0,0 -1.733625,0.93098 -1.733625,0.93098 z" />
    <path
       style="fill:#b3b3b0;stroke-width:0.1;stroke-linejoin:round"
       id="path871"
       d="m 73.697718,173.30509 c 0.02869,0.12156 0.06219,0.24209 0.08606,0.3647 0.04143,0.21288 0.197461,1.21768 0.21685,1.33731 0.182163,1.12395 0.351514,2.24727 0.506314,3.37541 0.209831,1.84138 0.409538,3.68457 0.485699,5.53698 0.01484,0.495 0.01611,0.99023 0.0024,1.48523 -0.02201,0.83597 -0.544801,0.56635 1.633894,-0.78377 0,0 -1.686194,1.01507 -1.686194,1.01507 v 0 c 1.735624,-0.84053 1.805977,-0.23296 1.790189,-1.1155 -0.0079,-0.48603 -0.02684,-0.97207 -0.102203,-1.45326 -0.237914,-1.81082 -0.524666,-3.61542 -0.695381,-5.43478 -0.192005,-1.73973 -0.426381,-3.47672 -0.50482,-5.22671 0,0 -1.732679,0.89932 -1.732679,0.89932 z" />
    <path
       style="fill:#b3b3b0;stroke-width:0.1;stroke-linejoin:round"
       id="path873"
       d="m 74.684606,173.90169 c 2.457931,-0.1451 4.923327,-0.1421 7.382989,-0.0468 0,0 1.338249,-0.96771 1.338249,-0.96771 v 0 c -2.385703,-0.0165 -4.775565,0.0369 -7.157458,-0.12162 0,0 -1.56378,1.13615 -1.56378,1.13615 z" />
    <path
       style="fill:#b3b3b0;stroke-width:0.1;stroke-linejoin:round"
       id="path875"
       d="m 74.940146,178.26977 c 0.220977,-0.0331 0.44233,-0.0639 0.662932,-0.0994 1.514348,-0.24415 0.794848,-0.14847 2.417016,-0.39347 1.12353,-0.16968 1.362692,-0.19483 2.456212,-0.33584 0,0 1.312061,-0.98073 1.312061,-0.98073 v 0 c -1.751029,0.25194 -3.501978,0.54055 -5.267984,0.66137 0,0 -1.580237,1.14811 -1.580237,1.14811 z" />
    <path
       style="fill:#b3b3b0;stroke-width:0.1;stroke-linejoin:round"
       id="path877"
       d="m 77.462993,180.6688 c 0.257559,0.79775 0.471776,1.60746 0.664871,2.42286 0.07772,0.33088 0.140878,0.66474 0.188908,1.00113 0,0 1.717413,-0.91513 1.717413,-0.91513 v 0 c -0.07531,-0.32909 -0.163653,-0.65481 -0.254326,-0.97999 -0.219363,-0.81345 -0.476665,-1.62202 -0.596278,-2.45772 0,0 -1.720588,0.92885 -1.720588,0.92885 z" />
    <path
       style="fill:#b3b3b0;stroke-width:0.1;stroke-linejoin:round"
       id="path879"
       d="m 77.339337,179.6577 c 0.05416,0.0218 0.110096,0.0396 0.162489,0.0653 0.730647,0.35901 1.416322,0.80609 2.114505,1.22236 0.326593,0.19041 0.65555,0.37661 0.979421,0.57165 0.07458,0.0449 0.148323,0.0912 0.223036,0.13585 0.05876,0.0351 0.112559,0.0815 0.177358,0.10356 0.07089,0.0242 0.148201,0.0218 0.2223,0.0327 0.643155,-0.35894 1.30297,-0.68953 1.929466,-1.07682 0.07769,-0.048 0.571344,-0.61684 0.602255,-0.65296 0.325441,-0.38032 0.637707,-0.77249 0.957416,-1.15764 0.117968,-0.12832 0.416672,-0.47027 0.574884,-0.5833 0.06893,-0.0493 0.302631,-0.15119 0.230961,-0.10603 -3.253476,2.05009 -1.719731,0.33019 -1.469663,1.05743 0.03666,0.10663 0.05411,0.21893 0.08117,0.32839 0.139872,0.94351 0.118647,1.90125 0.105473,2.85224 -0.0043,0.46491 -0.02408,0.92782 -0.08916,1.38818 -0.02119,0.14525 -0.01662,0.0735 -0.01492,0.21506 0,0 1.757428,-0.89302 1.757428,-0.89302 v 0 c 0.0048,-0.12014 0.0011,-0.0559 0.01233,-0.19263 0.03348,-0.45582 0.01299,-0.91105 0.0026,-1.36761 -0.01349,-0.96486 -0.02215,-1.93187 -0.110797,-2.8933 -0.02373,-0.13272 -0.02982,-0.26982 -0.07117,-0.39814 -0.03261,-0.10119 -0.04626,-0.31278 -0.14817,-0.28246 -0.655359,0.19503 -1.241914,0.57301 -1.853781,0.87821 -0.06702,0.0334 -0.124019,0.0849 -0.179039,0.13576 -0.155879,0.14397 -0.402418,0.43723 -0.532273,0.58625 -0.41888,0.5108 -0.821949,1.05403 -1.307557,1.50483 -0.103431,0.096 -0.455679,0.32706 -0.327152,0.26876 0.487198,-0.221 0.941935,-0.50752 1.412904,-0.76128 -0.05514,0.0186 -0.10745,0.0612 -0.165404,0.0559 -0.03869,-0.004 -0.425972,-0.21424 -0.426289,-0.21441 -0.340707,-0.18351 -0.684538,-0.36027 -1.028517,-0.53766 -0.750361,-0.42696 -1.493901,-0.87129 -2.182239,-1.39434 0,0 -1.639861,1.10921 -1.639861,1.10921 z" />
    <path
       style="fill:#b3b3b0;stroke-width:0.1;stroke-linejoin:round"
       id="path881"
       d="m 67.752128,171.14404 c 1.88785,-0.83055 3.860893,-1.45412 5.859061,-1.95881 0.775509,-0.19587 1.558292,-0.36172 2.337437,-0.54259 4.951413,-0.9754 10.003309,-1.31467 15.039533,-1.46848 0.851223,-0.026 1.702872,-0.0356 2.554306,-0.0533 1.610112,-0.0104 2.225636,-0.0396 3.764447,0.0362 1.09833,0.0541 2.230128,0.14189 3.276588,0.511 0.23721,0.0837 0.45864,0.2067 0.68796,0.31004 0.56016,0.32802 1.14218,0.72985 1.27138,1.41297 0.0282,0.1489 0.0492,0.30275 0.033,0.45341 -0.0204,0.18919 -0.0942,0.36873 -0.14129,0.55309 -0.10604,0.19998 -0.18049,0.42022 -0.3181,0.59994 -0.3876,0.50623 -1.0458,0.99835 -1.62761,1.22086 -0.0637,0.0243 -0.0425,-0.18647 -0.10931,-0.17285 -0.538607,0.10979 -1.040707,0.35499 -1.566735,0.51451 -0.468067,0.14196 -0.943118,0.25977 -1.414677,0.38966 -0.988938,0.2513 -1.988074,0.46583 -2.998221,0.61233 -0.559419,0.0811 -1.12291,0.13064 -1.685208,0.18642 -0.134438,0.0271 -0.271246,0.0442 -0.40331,0.0812 -0.15631,0.0437 -0.307663,0.10371 -0.459803,0.16026 -0.385779,0.14338 -0.767266,0.29809 -1.152356,0.44332 -0.162213,0.0612 -0.334952,0.0992 -0.487064,0.1824 -0.617857,0.33783 -1.211416,0.71832 -1.817124,1.07748 0.07198,0.0927 0.108104,0.23178 0.215943,0.27807 0.299958,0.12877 1.589175,0.11671 1.728581,0.12137 0.48328,0.0162 0.966806,0.0289 1.449512,0.0574 1.675095,0.0991 1.759466,0.13428 3.414426,0.3328 1.266606,0.20472 2.552581,0.40581 3.767985,0.83574 0.444341,0.15718 0.936633,0.37212 1.298361,0.69112 0.14466,0.12757 0.24937,0.29431 0.37405,0.44147 0.0743,0.17121 0.18173,0.33159 0.22293,0.51363 0.0452,0.19967 0.0455,0.40903 0.0321,0.6133 -0.0514,0.78681 -0.42509,1.51366 -0.905767,2.124 -0.200893,0.25509 -0.440515,0.47713 -0.660776,0.7157 -0.755687,0.67847 -1.557758,1.32106 -2.446483,1.81977 -0.154895,0.0869 0.607158,-0.35087 0.434782,-0.30805 -0.399603,0.0993 -0.752821,0.33466 -1.1371,0.48252 -0.468746,0.18038 -0.947179,0.33449 -1.42077,0.50173 -0.568809,0.16551 -1.134009,0.34398 -1.70643,0.49653 -1.161725,0.30962 -2.550538,0.61604 -3.729283,0.85079 -1.291072,0.25711 -2.339706,0.43757 -3.647612,0.6078 -0.701863,0.0913 -1.406454,0.16038 -2.109679,0.24056 -2.836186,0.27602 -5.685454,0.35454 -8.533271,0.37062 -0.584118,-0.0164 -1.172506,0.0187 -1.755939,-0.0293 -0.223012,-0.0183 -0.396972,-0.0361 -0.589576,-0.1556 -0.08664,-0.0537 -0.156157,-0.13114 -0.234235,-0.19671 -0.339911,-0.36224 -0.685528,-0.71784 -1.039183,-1.06663 0,0 -1.567196,0.96165 -1.567196,0.96165 v 0 c 0.352729,0.34935 0.696751,0.70507 0.992806,1.10541 0.203822,0.19476 0.282708,0.31889 0.563425,0.39989 0.209955,0.0606 0.656635,0.0424 0.849125,0.039 0.09436,-0.002 1.375378,-0.0375 1.383149,-0.0377 2.951012,-0.1086 5.896478,-0.33604 8.838951,-0.57981 0.686057,-0.065 1.373749,-0.11467 2.05817,-0.19511 1.402713,-0.16486 2.280621,-0.33225 3.662889,-0.60808 1.094333,-0.21838 2.607395,-0.54248 3.693464,-0.81171 0.551456,-0.1367 1.097823,-0.29317 1.646735,-0.43975 0.691206,-0.22582 1.813917,-0.55846 2.489343,-0.89952 1.782768,-0.90022 3.42464,-1.83131 4.868751,-3.20521 0.22462,-0.25055 0.46924,-0.48452 0.67386,-0.75167 0.50005,-0.65284 0.89038,-1.4242 0.92864,-2.2591 0.0104,-0.22677 0.007,-0.4589 -0.0466,-0.67944 -0.0484,-0.19841 -0.17011,-0.37135 -0.25516,-0.55703 -0.14026,-0.15769 -0.25758,-0.33927 -0.42079,-0.47308 -0.39371,-0.3228 -0.95256,-0.52867 -1.42582,-0.67004 -1.282106,-0.38297 -2.623411,-0.53497 -3.939559,-0.74363 -1.565804,-0.19068 -3.130042,-0.3703 -4.700379,-0.5189 -0.319548,-0.0302 -0.639707,-0.0548 -0.958532,-0.0918 -0.166307,-0.0194 -0.32919,-0.067 -0.496298,-0.0773 -0.02884,-0.002 -0.0506,0.0279 -0.0759,0.0419 -0.471618,0.25626 -0.960324,0.48329 -1.414849,0.76877 -0.153149,0.0962 0.336505,-0.13266 0.505325,-0.19753 1.050761,-0.40371 0.09106,-0.0298 1.118923,-0.41935 0.14397,-0.0546 0.284096,-0.1197 0.430469,-0.16744 0.131281,-0.0428 0.267372,-0.0692 0.401058,-0.10381 0.594918,-0.086 1.194726,-0.15125 1.787419,-0.2511 1.067094,-0.17977 2.119635,-0.43979 3.164388,-0.71865 0.546428,-0.15518 2.522484,-0.70045 3.012937,-0.90733 0.959848,-0.40489 1.893448,-0.87127 2.817808,-1.35167 0.72433,-0.37644 1.2622,-0.71536 1.73957,-1.36878 0.14323,-0.19605 0.21822,-0.43379 0.32733,-0.65068 0.0499,-0.20794 0.12994,-0.41089 0.14977,-0.62382 0.0155,-0.16633 -0.01,-0.33583 -0.0452,-0.49908 -0.16517,-0.76226 -0.79884,-1.14666 -1.43767,-1.48912 -0.24757,-0.10177 -0.48747,-0.22466 -0.7427,-0.3053 -1.12943,-0.35683 -2.323379,-0.39683 -3.496632,-0.40307 -1.607081,-0.009 -2.313159,0.0447 -3.984064,0.11683 -2.06753,0.0959 -3.581458,0.16196 -5.672724,0.27749 -3.971584,0.21941 -7.952867,0.47236 -11.873368,1.18019 -0.752755,0.15831 -1.508868,0.30143 -2.258269,0.47493 -0.640969,0.1484 -1.276135,0.32101 -1.911839,0.49056 -1.179981,0.31471 -2.36161,0.64215 -3.493762,1.10526 0,0 -1.552499,1.20613 -1.552499,1.20613 z" />
    <path
       style="fill:#b3b3b0;stroke-width:0.1;stroke-linejoin:round"
       id="path883"
       d="m 95.475535,142.34059 c 0.01066,0.27486 0.03473,0.54953 0.03203,0.82459 -0.005,0.50513 -0.03018,1.00992 -0.055,1.51446 -0.113609,2.30958 -0.16582,3.11596 -0.433258,5.50773 -0.264239,2.36318 -0.443894,3.4341 -0.787191,5.73912 -0.449355,2.80188 -0.235368,1.4854 -0.640069,3.94972 0,0 1.327552,-0.65557 1.327552,-0.65557 v 0 c 0.205203,-2.37368 0.0863,-1.10238 0.365025,-3.81312 0.336756,-2.92232 0.680595,-5.84528 1.107143,-8.75621 0.129617,-0.88456 0.283313,-1.76543 0.421608,-2.64868 0.452808,-2.89196 0.06723,-0.53145 0.394841,-2.51744 0,0 -1.732677,0.8554 -1.732677,0.8554 z" />
    <path
       style="fill:#b3b3b0;stroke-width:0.1;stroke-linejoin:round"
       id="path885"
       d="m 96.663424,143.10947 c 0.05797,0.0747 0.121346,0.14554 0.173913,0.22416 0.07863,0.11761 0.145664,0.24257 0.219033,0.36353 1.32755,2.1887 -0.807201,-1.34247 0.840256,1.40129 1.00053,1.66633 0.228404,0.33922 1.229439,2.08713 0.399211,0.65936 0.737619,1.35344 1.128445,2.01753 0.1571,0.26695 0.44282,0.91633 0.88563,0.96074 0.18622,0.0187 0.37954,-0.0672 0.5343,-0.17246 0.71555,-0.48657 1.36929,-1.05833 2.05394,-1.5875 0.58219,-0.96817 1.10778,-1.96847 1.64951,-2.95936 0.12392,-0.22668 0.62799,-1.166 0.82137,-1.43093 0.0907,-0.12422 0.21293,-0.22196 0.31939,-0.33293 -0.46847,0.31418 -1.00369,0.54657 -1.4054,0.94254 -0.0775,0.0764 0.12491,0.1816 0.16065,0.28445 0.0932,0.26805 0.16668,0.54342 0.22369,0.82141 0.27068,1.31991 0.33139,2.67551 0.41202,4.01595 0.13137,2.6579 0.13539,5.32028 0.0864,7.98036 -1.1e-4,0.7594 -0.0445,1.51781 -0.059,2.27685 -0.007,0.35286 -0.0109,0.62875 0.025,0.97709 0.0139,0.13469 0.0404,0.26778 0.0606,0.40167 0.1026,0.45641 0.0419,0.23416 0.18043,0.66721 0,0 1.66476,-0.91517 1.66476,-0.91517 v 0 c -0.13571,-0.41158 -0.0737,-0.201 -0.185,-0.63207 -0.0224,-0.12676 -0.0502,-0.25267 -0.0671,-0.38028 -0.0421,-0.31895 -0.051,-0.61973 -0.0621,-0.94176 -0.0253,-0.73929 -0.0416,-1.47898 -0.0575,-2.21851 -0.0678,-2.64225 -0.0989,-5.28566 -0.20966,-7.92668 -0.0156,-0.29735 -0.13525,-2.60999 -0.15744,-2.92169 -0.017,-0.23904 -0.1492,-1.79264 -0.23017,-2.12864 -0.0414,-0.17163 -0.0457,-0.51762 -0.21868,-0.48237 -0.68241,0.13906 -1.25375,0.60678 -1.88062,0.91017 -0.078,0.11058 -0.16541,0.21506 -0.23394,0.33173 -0.11029,0.18776 -0.65462,1.28137 -0.7077,1.38435 -0.52337,1.01533 -1.06038,2.02789 -1.72645,2.95909 0.32605,-0.08 0.64418,-0.27433 0.97814,-0.24001 0.17384,0.0179 -0.26041,0.26641 -0.43262,0.29607 -0.16319,0.0281 -0.34732,-0.0362 -0.47683,-0.13942 -0.2108,-0.16798 -0.3453,-0.41498 -0.49781,-0.63724 -0.38908,-0.56706 -0.84182,-1.40161 -1.17323,-1.98784 -0.53726,-0.97922 -1.073608,-1.9583 -1.557282,-2.96556 -0.166076,-0.34586 -0.311608,-0.70144 -0.481579,-1.0454 -0.04079,-0.0826 -0.08784,-0.16187 -0.131765,-0.24279 0,0 -1.695,0.98529 -1.695,0.98529 z" />
    <path
       style="fill:#b3b3b0;stroke-width:0.1;stroke-linejoin:round"
       id="path887"
       d="m 96.752896,142.12078 c -1.651823,0.30576 -3.33629,0.36697 -5.010486,0.44076 0,0 -1.238682,0.90818 -1.238682,0.90818 v 0 c 1.55787,-0.0665 3.115826,-0.1275 4.674156,-0.17843 0,0 1.575012,-1.17051 1.575012,-1.17051 z" />
    <path
       style="fill:#b3b3b0;stroke-width:0.1;stroke-linejoin:round"
       id="path889"
       d="m 95.681804,148.24206 c -0.920279,0.0543 -1.843201,0.0517 -2.7648,0.0567 0,0 -1.443784,1.04897 -1.443784,1.04897 v 0 c 0.869476,0.005 1.740823,-5.3e-4 2.60871,0.0567 0,0 1.599874,-1.16238 1.599874,-1.16238 z" />
    <path
       style="fill:#b3b3b0;stroke-width:0.1;stroke-linejoin:round"
       id="path891"
       d="m 106.87289,145.83088 c 0.99078,-0.11185 1.99311,-0.12725 2.98847,-0.0781 0.44294,0.0328 0.88873,0.12726 1.209,0.45965 0.18729,0.19438 0.21001,0.28796 0.32982,0.5291 0.13167,0.41893 0.30132,0.89648 0.16911,1.33969 -0.0908,0.30423 -0.23398,0.44184 -0.42412,0.69196 -0.11811,0.1153 -0.22993,0.23743 -0.35434,0.34591 -0.12962,0.11301 -0.2654,0.21937 -0.40658,0.31756 -0.14718,0.10235 -0.61273,0.37234 -0.45722,0.28317 2.01278,-1.15409 1.20901,-0.68819 0.66902,-0.44457 -0.13991,0.0631 -0.28323,0.11843 -0.42485,0.17764 -0.64802,0.27086 -1.31736,0.48465 -1.97238,0.7367 -0.3474,0.13833 -0.70329,0.25582 -1.04866,0.39931 -0.0634,0.0264 -0.13705,0.0384 -0.1879,0.0845 -0.44303,0.40214 -0.85695,0.83522 -1.28543,1.25283 0.33095,0.0411 0.66078,0.0926 0.99287,0.12323 3.64976,0.33625 -0.18166,-0.0972 3.65203,0.31194 1.4921,0.15925 2.96897,0.3757 4.447,0.63082 0.7901,0.19036 1.99066,0.36934 2.61146,0.96776 0.28687,0.27652 0.31369,0.46581 0.4583,0.83099 0.0782,0.46109 0.139,0.67425 0.11678,1.15028 -0.033,0.7063 -0.2694,1.38404 -0.57304,2.01578 -0.11189,0.2328 -0.24572,0.45439 -0.36858,0.68159 -0.13868,0.21059 -0.26281,0.4315 -0.41602,0.63176 -0.76586,1.00098 -1.87446,1.71788 -2.97171,2.30506 -0.15181,0.0812 0.28806,-0.18871 0.4321,-0.28307 -1.06903,0.54597 -2.15864,1.07064 -3.30945,1.42309 -0.561,0.17182 -0.76003,0.20113 -1.31672,0.31749 -0.65205,0.0818 -1.37339,0.26533 -2.02916,0.10174 -0.0933,-0.0233 -0.18212,-0.0619 -0.27317,-0.0929 -0.50412,-0.22035 -0.79059,-0.52249 -1.01504,-1.01621 -0.11476,-0.32178 -0.12855,-0.66222 -0.13332,-0.99991 0,0 -1.69918,0.86971 -1.69918,0.86971 v 0 c 0.008,0.36672 0.0173,0.73756 0.15029,1.08502 0.26532,0.52041 0.57442,0.87769 1.11545,1.12802 0.23155,0.0901 0.36587,0.15866 0.61774,0.18857 0.11567,0.0137 0.23296,0.009 0.34941,0.006 0.49845,-0.0124 0.99073,-0.0954 1.48093,-0.17987 0.5473,-0.11722 0.81956,-0.16455 1.36753,-0.33013 1.18438,-0.35787 2.30482,-0.89876 3.40341,-1.46031 0.8003,-0.45026 1.6041,-0.89436 2.4009,-1.35078 0.90142,-0.51636 1.80291,-1.05576 2.53157,-1.80796 0.49122,-0.50709 0.55372,-0.67232 0.92121,-1.25723 0.36698,-0.70441 0.70926,-1.36393 0.87238,-2.15201 0.12885,-0.62255 0.0795,-1.25079 -0.049,-1.86761 -0.15451,-0.40615 -0.18197,-0.62649 -0.50879,-0.92968 -0.12993,-0.12055 -0.28639,-0.21159 -0.44423,-0.2922 -0.74251,-0.37919 -1.59207,-0.46883 -2.39845,-0.61497 -1.41463,-0.17544 -1.30576,-0.16649 -2.82824,-0.33402 -1.73245,-0.19063 -3.4706,-0.33885 -5.18512,-0.66334 -0.27276,-0.0516 -0.54003,-0.12892 -0.81005,-0.19339 -0.6056,0.3381 -1.21084,0.67685 -1.8168,1.0143 -0.0638,0.0356 0.12458,-0.0769 0.1904,-0.10859 0.33962,-0.16364 0.7091,-0.26145 1.05654,-0.40595 0.66331,-0.27512 1.35213,-0.4837 2.01287,-0.76657 1.13458,-0.45517 1.68706,-0.81838 2.92426,-1.54806 0.46093,-0.27184 0.87002,-0.61593 1.21734,-1.02272 0.20701,-0.31192 0.32371,-0.42334 0.40744,-0.79087 0.11005,-0.48309 -0.0669,-0.98346 -0.21276,-1.43596 -0.12994,-0.26743 -0.15979,-0.37944 -0.36181,-0.59983 -0.34615,-0.37761 -0.82304,-0.51172 -1.31979,-0.53655 -0.97077,-0.0303 -1.94123,0.0135 -2.91199,-0.0141 0,0 -1.58172,1.17656 -1.58172,1.17656 z" />
    <path
       style="fill:#b3b3b0;stroke-width:0.1;stroke-linejoin:round"
       id="path893"
       d="m 98.549906,133.72467 c -0.08684,-1.08933 -0.12677,-2.17904 -0.161327,-3.27123 -0.02368,-0.74818 -0.0557,-1.4962 -0.06631,-2.24467 -0.02392,-1.68664 0.0098,-2.79926 0.04108,-4.46696 -2.113772,0.93435 1.214694,-2.94444 0.328541,-2.72152 -0.516771,0.13 -1.00071,0.66187 -1.066745,1.19064 -0.05517,0.44173 0.545764,0.70519 0.78294,1.08191 0.669898,1.06405 1.11122,2.03025 1.667175,3.1551 0.23991,0.49661 0.89968,1.97169 1.31655,2.4719 0.17416,0.20897 0.38551,0.4389 0.65273,0.48986 0.25887,0.0494 0.53913,-0.0756 0.75922,-0.22061 2.20812,-1.45445 1.84057,-1.11072 2.72612,-2.76959 0.16236,-0.37875 0.33277,-0.75415 0.48707,-1.13625 0.32733,-0.81057 0.42852,-1.13934 0.68831,-1.94153 0.0722,-0.22293 0.11504,-0.45709 0.2131,-0.66991 0.0384,-0.0834 0.25889,-0.26003 0.18831,-0.20123 -0.51788,0.43136 -1.02107,0.88007 -1.5316,1.3201 0.11725,0.39377 0.24599,0.7843 0.35173,1.18132 0.71443,2.68232 1.18303,5.42148 1.62858,8.15845 0,0 1.42397,-0.76087 1.42397,-0.76087 v 0 c -0.72988,-3.12722 -1.43959,-6.27163 -1.78824,-9.46794 -0.61641,0.1174 -1.2459,0.17978 -1.84923,0.35221 -0.062,0.0177 -0.0282,0.12577 -0.0428,0.18853 -0.0493,0.21152 -0.0937,0.42429 -0.14904,0.63431 -0.27284,1.03518 -0.6278,2.04618 -1.10545,3.00629 -2.01169,3.41721 -0.24637,-0.25278 0.14522,1.01485 0.0751,0.24303 -0.4175,0.36205 -0.67186,0.36179 -0.26893,-2.6e-4 -0.52372,-0.17979 -0.72042,-0.36318 -0.55413,-0.51664 -1.14128,-1.77106 -1.45985,-2.36639 -1.32311,-2.68746 -0.27065,-0.52946 -1.560285,-3.22994 -0.202716,-0.42448 -0.159851,-1.14494 -0.613019,-1.27112 -2.12286,-0.59111 -2.048158,0.38015 -2.049909,1.44903 -7.94e-4,0.55988 0.02675,1.11945 0.04013,1.67917 0.02043,1.67959 0.04725,2.73761 0.007,4.44213 -0.01828,0.77525 -0.05747,1.54988 -0.09189,2.32458 -0.05151,1.15943 -0.10119,2.32165 -0.262242,3.47242 0,0 1.742403,-0.87165 1.742403,-0.87165 z" />
    <path
       style="fill:#b3b3b0;stroke-width:0.1;stroke-linejoin:round"
       id="path895"
       d="m 107.94616,123.68655 c 0.71321,-0.4509 -0.72924,0.40037 -1.0803,0.62297 -0.14423,0.0915 0.30253,-0.15888 0.45764,-0.23037 0.3264,-0.15043 0.66694,-0.28272 1.01353,-0.37902 0.17976,-0.0499 0.3638,-0.0829 0.5457,-0.12434 0.48643,-0.0507 0.99467,-0.0832 1.47518,0.0396 0.15687,0.0401 0.46169,0.15849 0.56422,0.31056 0.0552,0.0818 0.0525,0.19024 0.0787,0.28536 -0.0596,0.15122 -0.10224,0.31023 -0.17868,0.45365 -0.39234,0.73614 -0.98095,1.34621 -1.55228,1.94275 -0.18182,0.18983 -0.38894,0.35692 -0.55228,0.56287 -0.11509,0.14512 -0.18428,0.32134 -0.27642,0.48201 0.0935,0.15343 0.14758,0.33947 0.28058,0.4603 0.24288,0.22065 0.95953,0.4734 1.24066,0.59339 0.40909,0.1746 0.78739,0.33306 1.15728,0.5823 0.14983,0.10096 0.28164,0.22639 0.42246,0.3396 0.41769,0.41061 0.71728,0.82619 0.68017,1.43822 -0.008,0.12553 -0.0228,0.25334 -0.066,0.37145 -0.0458,0.12512 -0.13135,0.23184 -0.19702,0.34776 0.28684,-0.0205 -1.00259,0.7437 -0.74792,0.56328 0.3392,-0.2403 0.75914,-0.38024 1.04253,-0.68437 0.13255,-0.14226 -0.3708,0.11797 -0.55927,0.16574 -0.39331,0.0997 -0.61083,0.123 -1.00236,0.18143 -0.6121,0.0848 -1.22944,0.10865 -1.84651,0.1167 0,0 -1.54241,1.12234 -1.54241,1.12234 v 0 c 0.63836,-8e-4 1.27659,-0.0116 1.90691,-0.12775 0.38608,-0.0597 0.65414,-0.0948 1.04056,-0.18272 0.19109,-0.0435 0.3917,-0.0644 0.56903,-0.14783 0.71925,-0.33841 1.41493,-0.72552 2.10933,-1.11238 0.43103,-0.24013 0.43343,-0.30634 0.735,-0.66598 0.0597,-0.13539 0.13995,-0.26348 0.17911,-0.40618 0.036,-0.13129 0.0436,-0.26993 0.0438,-0.40607 7.9e-4,-0.66848 -0.31684,-1.11507 -0.79644,-1.54769 -0.15161,-0.11761 -0.2941,-0.24801 -0.45483,-0.35282 -0.36477,-0.23788 -0.79007,-0.41597 -1.18669,-0.5882 -0.31699,-0.13764 -0.83083,-0.31844 -1.11742,-0.54374 -0.0889,-0.0699 -0.13776,-0.17954 -0.20664,-0.26932 0.0736,-0.1359 0.1264,-0.2853 0.22073,-0.40771 0.15432,-0.20025 0.34769,-0.36712 0.51938,-0.5527 0.39162,-0.42333 0.84144,-0.90367 1.18144,-1.37004 0.15878,-0.21779 0.3172,-0.43924 0.43463,-0.68183 0.089,-0.18393 0.11946,-0.39084 0.17919,-0.58626 -0.0436,-0.12871 -0.055,-0.27328 -0.13071,-0.38615 -0.0668,-0.0996 -0.17594,-0.16621 -0.27981,-0.22616 -0.54529,-0.31472 -1.31195,-0.23366 -1.91074,-0.21875 -0.18457,0.0362 -0.37104,0.0637 -0.55371,0.10856 -1.25756,0.30861 -2.36934,1.0572 -3.46222,1.70474 -0.074,0.0439 -0.13685,0.10445 -0.20527,0.15667 0,0 1.82818,-0.75387 1.82818,-0.75387 z" />
    <path
       style="fill:#b3b3b0;stroke-width:0.1;stroke-linejoin:round"
       id="path897"
       d="m 97.501,122.81639 c 1.059042,-0.0644 2.118886,-0.11458 3.17824,-0.17345 0.81518,-0.0423 0.4166,-0.0166 1.19583,-0.0758 0,0 1.46587,-1.08464 1.46587,-1.08464 v 0 c -0.78858,0.0777 -0.38598,0.0464 -1.20793,0.0922 -1.01082,0.0531 -2.02565,0.12651 -3.037734,0.0834 0,0 -1.594276,1.15831 -1.594276,1.15831 z" />
    <path
       style="fill:#b3b3b0;stroke-width:0.1;stroke-linejoin:round"
       id="path899"
       d="m 80.388988,119.97938 c 0.08346,0.59216 0.131151,0.90024 0.196808,1.54455 0.04437,0.43541 0.07796,0.87184 0.116763,1.30778 0.102955,1.1565 0.204653,2.25491 0.287777,3.41507 0.04222,0.58922 0.0743,1.17913 0.11145,1.76869 0.105582,1.87715 0.161116,3.7567 0.161753,5.63673 0,0 1.602632,-0.82594 1.602632,-0.82594 v 0 c -0.1723,-1.82589 -0.329719,-3.65318 -0.468395,-5.48195 -0.189934,-2.74076 -0.357367,-5.4883 -0.297407,-8.23692 0,0 -1.711381,0.87199 -1.711381,0.87199 z" />
    <path
       style="fill:#b3b3b0;stroke-width:0.1;stroke-linejoin:round"
       id="path901"
       d="m 81.351259,121.02448 c 0.314537,0.10807 0.635662,0.23994 0.896226,0.45232 0.06148,0.0501 0.116549,0.10761 0.174821,0.16141 0.421494,0.4742 0.786429,0.99806 1.128109,1.53188 0.308422,0.42723 0.519814,0.90712 0.751671,1.3764 0.228454,0.43554 0.500483,0.84547 0.785243,1.2457 0.287952,0.38959 0.498359,0.82949 0.794692,1.21228 0.745236,0.46283 0.339471,0.27581 2.006042,-0.98758 0.117454,-0.089 0.09276,-0.2798 0.139327,-0.41964 0.06528,-0.19608 0.132524,-0.39151 0.196202,-0.58811 0.15943,-0.49223 0.313684,-0.98612 0.473112,-1.47835 0.351009,-1.01324 0.646046,-2.04779 1.048369,-3.04253 0.128749,-0.25098 0.238887,-0.52285 0.419399,-0.74379 0.04635,-0.0567 0.09771,-0.11057 0.156411,-0.15441 0.05676,-0.0424 0.247353,-0.13822 0.186592,-0.10178 -0.487244,0.2922 -0.977448,0.57943 -1.466173,0.86915 0.15162,-0.0427 0.251177,-0.096 0.412083,-0.042 0.451351,0.15146 0.675942,0.83633 0.844191,1.22002 0.438269,1.17772 0.503242,2.44149 0.645736,3.6778 0.186614,1.54219 0.381765,3.08297 0.586328,4.6228 0.12365,0.87411 0.252153,1.74753 0.341381,2.62594 0,0 1.656866,-0.8701 1.656866,-0.8701 v 0 c -0.126757,-0.86508 -0.262395,-1.72894 -0.420907,-2.58884 -0.248132,-1.52906 -0.421683,-3.06907 -0.595019,-4.60813 -0.09848,-1.26773 -0.179435,-2.5493 -0.607042,-3.7591 -0.1921,-0.49819 -0.472109,-1.42019 -1.114906,-1.49788 -0.07708,-0.009 -0.154911,0.0109 -0.232365,0.0163 -0.616641,0.3475 -1.239925,0.68346 -1.849924,1.0425 -0.06349,0.0374 -0.116795,0.0908 -0.16708,0.14466 -0.245419,0.26278 -0.366045,0.6249 -0.511881,0.94469 -0.345496,0.98556 -0.593482,2.00284 -0.924028,2.99349 -0.198541,0.60231 -0.287438,0.89946 -0.51857,1.49063 -0.07933,0.2029 -0.159155,0.40606 -0.25377,0.6023 -0.06569,0.13624 -0.37206,0.43363 -0.226266,0.39333 3.044544,-0.84133 2.028899,-0.78089 1.43442,-0.75479 -0.04473,-0.0517 -0.09474,-0.0993 -0.134192,-0.15518 -0.04725,-0.0669 -0.0824,-0.14156 -0.124883,-0.21158 -0.171064,-0.28193 -0.352878,-0.55634 -0.540732,-0.82733 -0.277585,-0.39316 -0.534884,-0.80076 -0.76051,-1.2261 -0.239959,-0.47302 -0.473657,-0.94958 -0.786961,-1.3806 -0.355293,-0.54136 -0.729583,-1.07189 -1.131906,-1.57935 -0.06077,-0.0623 -0.117697,-0.12853 -0.182327,-0.18677 -0.260255,-0.23454 -0.589275,-0.36225 -0.894863,-0.52372 0,0 -1.632916,1.10405 -1.632916,1.10405 z" />
    <path
       style="fill:#b3b3b0;stroke-width:0.1;stroke-linejoin:round"
       id="path903"
       d="m 81.338694,127.40057 c 0.615688,0.44953 1.217324,0.91627 1.857581,1.33071 0.559203,0.39232 1.198722,0.62407 1.825231,0.88026 0,0 1.588731,-1.06324 1.588731,-1.06324 v 0 c -0.625179,-0.25159 -1.27561,-0.45184 -1.842056,-0.82933 -0.646755,-0.39545 -1.219319,-0.82581 -1.761728,-1.35678 0,0 -1.667759,1.03838 -1.667759,1.03838 z" />
    <path
       style="fill:#b3b3b0;stroke-width:0.1;stroke-linejoin:round"
       id="path905"
       d="m 93.119079,119.20595 c 0.0452,-0.0762 0.08227,-0.15787 0.135604,-0.22864 0.161759,-0.21464 0.455338,-0.51856 0.669034,-0.66648 0.17069,-0.11816 0.700423,-0.43924 0.544671,-0.30199 -0.793433,0.69917 -1.462138,0.72999 -0.274331,0.5139 0.192805,0.0325 0.397418,0.0236 0.578414,0.0976 0.41765,0.17068 0.700159,0.50583 0.769482,0.96426 0.115322,0.76261 -0.186901,1.51158 -0.528772,2.16661 -0.234842,0.44995 -0.548921,0.85388 -0.823381,1.28082 -0.970539,1.19234 -0.850733,1.11209 -1.901285,2.15532 -0.05659,0.0562 -1.155031,0.94895 -1.153986,1.32484 0.0013,0.51945 1.112565,0.41182 1.193901,0.41791 1.339985,-0.0122 2.968868,-0.1985 4.191217,0.48499 0.163605,0.0915 0.301572,0.2227 0.452358,0.33406 0.09112,0.13096 0.227232,0.24015 0.273349,0.39288 0.07941,0.26298 -0.0811,0.69184 -0.222795,0.89392 -0.119729,0.17076 -0.270084,0.32108 -0.431821,0.45273 -0.193225,0.15729 -0.826704,0.55603 -0.626028,0.40837 0.241927,-0.17802 0.499964,-0.33303 0.749948,-0.49955 -1.049946,0.47952 -2.179685,0.70599 -3.309091,0.90117 0,0 -1.41061,1.06371 -1.41061,1.06371 v 0 c 1.13773,-0.21204 2.283709,-0.42581 3.356637,-0.87679 0.75208,-0.41132 1.516324,-0.80114 2.256242,-1.23396 0.557151,-0.32591 1.171858,-0.81884 1.263443,-1.5094 0.02368,-0.17863 0.02503,-0.37046 -0.03806,-0.53924 -0.06282,-0.16806 -0.216093,-0.28646 -0.324138,-0.42968 -0.166302,-0.11817 -0.319035,-0.25825 -0.498907,-0.35451 -0.440412,-0.23571 -0.962744,-0.35921 -1.450157,-0.433 -0.929415,-0.1407 -1.862944,-0.0739 -2.797969,-0.0816 -0.231719,-0.0159 -0.46524,-0.0147 -0.695153,-0.0476 -0.09285,-0.0133 -0.257423,0.003 -0.266533,-0.0902 -0.03516,-0.36032 0.948518,-1.1844 0.956027,-1.19229 1.007724,-1.05913 0.875615,-0.9512 1.829948,-2.15552 0.591944,-0.9121 1.134372,-1.57947 1.421003,-2.64451 0.16759,-0.62272 0.16882,-1.25071 -0.223639,-1.78587 -0.33378,-0.45514 -0.659225,-0.43436 -1.152432,-0.54402 -1.445345,0.18961 -0.595577,10e-4 -2.846668,1.21264 -0.614257,0.33064 -1.104501,0.76323 -1.443263,1.37594 0,0 1.777741,-0.82679 1.777741,-0.82679 z" />
    <g
       aria-label="B"
       transform="scale(1.0182726,0.98205529)"
       id="text11059"
       style="font-size:3.81417px;-inkscape-font-specification:sans-serif;letter-spacing:0px;word-spacing:0px;fill:#ff7f00;stroke:none;stroke-width:0.05;fill-opacity:1">
      <path
         style="color:#000000;-inkscape-font-specification:sans-serif;fill:#ff7f00;stroke:none;-inkscape-stroke:none;fill-opacity:1"
         d="m 56.216797,128.09961 v 0.0234 2.80664 h 1.023437 c 0.315259,0 0.561615,-0.069 0.736328,-0.20899 0.174679,-0.14 0.261719,-0.34171 0.261719,-0.5957 0,-0.19327 -0.0532,-0.35617 -0.160156,-0.48633 -0.09536,-0.11862 -0.236477,-0.1877 -0.400391,-0.23242 0.131616,-0.0311 0.24682,-0.0808 0.320313,-0.17383 0.08371,-0.10594 0.125,-0.24788 0.125,-0.42187 0,-0.22565 -0.0811,-0.40363 -0.242188,-0.52735 -0.161099,-0.12372 -0.387464,-0.18359 -0.677734,-0.18359 z m 0.04883,0.0488 h 0.9375 c 0.283344,0 0.497185,0.0592 0.646484,0.17383 0.149312,0.11467 0.222657,0.2744 0.222657,0.48828 0,0.1662 -0.03807,0.29544 -0.113282,0.39062 -0.07521,0.0952 -0.184598,0.1556 -0.333984,0.17969 l -0.002,0.0488 c 0.180585,0.0388 0.318038,0.11836 0.416015,0.24023 0.09915,0.12066 0.150391,0.27091 0.150391,0.45508 0,0.24265 -0.08111,0.42597 -0.244141,0.55664 -0.162999,0.13064 -0.397057,0.19727 -0.705078,0.19727 h -0.974609 z m 0.326172,0.25976 v 0.0254 0.86328 h 0.582031 c 0.186852,0 0.32982,-0.0361 0.425781,-0.10937 0.09714,-0.0745 0.146485,-0.18906 0.146485,-0.33594 0,-0.14568 -0.04941,-0.25951 -0.146485,-0.33398 -0.09595,-0.0746 -0.238873,-0.10938 -0.425781,-0.10938 z m 0.05078,0.0488 h 0.53125 c 0.180602,0 0.311689,0.0352 0.394531,0.0996 0.08419,0.0646 0.126953,0.16001 0.126953,0.29492 0,0.13621 -0.04282,0.23234 -0.126953,0.29688 -0.08283,0.0633 -0.213873,0.0977 -0.394531,0.0977 h -0.53125 z m -0.05078,1.09375 v 0.0254 1.04492 h 0.628906 c 0.205805,0 0.36147,-0.0421 0.464844,-0.13086 0.104469,-0.0899 0.15625,-0.22893 0.15625,-0.40625 0,-0.17852 -0.05149,-0.31482 -0.15625,-0.40234 -0.103374,-0.0888 -0.259039,-0.13086 -0.464844,-0.13086 z m 0.05078,0.0508 h 0.578125 c 0.198954,0 0.343279,0.0416 0.433594,0.11914 0.09141,0.0764 0.136719,0.19416 0.136719,0.36328 0,0.16785 -0.04502,0.28826 -0.136719,0.36719 -0.09031,0.0776 -0.23464,0.11914 -0.433594,0.11914 h -0.578125 z"
         id="path28346" />
    </g>
    <text
       xml:space="preserve"
       style="font-style:normal;font-variant:normal;font-weight:normal;font-stretch:normal;font-size:9.50525px;line-height:1.25;font-family:sans-serif;-inkscape-font-specification:sans-serif;letter-spacing:0px;word-spacing:0px;stroke-width:0.648084"
       x="62.550808"
       y="119.76104"
       id="text2251-3"><tspan
         sodipodi:role="line"
         id="tspan2249-7"
         style="font-style:normal;font-variant:normal;font-weight:normal;font-stretch:normal;font-family:sans-serif;-inkscape-font-specification:sans-serif;stroke-width:0.648084"
         x="62.550808"
         y="119.76104">F</tspan></text>
    <text
       xml:space="preserve"
       style="font-style:normal;font-variant:normal;font-weight:normal;font-stretch:normal;font-size:9.33701px;line-height:1.25;font-family:sans-serif;-inkscape-font-specification:sans-serif;letter-spacing:0px;word-spacing:0px;fill:none;fill-opacity:1;stroke:#000000;stroke-width:0.244798;stroke-miterlimit:4;stroke-dasharray:none;stroke-opacity:1"
       x="68.144966"
       y="123.41721"
       id="text11059-2"
       transform="scale(1.0182726,0.98205529)"><tspan
         sodipodi:role="line"
         id="tspan11057-2"
         style="font-style:normal;font-variant:normal;font-weight:normal;font-stretch:normal;font-family:sans-serif;-inkscape-font-specification:sans-serif;fill:none;fill-opacity:1;stroke:#000000;stroke-width:0.244798;stroke-miterlimit:4;stroke-dasharray:none;stroke-opacity:1"
         x="68.144966"
         y="123.41721">B</tspan></text>
    <g
       aria-label="F"
       transform="scale(1.0078371,0.99222384)"
       id="text2251"
       style="font-size:3.36544px;line-height:1.25;-inkscape-font-specification:sans-serif;letter-spacing:0px;word-spacing:0px;stroke-width:0.229462;stroke:none;stroke-opacity:1;fill:#115ce3;fill-opacity:1">
      <path
         d="m 56.845827,126.82898 0.919999,0.006 2e-6,0.25711 -0.588058,1.2e-4 2e-6,0.87905 0.588056,5.2e-4 -2e-6,0.25128 -0.588051,-5.5e-4 v 1.05935 h -0.331943 z"
         id="path28529"
         sodipodi:nodetypes="ccccccccccc"
         style="fill:#115ce3;fill-opacity:1;stroke:none;stroke-opacity:1" />
    </g>
    <g
       aria-label="B"
       transform="matrix(1.0182726,0,0,0.98205529,3.1678543,-0.02067163)"
       id="text11059-6"
       style="font-size:3.81417px;-inkscape-font-specification:sans-serif;letter-spacing:0px;word-spacing:0px;fill:none;fill-opacity:1;stroke:#ff7c00;stroke-width:0.1;stroke-opacity:1;stroke-miterlimit:4;stroke-dasharray:none">
      <path
         style="color:#000000;-inkscape-font-specification:sans-serif;fill:none;fill-opacity:1;stroke:#ff7c00;stroke-opacity:1;stroke-width:0.1;stroke-miterlimit:4;stroke-dasharray:none"
         d="m 56.216797,128.09961 v 0.0234 2.80664 h 1.023437 c 0.315259,0 0.561615,-0.069 0.736328,-0.20899 0.174679,-0.14 0.261719,-0.34171 0.261719,-0.5957 0,-0.19327 -0.0532,-0.35617 -0.160156,-0.48633 -0.09536,-0.11862 -0.236477,-0.1877 -0.400391,-0.23242 0.131616,-0.0311 0.24682,-0.0808 0.320313,-0.17383 0.08371,-0.10594 0.125,-0.24788 0.125,-0.42187 0,-0.22565 -0.0811,-0.40363 -0.242188,-0.52735 -0.161099,-0.12372 -0.387464,-0.18359 -0.677734,-0.18359 z m 0.04883,0.0488 h 0.9375 c 0.283344,0 0.497185,0.0592 0.646484,0.17383 0.149312,0.11467 0.222657,0.2744 0.222657,0.48828 0,0.1662 -0.03807,0.29544 -0.113282,0.39062 -0.07521,0.0952 -0.184598,0.1556 -0.333984,0.17969 l -0.002,0.0488 c 0.180585,0.0388 0.318038,0.11836 0.416015,0.24023 0.09915,0.12066 0.150391,0.27091 0.150391,0.45508 0,0.24265 -0.08111,0.42597 -0.244141,0.55664 -0.162999,0.13064 -0.397057,0.19727 -0.705078,0.19727 H 56.26558 Z m 0.326172,0.25976 v 0.0254 0.86328 h 0.582031 c 0.186852,0 0.32982,-0.0361 0.425781,-0.10937 0.09714,-0.0745 0.146485,-0.18906 0.146485,-0.33594 0,-0.14568 -0.04941,-0.25951 -0.146485,-0.33398 -0.09595,-0.0746 -0.238873,-0.10938 -0.425781,-0.10938 z m 0.05078,0.0488 h 0.53125 c 0.180602,0 0.311689,0.0352 0.394531,0.0996 0.08419,0.0646 0.126953,0.16001 0.126953,0.29492 0,0.13621 -0.04282,0.23234 -0.126953,0.29688 -0.08283,0.0633 -0.213873,0.0977 -0.394531,0.0977 h -0.53125 z m -0.05078,1.09375 v 0.0254 1.04492 h 0.628906 c 0.205805,0 0.36147,-0.0421 0.464844,-0.13086 0.104469,-0.0899 0.15625,-0.22893 0.15625,-0.40625 0,-0.17852 -0.05149,-0.31482 -0.15625,-0.40234 -0.103374,-0.0888 -0.259039,-0.13086 -0.464844,-0.13086 z m 0.05078,0.0508 h 0.578125 c 0.198954,0 0.343279,0.0416 0.433594,0.11914 0.09141,0.0764 0.136719,0.19416 0.136719,0.36328 0,0.16785 -0.04502,0.28826 -0.136719,0.36719 -0.09031,0.0776 -0.23464,0.11914 -0.433594,0.11914 h -0.578125 z"
         id="path28346-1" />
    </g>
    <g
       aria-label="F"
       transform="matrix(1.0078371,0,0,0.99222384,3.1678543,-0.02067163)"
       id="text2251-2"
       style="font-size:3.36544px;line-height:1.25;-inkscape-font-specification:sans-serif;letter-spacing:0px;word-spacing:0px;fill:#0084ff;fill-opacity:1;stroke:none;stroke-width:0.229462;stroke-opacity:1">
      <path
         d="m 56.845827,126.82898 0.919999,0.006 2e-6,0.25711 -0.588058,1.2e-4 2e-6,0.87905 0.588056,5.2e-4 -2e-6,0.25128 -0.588051,-5.5e-4 v 1.05935 h -0.331943 z"
         id="path28529-9"
         sodipodi:nodetypes="ccccccccccc"
         style="fill:#0084ff;fill-opacity:1;stroke:none;stroke-opacity:1" />
    </g>
    <rect
       style="fill:#72aeea;fill-opacity:1;stroke:none;stroke-width:0.0495028;stroke-linejoin:round;stroke-miterlimit:4;stroke-dasharray:none;stroke-opacity:1"
       id="rect35635-9"
       width="2.7792561"
       height="2.779"
       x="66.52562"
       y="127.33029" />
    <g
       aria-label="B"
       transform="matrix(0,-1.0182726,0.98205529,0,-59.275275,186.99303)"
       id="text11059-6-4"
       style="font-size:3.81417px;-inkscape-font-specification:sans-serif;letter-spacing:0px;word-spacing:0px;fill:#ff7f00;fill-opacity:1;stroke:none;stroke-width:0.05">
      <path
         style="color:#000000;-inkscape-font-specification:sans-serif;fill:#ff7f00;fill-opacity:1;stroke:none;-inkscape-stroke:none"
         d="m 56.216797,128.09961 v 0.0234 2.80664 h 1.023437 c 0.315259,0 0.561615,-0.069 0.736328,-0.20899 0.174679,-0.14 0.261719,-0.34171 0.261719,-0.5957 0,-0.19327 -0.0532,-0.35617 -0.160156,-0.48633 -0.09536,-0.11862 -0.236477,-0.1877 -0.400391,-0.23242 0.131616,-0.0311 0.24682,-0.0808 0.320313,-0.17383 0.08371,-0.10594 0.125,-0.24788 0.125,-0.42187 0,-0.22565 -0.0811,-0.40363 -0.242188,-0.52735 -0.161099,-0.12372 -0.387464,-0.18359 -0.677734,-0.18359 z m 0.04883,0.0488 h 0.9375 c 0.283344,0 0.497185,0.0592 0.646484,0.17383 0.149312,0.11467 0.222657,0.2744 0.222657,0.48828 0,0.1662 -0.03807,0.29544 -0.113282,0.39062 -0.07521,0.0952 -0.184598,0.1556 -0.333984,0.17969 l -0.002,0.0488 c 0.180585,0.0388 0.318038,0.11836 0.416015,0.24023 0.09915,0.12066 0.150391,0.27091 0.150391,0.45508 0,0.24265 -0.08111,0.42597 -0.244141,0.55664 -0.162999,0.13064 -0.397057,0.19727 -0.705078,0.19727 H 56.26558 Z m 0.326172,0.25976 v 0.0254 0.86328 h 0.582031 c 0.186852,0 0.32982,-0.0361 0.425781,-0.10937 0.09714,-0.0745 0.146485,-0.18906 0.146485,-0.33594 0,-0.14568 -0.04941,-0.25951 -0.146485,-0.33398 -0.09595,-0.0746 -0.238873,-0.10938 -0.425781,-0.10938 z m 0.05078,0.0488 h 0.53125 c 0.180602,0 0.311689,0.0352 0.394531,0.0996 0.08419,0.0646 0.126953,0.16001 0.126953,0.29492 0,0.13621 -0.04282,0.23234 -0.126953,0.29688 -0.08283,0.0633 -0.213873,0.0977 -0.394531,0.0977 h -0.53125 z m -0.05078,1.09375 v 0.0254 1.04492 h 0.628906 c 0.205805,0 0.36147,-0.0421 0.464844,-0.13086 0.104469,-0.0899 0.15625,-0.22893 0.15625,-0.40625 0,-0.17852 -0.05149,-0.31482 -0.15625,-0.40234 -0.103374,-0.0888 -0.259039,-0.13086 -0.464844,-0.13086 z m 0.05078,0.0508 h 0.578125 c 0.198954,0 0.343279,0.0416 0.433594,0.11914 0.09141,0.0764 0.136719,0.19416 0.136719,0.36328 0,0.16785 -0.04502,0.28826 -0.136719,0.36719 -0.09031,0.0776 -0.23464,0.11914 -0.433594,0.11914 h -0.578125 z"
         id="path28346-1-7" />
    </g>
    <g
       aria-label="F"
       transform="matrix(0,-1.0078371,0.99222384,0,-59.275275,186.99303)"
       id="text2251-2-8"
       style="font-size:3.36544px;line-height:1.25;-inkscape-font-specification:sans-serif;letter-spacing:0px;word-spacing:0px;fill:#007fff;fill-opacity:1;stroke:none;stroke-width:0.229462;stroke-opacity:1">
      <path
         d="m 56.845827,126.82898 0.919999,0.006 2e-6,0.25711 -0.588058,1.2e-4 2e-6,0.87905 0.588056,5.2e-4 -2e-6,0.25128 -0.588051,-5.5e-4 v 1.05935 h -0.331943 z"
         id="path28529-9-4"
         sodipodi:nodetypes="ccccccccccc"
         style="fill:#007fff;fill-opacity:1;stroke:none;stroke-opacity:1" />
    </g>
    <g
       id="g34483"
       transform="translate(-0.19735054,0.05787316)">
      <g
         id="g34476"
         transform="rotate(45,74.880894,105.05051)">
        <g
           aria-label="F"
           id="text2251-3-3"
           style="font-size:9.50525px;line-height:1.25;-inkscape-font-specification:sans-serif;letter-spacing:0px;word-spacing:0px;fill:#ff7f00;fill-opacity:1;stroke:none;stroke-width:0.1;stroke-miterlimit:4;stroke-dasharray:none;stroke-opacity:0"
           transform="rotate(-45,73.319842,99.817867)">
          <path
             d="m 68.684872,101.11187 h 2.598109 l -0.002,0.78901 h -1.658587 v 2.04215 h 1.212688 l 0.0025,0.78901 H 69.62233 v 3.3092 h -0.937529 z"
             id="path997"
             sodipodi:nodetypes="ccccccccccc"
             style="fill:#ff7f00;fill-opacity:1;stroke:none;stroke-width:0.1;stroke-miterlimit:4;stroke-dasharray:none;stroke-opacity:0" />
        </g>
        <g
           aria-label="B"
           transform="matrix(0.72002746,-0.72002746,0.69441796,0.69441796,-51.800096,83.910277)"
           id="text11059-2-7"
           style="font-size:9.33701px;line-height:1.25;-inkscape-font-specification:sans-serif;letter-spacing:0px;word-spacing:0px;fill:#ffffff;fill-opacity:1;stroke:#ffffff;stroke-width:0.1;stroke-linecap:butt;stroke-linejoin:miter;stroke-miterlimit:4;stroke-dasharray:none;stroke-opacity:1">
          <path
             d="m 74.034632,102.9029 c 1.188453,-0.0171 2.165278,0.64559 2.180869,1.6582 0.01559,1.0126 -0.326578,1.26559 -0.945247,1.55174 0.617415,0.26679 1.083394,0.62462 1.20109,1.39159 0.140338,1.0069 -0.267296,1.89622 -1.379247,2.21784 -0.698724,0.2021 -1.601681,0.12422 -2.640181,0.13809 l 2.84e-4,-0.89324 c 0.67476,0.002 1.947521,0.0536 2.341016,-0.11238 0.393495,-0.16593 0.674253,-0.58653 0.66866,-1.07822 -0.08061,-1.13671 -0.860914,-1.31077 -1.864682,-1.28439 l -0.0022,-0.70484 c 0.822719,-0.0102 1.690734,-0.11177 1.713116,-1.07835 0.0082,-0.89083 -1.01483,-1.08516 -1.275202,-1.10101 z"
             id="path1000"
             sodipodi:nodetypes="czccscczcccccc"
             style="fill:#ffffff;fill-opacity:1;stroke:#ffffff;stroke-width:0.1;stroke-linecap:butt;stroke-linejoin:miter;stroke-miterlimit:4;stroke-dasharray:none;stroke-opacity:1" />
        </g>
      </g>
    </g>
    <path
       style="fill:none;stroke:#ff7c00;stroke-width:0.1;stroke-linejoin:round"
       id="path2575"
       d="m 57.117109,130.0538 c 0.0084,0.003 0.01717,0.005 0.02519,0.01 0.02413,0.0122 0.06568,0.0394 0.08098,0.0594 0.01405,0.0184 0.02307,0.0403 0.0314,0.0619 0.02548,0.0661 0.02545,0.098 0.03523,0.16884 0.0027,0.0649 -0.0016,0.12981 2.7e-5,0.19468 7.94e-4,0.0328 0.0046,0.0656 0.0052,0.0984 7.94e-4,0.051 -0.0028,0.15361 -0.0087,0.20428 -0.0039,0.0334 -0.01106,0.0664 -0.01659,0.0996 -0.01569,0.0836 -0.0333,0.16708 -0.0441,0.25154 -0.003,0.0237 -0.0071,0.0474 -0.0072,0.0712 -1.4e-4,0.0229 0.005,0.0456 0.0064,0.0685 0.0016,0.0241 0.0016,0.0482 0.0024,0.0723 -5.29e-4,0.0287 -0.0013,0.11903 -0.0054,0.14768 -0.0035,0.0245 -0.01042,0.0483 -0.01685,0.0722 -0.01492,0.0556 -0.03542,0.10946 -0.05646,0.16291 -0.0062,0.0189 -0.01841,0.0554 -0.02379,0.0757 -0.0088,0.0332 -0.0053,0.029 -0.01363,0.0624 -0.01709,0.0683 -0.0016,-0.006 -0.01426,0.0583 -0.009,0.0285 -0.003,0.0149 -0.01799,0.0407 0,0 1.70988,-0.8329 1.70988,-0.8329 v 0 c -0.0049,-0.0313 -0.0034,-0.0151 -0.0042,-0.0487 -0.0016,-0.0293 -1.22e-4,-0.0144 -0.0042,-0.0447 -2.65e-4,-0.006 2.65e-4,-0.0547 -5.5e-5,-0.0594 -0.0016,-0.0243 -0.0062,-0.0379 -0.01212,-0.0616 -0.02193,-0.0611 -0.0036,-0.008 -0.02545,-0.0779 -0.0051,-0.0164 -0.01085,-0.0325 -0.01585,-0.0489 -0.0056,-0.0183 -0.01312,-0.0362 -0.01595,-0.0552 -0.004,-0.0269 -0.0026,-0.11653 -0.0026,-0.1426 0.0016,-0.0251 0.0021,-0.0502 0.0044,-0.0752 0.0021,-0.0254 0.0081,-0.0504 0.0088,-0.0759 5.29e-4,-0.022 -0.0024,-0.0439 -0.0046,-0.0658 -0.0074,-0.071 -0.02397,-0.14048 -0.03909,-0.21013 -0.0048,-0.0278 -0.01154,-0.0554 -0.01445,-0.0835 -0.0052,-0.0498 -0.0051,-0.14884 -0.0027,-0.19783 0.0019,-0.0353 0.0068,-0.0703 0.0088,-0.1056 0.0011,-0.017 0.005,-0.18047 0.0055,-0.19816 0.005,-0.0346 0.0083,-0.0696 0.01503,-0.10392 0.01185,-0.0603 0.03477,-0.14147 0.05981,-0.19811 0.02774,-0.0627 0.06812,-0.12531 0.108215,-0.18129 0,0 -1.740892,0.88703 -1.740892,0.88703 z" />
    <path
       style="fill:none;stroke:#ff7c00;stroke-width:0.1;stroke-linejoin:round"
       id="path2579"
       d="m 95.148018,81.97458 c 0.342646,1.430171 0.424624,2.909004 0.509452,4.371833 0.12286,2.118659 0.100799,1.971659 0.15784,4.168425 0.07164,3.722674 -0.01617,7.44583 -0.15037,11.165982 -0.02858,0.73112 -0.06767,1.46173 -0.10191,2.19259 0,0 1.648415,-0.83853 1.648415,-0.83853 v 0 c -0.02474,-0.70124 -0.05391,-1.40233 -0.07277,-2.10377 -0.08894,-3.678922 -0.1252,-7.358839 -0.105799,-11.03886 -0.0058,-1.943513 0.0021,-2.339369 -0.03755,-4.235365 -0.01215,-0.579832 -0.03594,-1.159383 -0.04772,-1.73922 -0.02323,-1.143874 -0.003,-1.414471 -0.04471,-2.430346 -0.0057,-0.139888 -0.01918,-0.279353 -0.02878,-0.419029 0,0 -1.726089,0.90629 -1.726089,0.90629 z" />
    <path
       style="fill:none;stroke:#ff7c00;stroke-width:0.1;stroke-linejoin:round"
       id="path2581"
       d="m 95.571306,82.639063 c 1.420048,0.194154 2.848449,0.328242 4.27691,0.447905 0.781354,0.06654 1.563214,0.126585 2.345254,0.184306 0,0 1.47024,-1.056261 1.47024,-1.056261 v 0 c -0.8088,-0.02744 -1.61763,-0.05793 -2.42468,-0.120582 -1.356606,-0.117543 -2.717487,-0.251737 -4.043182,-0.575095 0,0 -1.624542,1.119727 -1.624542,1.119727 z" />
    <path
       style="fill:none;stroke:#ff7c00;stroke-width:0.1;stroke-linejoin:round"
       id="path2583"
       d="m 96.285096,92.027601 c 0.763905,0.06989 1.517439,0.221552 2.277727,0.322522 0.707535,0.08019 1.411827,0.186407 2.118627,0.272066 0.0736,0.0067 0.14729,0.01341 0.22093,0.02011 0,0 1.57524,-1.125992 1.57524,-1.125992 v 0 c -0.0738,-0.0047 -0.14758,-0.0094 -0.22137,-0.01413 -0.7293,-0.06001 -1.45657,-0.144137 -2.18459,-0.217025 -0.731986,-0.104655 -1.453563,-0.256042 -2.178955,-0.397949 0,0 -1.607609,1.140397 -1.607609,1.140398 z" />
    <path
       style="fill:none;stroke:#ff7c00;stroke-width:0.1;stroke-linejoin:round"
       id="path2585"
       d="m 103.90908,83.96834 c 0.51766,0.128172 1.02541,0.299882 1.53207,0.466516 0.57843,0.175964 1.12477,0.422595 1.63749,0.741265 0.50251,0.314574 0.74079,0.651859 1.01672,1.162616 0.28703,0.620056 0.43878,1.292662 0.56471,1.961182 0.0518,0.397615 0.12812,0.800203 0.10613,1.203325 -0.0138,0.252052 -0.038,0.302291 -0.0976,0.547454 -0.11062,0.312018 -0.2551,0.619318 -0.45846,0.88297 -0.074,0.09594 -0.15998,0.182002 -0.23963,0.273302 -0.20669,0.285808 -0.48758,0.496877 -0.76655,0.706151 -0.24228,0.174226 -0.5195,0.291656 -0.76734,0.457076 -0.11728,0.07827 -0.2283,0.165619 -0.3451,0.244584 -0.78792,0.473411 0.87914,-0.503084 1.31105,-0.767435 0.054,-0.03306 -0.11625,0.0506 -0.17601,0.07157 -0.18734,0.06575 -0.38124,0.09553 -0.576,0.129281 -0.43554,0.07465 -0.8771,0.09597 -1.31799,0.108765 -0.30088,0.0085 -0.60188,0.0038 -0.90281,0.0013 -0.17309,-0.0083 -0.34551,0.0083 -0.51809,0.01786 -0.63041,-0.03289 -2.33867,0.730907 -1.62895,1.211305 0.0759,0.05137 0.78279,0.18165 0.86357,0.199814 0.71198,0.165213 1.41492,0.356359 2.10352,0.601252 0.4546,0.140515 0.8217,0.407419 1.17156,0.718651 0.35907,0.344762 0.62725,0.769508 0.83631,1.218181 0.25557,0.603837 0.34844,1.256652 0.41714,1.903841 0.0269,0.378696 0.0775,0.762331 8e-4,1.138738 -0.0299,0.147132 -0.0851,0.298278 -0.1325,0.440192 -0.16908,0.421694 -0.38144,0.692734 -0.75981,0.937974 -0.62749,0.39441 -0.34308,0.21347 1.38069,-0.799999 0.0551,-0.0324 -0.11215,0.06139 -0.16785,0.09277 -0.18525,0.104351 -0.36895,0.208159 -0.55864,0.304379 -0.39455,0.19355 -0.78846,0.38441 -1.20723,0.51969 -0.54144,0.15284 -1.1027,0.21735 -1.65517,0.31932 -0.53847,0.11627 -1.07704,0.22715 -1.62022,0.31885 -0.61662,0.0991 -1.23155,0.20803 -1.84842,0.30593 -0.54845,0.0964 -1.10209,0.15535 -1.654499,0.22304 -0.343847,0.069 -0.176215,0.0303 -0.503134,0.11508 0,0 -1.528853,1.17561 -1.528853,1.17561 v 0 c 0.320239,-0.0956 0.158361,-0.0497 0.485683,-0.13755 0.558233,-0.0713 1.117613,-0.1336 1.672349,-0.22986 0.614944,-0.0905 1.225074,-0.21186 1.840714,-0.2967 0.54735,-0.0911 1.09285,-0.18692 1.63154,-0.32204 0.14801,-0.0291 0.46945,-0.0936 0.61701,-0.11734 0.27298,-0.0438 0.55154,-0.065 0.82313,-0.11728 0.0685,-0.0132 0.13517,-0.0342 0.20275,-0.0513 0.42982,-0.11601 0.8309,-0.29824 1.22884,-0.49582 0.24814,-0.11592 0.48292,-0.2467 0.71999,-0.38329 0.60473,-0.34841 1.21227,-0.69196 1.8147,-1.044342 0.0487,-0.02848 0.092,-0.06525 0.13804,-0.09788 0.33294,-0.277588 0.56104,-0.631241 0.69592,-1.044779 0.0556,-0.195276 0.0835,-0.266832 0.1105,-0.469559 0.0517,-0.388696 -0.007,-0.777742 -0.0447,-1.164775 -0.0804,-0.668131 -0.16117,-1.341617 -0.4302,-1.965759 -0.21551,-0.475496 -0.48233,-0.926793 -0.86264,-1.290677 -0.36807,-0.353031 -0.73397,-0.624832 -1.23233,-0.772477 -0.69884,-0.243975 -1.41102,-0.430181 -2.13009,-0.604613 -0.12089,-0.03355 -0.24179,-0.06709 -0.36268,-0.100637 -0.0887,-0.02854 -0.17649,-0.06007 -0.2661,-0.08563 -0.0441,-0.01259 -0.097,-0.05496 -0.13461,-0.02868 -0.0301,0.02101 0.0518,0.08777 0.0212,0.10795 -0.54142,0.356796 -1.11869,0.655942 -1.67804,0.983914 0.0151,-0.01008 0.0301,-0.02014 0.0451,-0.03021 0.16607,-0.03768 0.34188,-0.03683 0.51116,-0.04655 0.30971,-0.0019 0.61936,-0.0078 0.92902,-0.01318 0.44505,-0.01236 0.89127,-0.02699 1.3328,-0.0882 0.19743,-0.02908 0.40095,-0.04868 0.59471,-0.09811 0.81483,-0.207888 1.5005,-0.755542 2.20263,-1.20899 0.36448,-0.250648 0.755,-0.457774 1.11506,-0.714579 0.27986,-0.220376 0.54193,-0.45971 0.75461,-0.74767 0.29016,-0.364426 0.50978,-0.77316 0.62826,-1.226589 0.0514,-0.263475 0.0746,-0.32067 0.0793,-0.589135 0.007,-0.410218 -0.071,-0.819923 -0.13985,-1.222034 -0.13596,-0.685035 -0.28535,-1.37909 -0.57928,-2.01599 -0.27401,-0.545523 -0.53507,-0.921689 -1.06063,-1.255514 -0.52467,-0.328094 -1.08384,-0.592785 -1.67948,-0.766191 -0.49429,-0.173363 -0.99365,-0.332232 -1.48173,-0.522872 0,0 -1.62375,1.122572 -1.62375,1.122572 z" />
  </g>
</svg>
