$MeshFormat
2.2 0 8
$EndMeshFormat
$PhysicalNames
1
2 1 "spherical_dome"
$EndPhysicalNames
$Nodes
1089
1 10 0 0
2 3.090169943749474 0 9.510565162951535
3 6.123031769111886e-16 10 0
4 1.892120873753272e-16 3.090169943749474 9.510565162951535
5 9.969173337167334 0 0.7845909593615845
6 9.876883405236127 0 1.564344654918227
7 9.723699202356073 0 2.334453645309727
8 9.510565159887619 0 3.090169953179238
9 9.238795320568116 0 3.826834334622899
10 8.910065234984966 0 4.539905010934952
11 8.526401633729181 0 5.224985663170793
12 8.090169930589935 0 5.877852541037283
13 7.604059643207234 0 6.494480498280602
14 7.071067800198364 0 7.071067823532586
15 6.494480472386924 0 7.604059665322525
16 5.877852513144512 0 8.09016995085522
17 5.224985640400527 0 8.526401647682819
18 4.539904992638701 0 8.910065244307372
19 3.826834321233783 0 9.238795326114071
20 9.992290362365562 0 0.39259815865118
21 9.930684569149765 0 1.175373977953709
22 9.807852802936734 0 1.950903225669082
23 9.624552362225968 0 2.714404506843175
24 9.381913355386054 0 3.46117058118042
25 9.081431732719823 0 4.186597387371926
26 8.724960062311371 0 4.886212429998467
27 8.314696111389638 0 5.555702347610247
28 7.853169295696327 0 6.190939509729719
29 7.34322508190008 0 6.78800746880508
30 6.78800744421895 0 7.343225104627265
31 6.190939482454397 0 7.853169317198457
32 5.555702322276083 0 8.314696128317387
33 4.886212408544393 0 8.724960074326232
34 4.186597372093865 0 9.081431739763104
35 3.46117056908891 0 9.381913359846846
36 6.104156505525875e-16 9.969173337167334 0.7845909593615845
37 6.047647087007479e-16 9.876883405236127 1.564344654918227
38 5.953851912931414e-16 9.723699202356073 2.334453645309727
39 5.823349261620056e-16 9.510565159887619 3.090169953179238
40 5.656943725616081e-16 9.238795320568116 3.826834334622899
41 5.455661249867231e-16 8.910065234984966 4.539905010934952
42 5.220742807953126e-16 8.526401633729181 5.224985663170793
43 4.953636750251588e-16 8.090169930589935 5.877852541037283
44 4.655989876957949e-16 7.604059643207234 6.494480498280602
45 4.329637278215868e-16 7.071067800198364 7.071067823532586
46 3.976591025630191e-16 6.494480472386924 7.604059665322525
47 3.599027767213799e-16 5.877852513144512 8.09016995085522
48 3.199275306932585e-16 5.224985640400527 8.526401647682819
49 2.779798249867643e-16 4.539904992638701 8.910065244307372
50 2.343182812404217e-16 3.826834321233783 9.238795326114071
51 6.118311133495486e-16 9.992290362365562 0.39259815865118
52 6.08058971059332e-16 9.930684569149765 1.175373977953709
53 6.005379429915469e-16 9.807852802936734 1.950903225669082
54 5.893143987739046e-16 9.624552362225968 2.714404506843175
55 5.74457535300839e-16 9.381913355386054 3.46117058118042
56 5.560589500846428e-16 9.081431732719823 4.186597387371926
57 5.342320764576495e-16 8.724960062311371 4.886212429998467
58 5.091114844054982e-16 8.314696111389638 5.555702347610247
59 4.808520508576262e-16 7.853169295696327 6.190939509729719
60 4.496280046421343e-16 7.34322508190008 6.78800746880508
61 4.156318522992061e-16 6.78800744421895 7.343225104627265
62 3.790731913171737e-16 6.190939482454397 7.853169317198457
63 3.401774181902514e-16 5.555702322276083 8.314696128317387
64 2.991843380814603e-16 4.886212408544393 8.724960074326232
65 2.563466871381107e-16 4.186597372093865 9.081431739763104
66 2.119285735284646e-16 3.46117056908891 9.381913359846846
67 9.951847266507357 0.9801714054746041 0
68 9.807852802996848 1.950903225366871 0
69 9.569403354835586 2.902846780741525 0
70 9.238795320462739 3.826834334877302 0
71 8.819212636782737 4.713967380796316 0
72 8.314696113681086 5.555702344180856 0
73 7.730104520917748 6.343932857123173 0
74 7.071067795942932 7.071067827788018 0
75 6.343932826783978 7.730104545816483 0
76 5.555702316559702 8.31469613213695 0
77 4.713967355744471 8.819212650173228 0
78 3.826834312886671 9.238795329571555 0
79 2.902846764058831 9.569403359896226 0
80 1.950903214109352 9.807852805236108 0
81 0.9801714002076644 9.951847267026105 0
82 9.987954561997983 0.4906767443681199 0
83 9.891765099103946 1.467304748220047 0
84 9.700312530209981 2.429801805960979 0
85 9.415440648356574 3.368898543630356 0
86 9.039892925652564 4.275550946104691 0
87 8.577286092147862 5.141027455037258 0
88 8.032075303792027 5.956993059775561 0
89 7.409511239263249 6.715589564232733 0
90 6.715589532809477 7.409511267743628 0
91 5.956993030589793 8.03207532543767 0
92 5.141027428767431 8.577286107893391 0
93 4.275550922657557 9.039892936742234 0
94 3.368898524114714 9.415440655339381 0
95 2.429801792398969 9.700312533607088 0
96 1.467304739597457 9.891765100382987 0
97 0.4906767411672874 9.987954562155229 0
98 3.075289930777448 0.3028896216635064 9.510565162951535
99 3.030793194480136 0.602862250887811 9.510565162951535
100 2.957108262763031 0.8970289870183866 9.510565162951535
101 2.854944761710644 1.182556843806494 9.510565162951535
102 2.725286581901585 1.456696031353075 9.510565162951535
103 2.56938240225858 1.716806439939154 9.510565162951535
104 2.388733665225883 1.960383064064046 9.510565162951535
105 2.185080117276537 2.185080127211673 9.510565162951535
106 1.960383054633019 2.388733672965728 9.510565162951535
107 1.716806431465112 2.569382407920754 9.510565162951535
108 1.456696023543468 2.725286586075907 9.510565162951535
109 1.182556837165551 2.854944764461413 9.510565162951535
110 0.8970289820153275 2.957108264280693 9.510565162951535
111 0.6028622474953717 3.030793195154934 9.510565162951535
112 0.3028896200382441 3.075289930937523 9.510565162951535
113 3.086447698702947 0.1516274527382952 9.510565162951535
114 3.0567235199981 0.4534221030596616 9.510565162951535
115 2.997561422646806 0.7508500507506677 9.510565162951535
116 2.909531169977549 1.041046902008597 9.510565162951535
117 2.793480541483968 1.321217902392735 9.510565162951535
118 2.650527168087515 1.588664852158126 9.510565162951535
119 2.482047769011323 1.840812090789969 9.510565162951535
120 2.289664892875156 2.075231302671493 9.510565162951535
121 2.075231292894396 2.2896649017366 9.510565162951535
122 1.840812081837488 2.482047775650936 9.510565162951535
123 1.588664843859747 2.650527173061373 9.510565162951535
124 1.32121789520328 2.793480544884327 9.510565162951535
125 1.041046896232649 2.909531172044217 9.510565162951535
126 0.7508500464001369 2.997561423736558 9.510565162951535
127 0.4534221005610047 3.056723520368741 9.510565162951535
128 0.1516274519105325 3.086447698743613 9.510565162951535
129 9.921169042483243 0.9771498641253736 0.7845909593615845
130 9.777618465855081 1.944889241745612 0.7845909593615845
131 9.539904077780843 2.893898272785088 0.7845909593615843
132 9.210315197657753 3.815037481635366 0.7845909593615845
133 8.792025947368463 4.699435792442293 0.7845909593615847
134 8.289064680329501 5.538575967864127 0.7845909593615845
135 7.706275188338473 6.324376629209151 0.7845909593615845
136 7.049270053652164 7.049270085418128 0.7845909593615845
137 6.324376598952249 7.706275213169671 0.7845909593615842
138 5.538575940340494 8.289064698720205 0.7845909593615845
139 4.699435767453931 8.792025960725022 0.7845909593615845
140 3.815037459743681 9.210315206725586 0.7845909593615845
141 2.893898256184507 9.539904082816575 0.7845909593615845
142 1.944889230540202 9.777618468083974 0.7845909593615842
143 0.9771498588751371 9.921169043000345 0.7845909593615842
144 9.829323511802224 0.9681038688905124 1.564344654918226
145 9.687101859102267 1.92688436913225 1.564344654918226
146 9.451588119374689 2.867107919546108 1.564344654918227
147 9.125050418559464 3.779719653542644 1.564344654918227
148 8.710633494000527 4.655930619524412 1.564344654918226
149 8.212328406506888 5.487302428726598 1.564344654918227
150 7.634934106326417 6.265828516060938 1.564344654918227
151 6.984011217085962 6.984011248576726 1.564344654918227
152 6.265828486073016 7.634934130936869 1.564344654918227
153 5.487302401470023 8.21232842471915 1.564344654918227
154 4.655930594753764 8.710633507240713 1.564344654918227
155 3.779719631884496 9.125050427530564 1.564344654918227
156 2.867107903129607 9.451588124354579 1.564344654918227
157 1.926884358047819 9.687101861307095 1.564344654918228
158 0.9681038636893374 9.829323512314494 1.564344654918228
159 9.676876932732362 0.9530891913417346 2.334453645309727
160 9.536861047748049 1.896999613559818 2.334453645309728
161 9.304999976897049 2.822640892470389 2.334453645309727
162 8.983526668911647 3.721098596765923 2.334453645309727
163 8.575537088245653 4.583720085915304 2.334453645309728
164 8.084960396883391 5.402197845204053 2.334453645309728
165 7.516521116398637 6.168649486284136 2.334453645309727
166 6.875693628693734 6.875693659714671 2.334453645309727
167 6.168649456750354 7.516521140636383 2.334453645309728
168 5.402197818382277 8.084960414805128 2.334453645309728
169 4.58372006151543 8.575537101287658 2.334453645309727
170 3.721098575474073 8.983526677731021 2.334453645309727
171 2.822640876338422 9.304999981790628 2.334453645309727
172 1.896999602664276 9.536861049915307 2.334453645309727
173 0.9530891862216837 9.676876933236644 2.334453645309727
174 9.464769188938932 0.932198401940538 3.090169953179238
175 9.327822316168916 1.855419224447515 3.090169953179237
176 9.101043414810505 2.76077134551244 3.090169953179238
177 8.786616489517149 3.6395357295421 3.090169953179238
178 8.387569644202237 4.483249393478503 3.090169953179238
179 7.907745917434995 5.283786915249174 3.090169953179238
180 7.351766273868151 6.03343868079249 3.090169953179238
181 6.72498510229348 6.724985132652636 3.090169953179238
182 6.033438651895345 7.351766297583425 3.090169953179238
183 5.283786889027112 7.907745934956017 3.090169953179238
184 4.483249369600336 8.387569656965384 3.090169953179238
185 3.639535708746672 8.786616498130897 3.090169953179238
186 2.760771329763344 9.10104341958794 3.090169953179238
187 1.855419213807401 9.327822318285364 3.090169953179238
188 0.9321983969331606 9.464769189432115 3.090169953179238
189 9.194307995684301 0.9055602993986949 3.826834334622899
190 9.061274458139245 1.802399558817256 3.8268343346229
191 8.840975893612658 2.681880725146289 3.826834334622898
192 8.535533897564765 3.535533914258802 3.826834334622899
193 8.147890044101279 4.35513797767494 3.826834334622898
194 7.681777554765612 5.132799681893944 3.826834334622899
195 7.141685347505546 5.861029719475574 3.826834334622898
196 6.532814806413617 6.532814835922898 3.826834334622899
197 5.86102969139377 7.141685370551685 3.826834334622899
198 5.132799656432654 7.681777571778301 3.826834334622899
199 4.355137954466372 8.147890056506517 3.826834334622899
200 3.53553389408649 8.53553390592041 3.826834334622899
201 2.681880709875669 8.840975898244951 3.826834334622898
202 1.802399548497317 9.061274460192008 3.826834334622899
203 0.9055602945348342 9.194307996163349 3.826834334622898
204 8.867160835321775 0.8733391163937206 4.539905010934953
205 8.738860829011479 1.738267500374008 4.539905010934952
206 8.526400815244438 2.586455418035796 4.539905010934951
207 8.23182689994665 3.409734356368902 4.539905010934952
208 7.857975991633743 4.200175687586818 4.539905010934953
209 7.408448478270749 4.950167031171326 4.539905010934952
210 6.887573555428 5.652485560375775 4.539905010934952
211 6.30036753423422 6.300367562710537 4.539905010934953
212 5.652485533283127 6.887573577662359 4.539905010934953
213 4.950167006627046 7.408448494670711 4.539905010934953
214 4.200175665191762 7.85797600360415 4.539905010934953
215 3.409734336942198 8.231826907993453 4.539905010934953
216 2.586455403335948 8.526400819703586 4.539905010934953
217 1.738267490436827 8.738860830988108 4.539905010934953
218 0.8733391117033422 8.867160835783736 4.539905010934953
219 8.485344679180553 0.8357335072628971 5.224985663170792
220 8.362569216316331 1.663418444642881 5.224985663170792
221 8.15925763995725 2.475083753019055 5.224985663170793
222 7.877367951572377 3.26291265209476 5.224985663170793
223 7.519614903603178 4.019317917404472 5.224985663170793
224 7.089443852847047 4.737014954271188 5.224985663170793
225 6.590997581566038 5.409091947771852 5.224985663170793
226 6.029076400696747 6.029076427963176 5.224985663170793
227 5.409091921836199 6.590997602850879 5.224985663170793
228 4.737014930794359 7.089443868533764 5.224985663170792
229 4.01931789596198 7.519614915064428 5.224985663170793
230 3.262912633531213 7.87736795926165 5.224985663170793
231 2.475083738978423 8.15925764421643 5.224985663170793
232 1.663418435148478 8.362569218204884 5.224985663170793
233 0.8357335027748828 8.485344679622584 5.224985663170793
234 8.051213550935824 0.7929753231021339 5.877852541037283
235 7.934719583079959 1.578313860963328 5.877852541037283
236 7.741809927615804 2.34845237347725 5.877852541037283
237 7.474342409826187 3.095974006107808 5.877852541037283
238 7.134892888727273 3.813679715473042 5.877852541037283
239 6.726730448178317 4.49465760468718 5.877852541037283
240 6.253785915502313 5.132349484289477 5.877852541037283
241 5.720614005928208 5.720614031815079 5.877852541037283
242 5.13234945967164 6.25378593570565 5.877852541037283
243 4.494657582421524 6.726730463055753 5.877852541037283
244 3.813679695116452 7.134892899608097 5.877852541037283
245 3.095973988519303 7.474342417111584 5.877852541037283
246 2.348452360179869 7.741809931649521 5.877852541037283
247 1.578313851968806 7.93471958486908 5.877852541037283
248 0.7929753188441143 8.0512135513552 5.877852541037283
249 7.567444017464971 0.7453281827400341 6.494480498280602
250 7.45794976861472 1.483478448199557 6.494480498280602
251 7.276631386132571 2.207342005173486 6.494480498280602
252 7.025235065006391 2.909947652253831 6.494480498280602
253 6.70618188980144 3.584528911635692 6.494480498280599
254 6.322544516451276 4.224589198365307 6.494480498280602
255 5.878017582483722 4.823964381861164 6.494480498280602
256 5.37688212608582 5.376882150431769 6.494480498280602
257 4.823964358713963 5.878017601480139 6.494480498280602
258 4.224589177446952 6.322544530428474 6.494480498280602
259 3.584528892491771 6.706181900034076 6.494480498280602
260 2.909947635745928 7.025235071844188 6.494480498280602
261 2.207341992698503 7.276631389916816 6.494480498280602
262 1.483478439758761 7.4579497702937 6.494480498280602
263 0.7453281787382231 7.567444017859114 6.494480498280602
264 7.037018675873247 0.693085846351872 7.071067823532585
265 6.935199214473022 1.379496897631487 7.071067823532587
266 6.766589993077812 2.05262263959583 7.071067823532586
267 6.532814810509127 2.705980503735151 7.071067823532585
268 6.236125050090795 3.333278295407119 7.071067823532587
269 5.879377995885436 3.928474795197273 7.071067823532587
270 5.466009316956721 4.485837935318715 7.071067823532585
271 4.999999980423622 5.000000003076593 7.071067823532585
272 4.485837913786004 5.46600933462816 7.071067823532585
273 3.928474775753928 5.879378008877064 7.071067823532587
274 3.333278277595311 6.236125059611409 7.071067823532585
275 2.705980488406436 6.532814816858489 7.071067823532585
276 2.052622628017021 6.766589996590207 7.071067823532585
277 1.379496889794679 6.935199216031863 7.071067823532585
278 0.6930858426308893 7.037018676239732 7.071067823532585
279 6.463207773654981 0.636570405203473 7.604059665322525
280 6.369690850548619 1.26701028987625 7.604059665322525
281 6.214830322167693 1.885248172756068 7.604059665322525
282 6.000117579908885 2.485330085417918 7.604059665322525
283 5.72762042532836 3.061476909855188 7.604059665322525
284 5.399963154511283 3.608140038321081 7.604059665322525
285 5.020301286014334 4.120054805928911 7.604059665322525
286 4.592291171899298 4.592291192717516 7.604059665322525
287 4.120054786144699 5.020301302250817 7.604059665322525
288 3.608140020471239 5.399963166438165 7.604059665322525
289 3.061476893486831 5.727620434077428 7.604059665322525
290 2.485330071359432 6.000117585732101 7.604059665322525
291 1.885248162141402 6.214830325387617 7.604059665322525
292 1.267010282689806 6.369690851978087 7.604059665322528
293 0.6365704017862082 6.463207773991552 7.604059665322525
294 5.849549046591068 0.5761302958574376 8.09016995085522
295 5.764911224701947 1.146712142424914 8.09016995085522
296 5.624754155980065 1.706250524121306 8.09016995085522
297 5.43042762947487 2.249356780796507 8.090169950855216
298 5.183803116291567 2.770800501264047 8.09016995085522
299 4.887255744880043 3.265559898457885 8.09016995085522
300 4.543641428468519 3.728870168802314 8.09016995085522
301 4.156269361432459 4.15626938028529 8.09016995085522
302 3.728870150889922 4.54364144316884 8.09016995085522
303 3.265559882310117 4.887255755669636 8.09016995085522
304 2.770800486441705 5.183803124214274 8.09016995085522
305 2.249356768091196 5.43042763473758 8.09016995085522
306 1.706250514532559 5.624754158888781 8.09016995085522
307 1.146712135931061 5.764911225993655 8.09016995085522
308 0.5761302927649052 5.849549046895656 8.09016995085522
309 5.199825906299878 0.512138151834415 8.526401647682819
310 5.124589005917981 1.01934413365471 8.526401647682819
311 4.999999511745576 1.516733274157233 8.526401647682819
312 4.827257288588468 1.999515444341759 8.526401647682819
313 4.608025938860679 2.463041187065063 8.526401647682819
314 4.344416779920912 2.902846496929062 8.526401647682819
315 4.038968512014654 3.314695808267456 8.526401647682819
316 3.694622769545156 3.694622786313941 8.526401647682819
317 3.314695792338749 4.038968525087006 8.526401647682819
318 2.90284648258135 4.344416789507746 8.526401647682819
319 2.46304117388187 4.608025945907242 8.526401647682819
320 1.999515433063989 4.827257293259874 8.526401647682819
321 1.516733265649611 4.999999514326334 8.526401647682819
322 1.019344127891268 5.124589007064401 8.526401647682819
323 0.5121381490856218 5.19982590657061 8.526401647682819
324 4.518044109123067 0.4449885056989176 8.910065244307372
325 4.452671990772701 0.8856915291308214 8.910065244307372
326 4.344418206835114 1.317864858893118 8.910065244307372
327 4.194325300308313 1.737346429869243 8.910065244307372
328 4.003838748253608 2.140096404410039 8.910065244307372
329 3.774793039964587 2.52223608086569 8.910065244307372
330 3.509394010771813 2.880085245152431 8.910065244307372
331 3.210197598948089 3.210197613526888 8.910065244307372
332 2.880085231307123 3.509394022134365 8.910065244307372
333 2.522236068404832 3.774793048290668 8.910065244307372
334 2.14009639294912 4.0038387543796 8.910065244307372
335 1.73734642008436 4.194325304361342 8.910065244307372
336 1.317864851514957 4.344418209073254 8.910065244307372
337 0.8856915241309862 4.452671991767228 8.910065244307372
338 0.4449885033107474 4.518044109358281 8.910065244307372
339 3.808407067917957 0.3750953574831012 9.238795326114071
340 3.753302772442086 0.7465783418713503 9.238795326114071
341 3.662052119306174 1.110871368637245 9.238795326114071
342 3.535533902077889 1.464466097057464 9.238795326114071
343 3.374966560620153 1.803957215919658 9.238795326114071
344 3.181896445925103 2.12607524080923 9.238795326114071
345 2.958182928699734 2.427717998969874 9.238795326114071
346 2.705980492873697 2.705980505169956 9.238795326114071
347 2.4277179872949 2.958182938281138 9.238795326114071
348 2.126075230310314 3.181896452940254 9.238795326114071
349 1.803957206253598 3.37496656578677 9.238795326114071
350 1.464466088821428 3.535533905489367 9.238795326114071
351 1.11087136242973 3.662052121189203 9.238795326114071
352 0.7465783376635076 3.753302773279078 9.238795326114071
353 0.3750953554702152 3.808407068116209 9.238795326114071
354 9.957091066429509 0.4891605179655135 0.7855313376901947
355 9.944174756435292 0.9794156935096151 0.3925981568757019
356 9.980235706382235 0.4902975234888722 0.3930694385394698
357 9.861198835860947 1.462770671275723 0.7855313379301155
358 9.800291307901942 1.949399129001039 0.3925981611159639
359 9.884120583525508 1.466170762820714 0.3930694398920987
360 9.670337869248442 2.422293543638971 0.7855313380282447
361 9.562025691660285 2.900608790908073 0.3925981585991546
362 9.692815970797106 2.427924004364093 0.3930694408030023
363 9.38634626183838 3.358488405510142 0.7855313379659703
364 9.231672548837826 3.823883972462346 0.3925981612026634
365 9.408164242189264 3.366294996979407 0.3930694408151424
366 9.011959008553116 4.262339187061467 0.7855313377571482
367 8.812413347278005 4.710333075318412 0.392598161327625
368 9.032906751286101 4.272246719967965 0.3930694420747261
369 8.550781663248292 5.125141311614007 0.7855313382954552
370 8.308285784963074 5.551419097638787 0.3925981632049069
371 8.570657425966308 5.137054379645647 0.3930694433456201
372 8.007255615415163 5.938585524062674 0.7855313378825797
373 7.724144898350914 6.339041905135914 0.3925981586945742
374 8.02586798724856 5.9523893912583 0.3930694418221796
375 7.386630328163921 6.694851515063017 0.7852742109017536
376 7.065616258977673 7.06561629064946 0.3925981586550126
377 7.403788805975201 6.710403044468627 0.3929405773173316
378 6.69484892279486 7.386627530277473 0.7853226279048602
379 6.339041899661972 7.724144902505699 0.3925981653359132
380 6.710402384411601 7.403788116199763 0.3929648453770929
381 5.938585495280543 8.007255636756421 0.7855313379338126
382 5.551419071467133 8.30828580266548 0.3925981586536071
383 5.952389375862188 8.025867998614657 0.3930694428928733
384 5.125141285735596 8.550781678787864 0.7855313379835864
385 4.71033307620923 8.81241334680279 0.392598161306569
386 5.137054366886129 8.570657433726087 0.3930694409031497
387 4.26233916389466 9.011959019491568 0.7855313379708805
388 3.823883989437216 9.231672541806605 0.3925981612026671
389 4.272246728981767 9.032906747018686 0.3930694421713096
390 3.358488386477054 9.386346268649721 0.785531337951716
391 2.900608809588999 9.562025685766798 0.3925981641203232
392 3.366295014906791 9.408164235659706 0.3930694435685796
393 2.42229353008512 9.67033787265437 0.7855313378944978
394 1.94939913847883 9.800291306116144 0.3925981586333386
395 2.427924018957691 9.692815967082707 0.3930694422552422
396 1.462770663694341 9.861198836982396 0.7855313379695507
397 0.9794157521475657 9.944174750655801 0.3925981569809586
398 1.466170796915733 9.884120578514468 0.3930694387233546
399 0.4891605155252878 9.957091066520032 0.7855313380623209
400 0.4902975527333318 9.980235704936073 0.393069438780048
401 9.864694960214786 0.4846213883009332 1.566184999262309
402 9.882865608456445 0.9733773049113948 1.175373977707634
403 9.918557785334654 0.4872674991215504 1.176767540033774
404 9.769692554694682 1.449196996589918 1.566184999231576
405 9.739869248798751 1.937380455365789 1.175373977707129
406 9.823036651381422 1.457109845682675 1.17676754001454
407 9.580602668561792 2.399816046128052 1.566184999255515
408 9.503072623255708 2.882725573050992 1.175373977764411
409 9.632914304004975 2.41291942846303 1.176767540103822
410 9.299246340810265 3.327323555228638 1.566184999209085
411 9.174756215518675 3.800308465509072 1.175373962950296
412 9.350021726621398 3.345491277190658 1.176767532671177
413 8.928437896830118 4.222836643106233 1.565454377516962
414 8.758081893866535 4.681292299943176 1.175373958712673
415 8.977122672007779 4.245862816521915 1.176400218888333
416 8.47143530346373 5.077582933605164 1.566184999158765
417 8.257062439398561 5.517192753947712 1.175373977787642
418 8.517690711178956 5.105307348963361 1.176767530702816
419 7.932952866292514 5.883478849253452 1.566184999151974
420 7.676522968998963 6.29995961249724 1.175373977649228
421 7.976268068353694 5.915603592081985 1.176767539961883
422 7.318129896088931 6.632766342115787 1.565690095410114
423 7.022054395074225 7.022054410171451 1.175373954624828
424 7.358062697766415 6.668959315479409 1.176390659695512
425 6.632756567552887 7.318119173401278 1.565781619345629
426 6.299959596444227 7.676522984257352 1.175373964038209
427 6.668953721039785 7.358056557341857 1.176460779451684
428 5.883478820751312 7.932952887400193 1.56618499930873
429 5.517192744236103 8.257062448297226 1.175373960860246
430 5.915603579298608 7.976268080071785 1.176767524797253
431 5.077582907844259 8.471435318898338 1.566184999190602
432 4.681292287884592 8.758081897755062 1.175373977765093
433 5.105307338378022 8.517690717396025 1.176767531625984
434 4.222787095865472 8.928333197839351 1.566184999082739
435 3.800308446008186 9.17475622169227 1.175373977812107
436 4.245844194434827 8.977083336657259 1.176767540041219
437 3.3273235363235 9.299246347562079 1.566184999283613
438 2.882725556742353 9.50307262819965 1.175373977790523
439 3.345491259525468 9.350021732001425 1.176767540145375
440 2.399816032528113 9.580602671980335 1.566184999182491
441 1.937380444414005 9.739869250955589 1.17537397788618
442 2.412919415082542 9.632914307356701 1.176767540103089
443 1.449196988700487 9.769692555874514 1.566184999172039
444 0.9733772999962317 9.882865608924583 1.175373977841856
445 1.457109838198289 9.823036652474096 1.176767540160868
446 0.4846213859630294 9.864694960343334 1.566184999176049
447 0.4872674968884569 9.918557785415985 1.176767540272928
448 9.711347959266115 0.4770879331280316 2.337115298422717
449 9.760625310695136 0.9613376866373987 1.950903225808009
450 9.795590321330971 0.4812264950411639 1.953159316880571
451 9.617822369195441 1.426669182707494 2.337115298336076
452 9.6193976610279 1.913417146114516 1.950903243107131
453 9.701253431027405 1.439045001393011 1.953159325540239
454 9.43167189144201 2.362510828240707 2.337115298531097
455 9.385529951633925 2.847069393343681 1.950903225808009
456 9.513488167537732 2.383004728225291 1.95315932565048
457 9.154689256835086 3.275600203389148 2.337115298470587
458 9.061274458583673 3.753302775441798 1.950903242623793
459 9.234102809994624 3.304014822035032 1.953159325355252
460 8.789766629534613 4.157250017960313 2.33608109587161
461 8.649753938056479 4.623389818575538 1.950903225833729
462 8.865947166021837 4.193280723068852 1.952274987507789
463 8.339746568753828 4.998651743213637 2.337115298616226
464 8.154931560288393 5.448951073940985 1.950903237172379
465 8.412090795397322 5.042013200119256 1.95315932269101
466 7.809634858352196 5.792019980997724 2.337115298596412
467 7.58157272921032 6.222035965439789 1.950903225808009
468 7.877380561734546 5.842263614892296 1.953159322664773
469 7.204437002570022 6.529721109551521 2.336413856207229
470 6.935199221945182 6.935199226791085 1.950903236105587
471 7.266895297076069 6.586329995560737 1.952559840545384
472 6.529700065077891 7.204413844547701 2.336544075469407
473 6.222035949899989 7.581572737958322 1.950903241372896
474 6.586315129016388 7.266878912405197 1.95267096402095
475 5.792019952998613 7.809634879061848 2.337115298783216
476 5.44895107090702 8.154931562315614 1.950903237172423
477 5.842263605721701 7.877380566563728 1.953159330618923
478 4.998651717843462 8.339746583937405 2.337115298697307
479 4.623389802916609 8.649753940925113 1.950903250224664
480 5.042013191139604 8.41209079793488 1.953159334942627
481 4.15714373452353 8.789541970551701 2.337115298486984
482 3.753302775517848 9.061274458552171 1.950903242623793
483 4.193205433367652 8.865787996330564 1.95315933750856
484 3.275600184963794 9.154689263353974 2.337115298759694
485 2.847069377131243 9.385529956538331 1.950903225873361
486 3.30401481438322 9.234102812686908 1.953159325570739
487 2.362510814887443 9.431671894770188 2.337115298598247
488 1.913417176070103 9.619397658362267 1.950903226870683
489 2.383004735109859 9.51348816747365 1.953159317562912
490 1.426669174825874 9.61782237030819 2.337115298568089
491 0.9613376974755174 9.760625306092338 1.950903243495763
492 1.4390450219382 9.70125342781605 1.953159326353633
493 0.4770879309844844 9.71134795933561 2.337115298571515
494 0.4812265009161832 9.795590319272446 1.95315932575709
495 9.498014856882728 0.4666075499431586 3.093540232932327
496 9.578207513942003 0.9433710949961585 2.71440450135765
497 9.612107221573581 0.4722125449756565 2.717427105432749
498 9.406543781088484 1.395328964440468 3.093540233366792
499 9.439619296574694 1.877657001578989 2.714404487204524
500 9.519537378879335 1.412089965681595 2.717427095791252
501 9.22448254621502 2.310612598777089 3.093540232960783
502 9.21012236651163 2.793860083782907 2.714404506724594
503 9.335289181902498 2.338368203539122 2.717427098365552
504 8.953584500887867 3.203643770812186 3.093540233324404
505 8.891926943605091 3.683156724088162 2.714404497379483
506 9.061137045634819 3.242126675009537 2.71742710360663
507 8.596832001823113 4.065998734600383 3.092270011279425
508 8.488097381794661 4.536982588802696 2.714404506714466
509 8.70001584963223 4.114801047963152 2.716272547412963
510 8.15654398792422 4.888844341780469 3.093540233276164
511 8.002522812382093 5.347114811908119 2.71440450662332
512 8.254522291711249 4.947570277103437 2.717427108270741
513 7.638077455580684 5.664784339009011 3.09354023330364
514 7.439879579610736 6.105751391198931 2.714404500026386
515 7.729827822056214 5.732831043276217 2.717427104931095
516 7.046252211641841 6.386350771439499 3.092709749405297
517 6.80558623627345 6.805586251588116 2.71440449322502
518 7.130851411369249 6.463027003835847 2.716659731483095
519 6.386322643790984 7.046221237101522 3.092838399791046
520 6.105751367464968 7.43987959667059 2.714404506654145
521 6.463002426661623 7.130824332282805 2.716789276901955
522 5.664784311573636 7.638077475972805 3.093540233193373
523 5.347114785515519 8.002522829996188 2.714404506684871
524 5.732831018523261 7.729827839225662 2.717427108312104
525 4.88884431705949 8.156544002817135 3.093540233076488
526 4.536982569284942 8.488097395060571 2.714404497854095
527 4.947570254440058 8.254522306763386 2.71742710381081
528 4.065822079084408 8.596458552578326 3.09354023329788
529 3.683156722581848 8.89192694138063 2.714404506710353
530 4.114661682079769 8.699721212624373 2.717427103831489
531 3.203643752865586 8.953584507388502 3.093540233095071
532 2.793860087382686 9.210122372349296 2.714404483211923
533 3.242126676627715 9.061137047174084 2.717427096543392
534 2.310612585740849 9.224482549349473 3.093540233351273
535 1.877657013756704 9.439619288528254 2.714404506763054
536 2.338368211287337 9.335289180469935 2.717427096619484
537 1.395328956904743 9.406543782201577 3.09354023338116
538 0.9433710965898647 9.578207512288239 2.714404506639343
539 1.412089972952211 9.519537374220887 2.71742710833235
540 0.4666075475836819 9.498014856864696 3.09354023334358
541 0.4722125461003397 9.612107220692153 2.717427108355106
542 9.226036500339864 0.4532461100681861 3.830772566742197
543 9.336736878151092 0.9195883199003845 3.461170580898345
544 9.369262273020491 0.4602823410705577 3.464832553797295
545 9.137184724965302 1.355373322798656 3.830772566690235
546 9.201642522103006 1.830320502919793 3.461170575400362
547 9.279031156116501 1.376414253300127 3.464832551095584
548 8.960336865481896 2.244447549998959 3.830772565996278
549 8.977931322472914 2.723425678382359 3.461170574139239
550 9.099437899134037 2.279290534336692 3.464832547163901
551 8.697196062800739 3.111906520342024 3.830772566187677
552 8.667757730917909 3.590302806349735 3.461170564538826
553 8.832212081160426 3.160216006735809 3.464832542010449
554 8.35083110643758 3.949648975737089 3.829346262772986
555 8.274108882330049 4.42260335244145 3.461170580933657
556 8.480378130299481 4.010920148334892 3.463481821927099
557 7.922979031328786 4.74885089381794 3.830772566651395
558 7.800775851668677 5.212311802027862 3.461170580954355
559 8.045976029410738 4.82257245752715 3.464832553825413
560 7.419358935670863 5.502571628619655 3.830772566414113
561 7.252317091475243 5.9518228346379 3.461170575077013
562 7.53453769604885 5.587994014116418 3.464832550790582
563 6.844574926597457 6.203561134408615 3.829833328729631
564 6.634014553103373 6.634014559081528 3.46117057353534
565 6.950780236976845 6.299819999949587 3.463946025198328
566 6.203391892124444 6.844388254250743 3.830441026539786
567 5.951822811455635 7.252317107686949 3.461170580972214
568 6.299727728065901 6.950678457617507 3.464318047040361
569 5.502571601885863 7.419358955320853 3.830772566757195
570 5.212311776304887 7.800775868862962 3.461170580939157
571 5.587993989920058 7.5345377125872 3.464832553849977
572 4.748850869659728 7.922979045752994 3.830772566766529
573 4.422603329062087 8.274108894837756 3.46117058090694
574 4.822572433231375 8.045976043999325 3.464832553764434
575 3.949396107686383 8.35029651732609 3.830772566640236
576 3.590302819886761 8.667757725310706 3.461170564538787
577 4.010706880094609 8.479927225680658 3.464832545610499
578 3.111906502886765 8.69719606888447 3.830772566555159
579 2.723425682335329 8.977931318649183 3.461170580947214
580 3.160216015881049 8.832212076524213 3.464832545487408
581 2.244447537311407 8.960336868465365 3.830772566451455
582 1.830320492019779 9.201642522179435 3.461170580961271
583 2.279290531142914 9.099437897418142 3.464832553771215
584 1.355373315364256 9.137184726039521 3.83077256675838
585 0.9195883150018215 9.33673687859698 3.461170580997015
586 1.37641424567141 9.279031156176043 3.464832553966654
587 0.4532461078067536 9.226036500496789 3.830772566631825
588 0.460282338766982 9.369262272805029 3.464832554685942
589 8.89712010220588 0.4370874835766694 4.544250039184092
590 9.037702156423103 0.8901359704089157 4.186597387613163
591 9.068580783980629 0.4455108067043688 4.190747270538622
592 8.811435971492937 1.307053059802665 4.544250039240885
593 8.906934567497006 1.771699445527935 4.18659738750252
594 8.981245393187525 1.332241907930106 4.19074727060731
595 8.640892895283615 2.164431000617082 4.544250038873839
596 8.69038832907445 2.636200486609898 4.186597387411924
597 8.80741569939342 2.206142791671755 4.190747269978596
598 8.387133295919858 3.000964288017427 4.544250039172204
599 8.390148905332325 3.475313473325614 4.186597378357782
600 8.548765779527592 3.058797313029623 4.190747265653316
601 8.053291413571397 3.808923181093323 4.542752646647968
602 8.009107749808432 4.280957295856674 4.186597387259731
603 8.208397331252378 3.882282814424709 4.189283160770038
604 7.640517789622431 4.579550140266835 4.544250039252374
605 7.550934519849591 5.045373150615021 4.186597383078155
606 7.787761886747931 4.667804851248917 4.190747268205682
607 7.154852197811063 5.306400061263843 4.54425003903805
608 7.020041649362948 5.761199315794341 4.186597387485491
609 7.292736800007624 5.408662246876594 4.190747268092695
610 6.600656862203905 5.982486686251919 4.54325676538967
611 6.421541946585776 6.421541975465956 4.186597387565245
612 6.72780960638891 6.097731216351282 4.189779458792099
613 5.982266284394637 6.600413742050745 4.543900145947626
614 5.76119928832218 7.020041671830684 4.186597387616423
615 6.097537015501781 6.727595395285616 4.190406011583771
616 5.306400035470484 7.154852216855394 4.544250039172393
617 5.045373137665627 7.550934528501947 4.186597383078432
618 5.408662226492529 7.292736814951549 4.190747268395366
619 4.579550117514754 7.640517803510505 4.544250038830348
620 4.280957272852227 8.009107761904559 4.186597387642353
621 4.667804833904696 7.787761897125943 4.190747268238597
622 3.808596627658173 8.052601027563703 4.544250039189174
623 3.475313470381981 8.390148907229014 4.186597377000242
624 3.88199393254871 8.207786575311278 4.190747265320943
625 3.00096427114883 8.387133301956821 4.544250039169835
626 2.636200471648576 8.690388333490137 4.186597387666783
627 3.058797304443953 8.548765782781869 4.190747265281491
628 2.164430988662962 8.640892898144692 4.54425003912726
629 1.771699438696426 8.906934571250449 4.186597382408095
630 2.206142781056793 8.807415703035566 4.190747267912194
631 1.307053052693879 8.811435972567123 4.544250039202694
632 0.8901359860771273 9.03770215846183 4.186597379880809
633 1.332241912509497 8.981245395493495 4.190747264209561
634 0.4370874814918744 8.897120102430121 4.544250038945582
635 0.4455108145683064 9.068580780802442 4.190747276580071
636 8.513327029854526 0.4182329389105477 5.229564426561598
637 8.68294699481846 0.8551956366324692 4.886212429710548
638 8.711948610742354 0.4279905914806468 4.890682514474682
639 8.431339036325721 1.250671005234315 5.229564426526961
640 8.55731240051198 1.702155272475386 4.886212429727972
641 8.628047782846172 1.279849991506332 4.890682514349555
642 8.268152638374348 2.071064426389563 5.229564426440025
643 8.349266210400359 2.532722221442626 4.886212428546015
644 8.461054138274022 2.1193837361172 4.890682513543271
645 8.025339409947215 2.87151236527596 5.229564426528785
646 8.06081202186755 3.338897674135835 4.886212425771713
647 8.212575916822244 2.938506658087323 4.890682511757204
648 7.706061792753339 3.64469580073509 5.228078439194576
649 7.694727804037016 4.112917712899199 4.886212429755759
650 7.885762922421105 3.729688105413171 4.889189070562525
651 7.311631161953305 4.382423081116566 5.228232750141308
652 7.254539158229953 4.847328104300855 4.88621242384767
653 7.481826757653725 4.484434392551957 4.890001691958185
654 6.846214944902083 5.077499073212794 5.229564426386062
655 6.744485324489804 5.535056083783757 4.886212424476659
656 7.005941696386388 5.195960502802828 4.890682508622658
657 6.315756933635946 5.724268441488274 5.229145739507636
658 6.169478415873648 6.169478439692956 4.886212424591561
659 6.46320398716572 5.857906659758654 4.88998198215907
660 5.724239617997423 6.315725185402428 5.229215636997786
661 5.535056069279819 6.744485343071734 4.886212415257773
662 5.857774583678566 6.463058305697977 4.890332735505608
663 5.077499048421586 6.846214963030251 5.229564426724139
664 4.847328083092323 7.254539168436079 4.886212429734434
665 5.195960484843305 7.005941710702113 4.890682507195828
666 4.382003091731224 7.310930502620624 5.229564426403917
667 4.112917700484079 7.694727817599051 4.886212418848784
668 4.484238142911081 7.481499373598402 4.890682508659511
669 3.644306049727143 7.705237785075103 5.229564426543866
670 3.338897664149576 8.060812027523376 4.886212423265178
671 3.729330142987328 7.885006107372981 4.890682505673097
672 2.871512349013913 8.025339415683714 5.229564426654862
673 2.532722208359803 8.349266213717963 4.886212429658452
674 2.93850664669096 8.212575921277177 4.890682511123716
675 2.071064414923422 8.268152641182031 5.2295644265419
676 1.702155283193152 8.557312408921943 4.886212411265819
677 2.119383735436073 8.461054143355609 4.890682505047111
678 1.250670998475456 8.431339037197562 5.229564426737748
679 0.8551956322104903 8.68294699525508 4.886212429708608
680 1.279849994700759 8.628047787553326 4.890682505209329
681 0.4182329368499143 8.513327029953773 5.229564426564832
682 0.4279905893929229 8.711948608858243 4.890682518013616
683 8.077058241763543 0.3968004419869758 5.882489232323213
684 8.274658577000087 0.8149827373431555 5.555702347310514
685 8.301598759483998 0.4078314033240329 5.560317579329125
686 7.999271752917741 1.186579877957199 5.882489236386194
687 8.154931556445392 1.622116746038821 5.555702347310514
688 8.2216498240129 1.219566548797747 5.560317581250392
689 7.844447905950028 1.964931915784098 5.882489236468627
690 7.956668086622134 2.413628883646892 5.555702347260365
691 8.062521906777013 2.019556609421376 5.560317581225304
692 7.614077736998627 2.724360585165439 5.882489236449047
693 7.681777552906691 3.181896455930229 5.555702347264254
694 7.825747495571084 2.800097236055826 5.560317581235395
695 7.31130128873508 3.457987986752379 5.881087701166935
696 7.33290731401206 3.919520613672378 5.555702339318199
697 7.514480423734136 3.554084552542045 5.558872813322717
698 6.937064326383505 4.157916358949366 5.881230320570569
699 6.913417154592699 4.61939766079021 5.555702340664888
700 7.129849749852563 4.273467479734548 5.559021338705095
701 6.495377968764753 4.817300637240432 5.882489236142162
702 6.4273470067265 5.274787384019415 5.555702341604839
703 6.675948117515368 4.951220576654915 5.560317574882929
704 5.992138794136898 5.430958055716592 5.882088682504426
705 5.87937799076735 5.879378017297186 5.555702347264756
706 6.158700323455272 5.581920623043515 5.559907596706388
707 5.430923305936862 5.992100504382347 5.882159772601612
708 5.274787370160695 6.427347018100012 5.555702341604894
709 5.581888882141893 6.158665343875505 5.559978209450785
710 4.817300613634173 6.495377985986278 5.882489236458039
711 4.619397644892278 6.913417159923783 5.555702347249629
712 4.951220561620566 6.67594812565193 5.560317578501268
713 4.157445620481906 6.936278994943009 5.882489236458339
714 3.919520612884295 7.332907314433288 5.555702339318216
715 4.27302173834725 7.129106091528313 5.560317577202381
716 3.457552153481699 7.310379845649478 5.882489236562697
717 3.181896443581568 7.681777558709962 5.555702346312568
718 3.553671382930641 7.513606866655142 5.560317576855888
719 2.72436056981326 7.614077742441152 5.882489236514505
720 2.41362887020596 7.956668090775738 5.555702347151032
721 2.800097223263654 7.825747500457415 5.560317580800191
722 1.96493190472032 7.844447908736027 5.882489236449068
723 1.622116746536321 8.154931562185697 5.555702338739358
724 2.019556603226523 8.062521911293551 5.560317576926296
725 1.18657987141807 7.99927175377772 5.882489236535787
726 0.8149827329667698 8.274658577431124 5.555702347310514
727 1.219566546913357 8.221649827068193 5.560317577146055
728 0.3968004254688872 8.077058239549254 5.882489236477802
729 0.407831393557769 8.301598752726305 5.560317590134738
730 7.591037552842221 0.372923767200893 6.499005826678099
731 7.815354140301167 0.7697451896959429 6.190939509042012
732 7.840095717541246 0.3851592103381754 6.19552673486953
733 7.517931711114255 1.115179827335613 6.499005827026654
734 7.702272849111114 1.532077330606804 6.190939509548329
735 7.764591308877937 1.151768317880499 6.195526736930763
736 7.372424077119744 1.846696103480282 6.499005826162632
737 7.515014460676543 2.279654720417928 6.190939509597772
738 7.614309640807473 1.907285282141538 6.195526736802338
739 7.155915968120764 2.560427682710953 6.49900582695551
740 7.255382374303301 3.005277789351273 6.190939509596336
741 7.390698008690218 2.644434040141067 6.195526737226274
742 6.871465582753649 3.249961189961178 6.497746763977354
743 6.925876991711198 3.701958388001643 6.190939507796029
744 7.096858992817373 3.356564332704994 6.194196341453817
745 6.519732652229377 3.907777378907985 6.497873659925154
746 6.529671629371621 4.362987099514659 6.190939507219241
747 6.733593649359507 4.035960721146518 6.194331087588698
748 6.104828077543693 4.527649095948259 6.498574290380398
749 6.070581947707288 4.981997872797503 6.190939509606885
750 6.304959506016395 4.6760766736935 6.1953040739929
751 5.631600776779293 5.104185442964159 6.498643216457697
752 5.553029250909916 5.55302927306187 6.190939511177347
753 5.816356708989579 5.271638458314787 6.195145082934573
754 5.103977197509163 5.631371061139732 6.499005826975727
755 4.981997855993595 6.070581965421798 6.190939505759269
756 5.271520904618789 5.816227049658768 6.195366838128695
757 4.527429266603662 6.104531718039802 6.49900582699744
758 4.362987095697996 6.529671631921768 6.19093950721931
759 4.675971975811021 6.30481836121491 6.195526734145959
760 3.90727971660556 6.518902398150797 6.499005827015894
761 3.701958379985311 6.925876997113903 6.190939506545434
762 4.03547562964888 6.732784336662236 6.195526734548534
763 3.24950092720602 6.870492484871612 6.499005827002305
764 3.005277772449801 7.255382381371904 6.190939509516897
765 3.356115440246811 7.095909921811471 6.19552673574043
766 2.560427668041731 7.155915973365439 6.499005826959978
767 2.279654709770444 7.515014463061915 6.190939510622896
768 2.644434026278566 7.39069801322554 6.195526737732973
769 1.846696090917507 7.37242407953146 6.499005826996518
770 1.532077322764732 7.702272849375606 6.190939511159952
771 1.907285271855135 7.614309641969196 6.195526738541237
772 1.115179821218922 7.517931712079237 6.499005826959959
773 0.7697451986203885 7.815354139422067 6.190939509042162
774 1.151768318509812 7.764591308111402 6.195526737774438
775 0.372923760317766 7.591037552904937 6.499005826999809
776 0.3851592050615114 7.840095710855907 6.195526743657489
777 7.058292968687726 0.3467516990245082 7.075327810596272
778 7.307865446115078 0.7197619248530728 6.788007468543997
779 7.330317729576435 0.3601154209866105 6.792404498189505
780 6.99031774859734 1.036915688983697 7.075327810609519
781 7.202127070535701 1.432592149484134 6.788007468550199
782 7.259722762415888 1.076878147789373 6.792404498237304
783 6.855021946893614 1.717093614208218 7.075327810614308
784 7.027028284317074 2.131625719815764 6.788007460369188
785 7.119212701168251 1.783269948431694 6.792404493737477
786 6.653993274574499 2.380836870494913 7.075025745395513
787 6.784255365560369 2.810130586545283 6.788007455905452
788 6.910277293980769 2.472536750626533 6.792247767646217
789 6.389276431807625 3.021902705448579 7.074266797114043
790 6.476146357658334 3.461572347091857 6.788007457276226
791 6.635489723692352 3.13835291228823 6.791245623941544
792 6.062220197297104 3.633554965582498 7.074373795013508
793 6.105668518533788 4.07967727831589 6.788007457758018
794 6.295832933536479 3.773577041034343 6.791362454498798
795 5.676407095106059 4.20991043903635 7.074959829279765
796 5.676389740520835 4.658492687569527 6.788007468585392
797 5.895163947742255 4.372151573395554 6.792005053627001
798 5.236157288915368 4.745776355687151 7.075327810606321
799 5.192444250807179 5.192444266078873 6.788007457709819
800 5.438077480244795 4.928786146281519 6.792229416257802
801 4.745776333618601 5.236157308989415 7.075327810552831
802 4.658492665285237 5.676389758817814 6.788007468578088
803 4.928677315121376 5.437957440972441 6.792404492783126
804 4.209690959421359 5.676111203931362 7.075327810552027
805 4.079677272191981 6.105668525491686 6.788007455180082
806 4.371931351895143 5.894867044961456 6.792404491529027
807 3.633063959729578 6.061401045740459 7.07532781058309
808 3.461572331914731 6.476146353939752 6.788007468563604
809 3.773081298487733 6.295005856885013 6.792404491546828
810 3.021448568305506 6.388316282256926 7.075327810563667
811 2.81013058057859 6.784255363742663 6.788007460192271
812 3.137894409161953 6.634520319236714 6.792404494034888
813 2.380734975993398 6.653708540896365 7.075327810560052
814 2.131625725074498 7.027028283372548 6.788007459695582
815 2.472487887093779 6.910140729253936 6.79240448958102
816 1.717093604571845 6.855021949361787 7.075327810561614
817 1.432592141565184 7.202127071920462 6.78800746875223
818 1.783269946206553 7.119212701592424 6.792404493877081
819 1.036915683287969 6.990317749525476 7.075327810527265
820 0.7197619366553717 7.307865455624333 6.788007457055027
821 1.076878150041133 7.259722767429104 6.792404492522179
822 0.3467516972244808 7.058292968778198 7.075327810594234
823 0.3601154241019634 7.330317724726044 6.792404503258846
824 6.482136262617304 0.3184469350147829 7.607923568388516
825 6.755321340211968 0.6653410731558638 7.343225098473325
826 6.775437241700239 0.3328558845895612 7.347289101694282
827 6.419709749842058 0.9522739928044761 7.607923564969028
828 6.65757779207403 1.324274559221975 7.343225097617539
829 6.710186082823439 0.9953620786645934 7.347289096410943
830 6.295457916010338 1.576930120675645 7.607923568375846
831 6.495718128003397 1.970454556917018 7.343225098051468
832 6.580312155900088 1.648282391331866 7.347289097982932
833 6.111078075190699 2.186578705297831 7.607469902961272
834 6.271301141156147 2.597657994730349 7.343225104771548
835 6.38745552396436 2.28546813761993 7.346907330387477
836 5.867237601401987 2.774996726159698 7.607556513000585
837 5.98648810312847 3.199844566800228 7.343225104776535
838 6.132995705109648 2.900690948513382 7.346588031346194
839 5.56738406446017 3.336961600569135 7.607162542967123
840 5.644021911579397 3.771214886752192 7.343225104785382
841 5.819289764629859 3.487948067199472 7.346433482703945
842 5.212779680587547 3.866060912500083 7.607923568391879
843 5.24720070311136 4.30626634590202 7.343225104776464
844 5.448798985634145 4.041104759635648 7.347112489665748
845 4.808738485337949 4.358386531432624 7.607923568376354
846 4.79984608363711 4.799846105260085 7.343225104762423
847 5.026322261954792 4.55559297214438 7.34728910490981
848 4.358386511175105 4.808738503761374 7.607923568336482
849 4.306266329133662 5.247200724026085 7.343225099664984
850 4.555592953081792 5.026322283033565 7.347289102309215
851 3.866060893722312 5.212779694635776 7.607923568308504
852 3.771214868307446 5.644021923682521 7.343225104955444
853 4.040990793000096 5.448645359791732 7.347289102390655
854 3.336502996158291 5.566618968030618 7.607923568319314
855 3.199844557681061 5.986488115537023 7.34322509863431
856 3.487471684642711 5.818495003175003 7.347289101896212
857 2.77481275102503 5.866848657940446 7.607923568331328
858 2.597657983458717 6.271301151131657 7.343225100239536
859 2.900366317081043 6.132309362268859 7.347289099536742
860 2.186399542763208 6.110577388262682 7.60792356832386
861 1.970454555558159 6.495718128740918 7.343225097763698
862 2.285328837168729 6.387066227957005 7.347289099096081
863 1.576930111830962 6.295457918264974 7.607923568343443
864 1.324274556865359 6.657577792542599 7.343225097617712
865 1.648282389563313 6.580312156550687 7.347289097797002
866 0.9522739821124926 6.419709747508778 7.607923568276195
867 0.6653410761067158 6.755321333054177 7.343225104790694
868 0.9953620759722802 6.710186077426044 7.347289101705052
869 0.3184469333880866 6.482136262780875 7.607923568317238
870 0.3328558857958062 6.775437227763284 7.347289114491852
871 5.866141068364058 0.2881850315878858 8.093536825987837
872 6.161128418440042 0.6068181843261411 7.853169315802482
873 6.178899679609447 0.3035498763783541 7.856784089045146
874 5.809646922858089 0.861779715630035 8.093536825977512
875 6.071982315910906 1.207792380298742 7.853169316992823
876 6.119393499522145 0.9077262819687301 7.856784087336838
877 5.697202701272911 1.427074990096961 8.093536825964803
878 5.924359709095117 1.79713487328108 7.853169314645356
879 6.000954211868609 1.503160781920648 7.856784088337423
880 5.530510035963336 1.978848138571585 8.093059914925911
881 5.719682279362281 2.3691699795684 7.853169311243771
882 5.825280879520574 2.08431883199816 7.85631705580101
883 5.309677635557785 2.511290500994637 8.093252957005086
884 5.459921174994745 2.918388676784569 7.853169315254805
885 5.5927676727451 2.645182115989803 7.856459847281412
886 5.037900741978856 3.019601509192362 8.093303580099544
887 5.147578045877308 3.439501699501374 7.853169316952814
888 5.306739483202372 3.180737248955595 7.856298531148584
889 4.717411008623439 3.498670464926346 8.093536825984698
890 4.785660932085491 3.92749043802628 7.853169315780908
891 4.968924040165475 3.685205240390733 7.856784088879004
892 4.351765710096902 3.944210548541638 8.093536825961667
893 4.377655280269301 4.377655300047659 7.853169316976105
894 4.583784032264067 4.154499696106324 7.856784088964989
895 3.944210530142585 4.351765726823949 8.093536825934184
896 3.927490423830242 4.785660941269001 7.853169317284204
897 4.154499679079359 4.583784046620652 7.856784089592606
898 3.498670447896552 4.717411021327361 8.093536825941701
899 3.439501687689194 5.147578058214052 7.853169314039806
900 3.685205227428608 4.96892405091832 7.856784088158357
901 3.019436256401548 5.037625069449433 8.093536825960724
902 2.91838866600626 5.459921181873866 7.853169314477517
903 3.180420232878473 5.306210602302604 7.856784086781861
904 2.511123244768545 5.309324043266925 8.093536819782241
905 2.369169968172996 5.719682279204594 7.853169314796422
906 2.64500605251562 5.592395447492103 7.856784083900062
907 1.978626741221966 5.529891306905553 8.093536825932885
908 1.797134864351625 5.924359708761492 7.853169316940473
909 2.08411901567864 5.824722458334459 7.856784088407984
910 1.427074982068121 5.697202703306734 8.093536825948821
911 1.207792377502834 6.071982318752995 7.853169315225355
912 1.503160776088537 6.000954213040299 7.856784088558294
913 0.8617797108803978 5.809646923596397 8.093536825953274
914 0.6068181850919856 6.161128418416268 7.853169315761956
915 0.9077262782682332 6.11939349922974 7.856784087992116
916 0.2881850300866934 5.866141068474303 8.093536825961385
917 0.3035498768194746 6.178899679613199 7.856784089025152
918 5.214119665707331 0.2561532740351066 8.529205215721166
919 5.52895010091552 0.5445540552168834 8.314696125688124
920 5.544400948553493 0.2723789528784731 8.317777817885494
921 5.163904842741433 0.765992926256735 8.529205215730023
922 5.448951059137189 1.083863757670483 8.314696128538682
923 5.491005336143656 0.814513700757042 8.317777818006499
924 5.063958793001421 1.268455647990801 8.529205215719916
925 5.316475644035292 1.612735259531048 8.314696128485084
926 5.384728338447539 1.348804236519711 8.317777819385805
927 4.9158974520465 1.758936238973486 8.528780425605325
928 5.132799670690597 2.12607524149019 8.31469612241367
929 5.227229518739348 1.870332633310505 8.31732693833745
930 4.719192822580578 2.23201198282625 8.529205215717582
931 4.899692016944065 2.618939952108362 8.314696125917367
932 5.018305359672193 2.373481675368765 8.317643659942039
933 4.477926663806588 2.683965962114097 8.529038603956659
934 4.619397653319139 3.08658284174912 8.314696126830466
935 4.76158185041564 2.853982336896455 8.317579161178775
936 4.193070917417995 3.109793348356698 8.529205215729064
937 4.294615971839694 3.524500253084415 8.314696123156113
938 4.458675266666832 3.306778957287172 8.317777815862614
939 3.86806708275155 3.505811665115266 8.529205215732333
940 3.928474783246918 3.928474796681423 8.314696124888265
941 4.113084510178791 3.727882513424982 8.317777814911114
942 3.505811648771702 3.868067097653931 8.529205215691773
943 3.52450023917723 4.294615979278062 8.314696125209217
944 3.727882499718265 4.113084520604487 8.31777781589879
945 3.109793333215655 4.19307092869344 8.529205215706408
946 3.086582834415575 4.619397663522042 8.314696123884397
947 3.306778946665414 4.458675275439723 8.317777815382717
948 2.683826007628431 4.477693195077775 8.529205215700431
949 2.618939937981821 4.899692020051892 8.314696128535521
950 2.853829298893261 4.761326546556616 8.317777819215518
951 2.232011970615281 4.719192828398712 8.529205215693914
952 2.126075232170939 5.132799670575799 8.314696124867478
953 2.373395719988955 5.018123651628199 8.317777814615379
954 1.758702438647084 4.91524405508364 8.529205215684621
955 1.61273525318287 5.316475651905211 8.314696124684307
956 1.870105043467599 5.22659347338313 8.317777815641984
957 1.268455640881472 5.063958794842454 8.529205215684151
958 1.083863756334601 5.44895106450417 8.314696125195622
959 1.348804232687988 5.384728345005547 8.317777815761659
960 0.7659929220184681 5.163904843405394 8.529205215708666
961 0.5445540524111993 5.528950096870881 8.314696128561405
962 0.8145136986341369 5.491005336790887 8.317777817787112
963 0.2561532727011337 5.214119665814644 8.529205215695626
964 0.2723789515184767 5.544400946498605 8.31777781929976
965 4.530098679590193 0.2225494777368898 8.912276795697844
966 4.862683963077574 0.4789325656891198 8.724960072845642
967 4.875863546779057 0.2395358150555969 8.727461100829771
968 4.48647135278954 0.6655051602703483 8.912276795648367
969 4.792325209566006 0.9532527537382309 8.724960072874179
970 4.828906316666714 0.7163005867532005 8.727461100129483
971 4.399636853856219 1.102051664401006 8.912276795700475
972 4.675813743236224 1.418392593102679 8.724960073856767
973 4.735444076552562 1.186166992843985 8.727461100625469
974 4.271007444251066 1.528190903852904 8.911965438248355
975 4.514271634255467 1.869872541058486 8.724960073968932
976 4.596992766642435 1.644830316094841 8.727095206005975
977 4.100099450142284 1.939202623726575 8.912276795694517
978 4.309254623991309 2.303344591078864 8.724960073281554
979 4.413044143348515 2.087214440657791 8.72746110089108
980 3.890281254308789 2.331744857260376 8.912276795691067
981 4.062737137124783 2.714634173116325 8.724960072159423
982 4.187330700837535 2.509789442569464 8.727383259361897
983 3.642997522938138 2.701831113291439 8.912276795696874
984 3.777093265652796 3.099780344663744 8.724960073111887
985 3.921053401008696 2.908051405279792 8.727461099924099
986 3.360629733827745 3.045897258485819 8.912276795682541
987 3.455073923717471 3.455073936103963 8.724960073129427
988 3.617133572754294 3.278378785024406 8.727461100386279
989 3.045897244267131 3.360629746750362 8.912276795669134
990 3.099780330103358 3.777093275622454 8.724960073968932
991 3.278378771545079 3.617133583927345 8.727461100818926
992 2.701831100189685 3.642997532833367 8.912276795623988
993 2.714634160036242 4.062737141978591 8.724960073968932
994 2.908051391458249 3.921053408428318 8.727461101196065
995 2.331744845303072 3.890281261504646 8.912276795678441
996 2.303344578597943 4.309254629270764 8.724960073968932
997 2.509717886609244 4.187211343272731 8.727461102543042
998 1.939202613113613 4.100099455222913 8.91227679566642
999 1.869872532272111 4.514271638249078 8.724960073785683
1000 2.08721443003542 4.41304414795299 8.727461101103218
1001 1.527984800077435 4.270431449864887 8.91227679567557
1002 1.418392590086276 4.675813744429306 8.724960073707749
1003 1.644609956984025 4.596376923201866 8.727461100987293
1004 1.102051658267005 4.399636855626044 8.912276795585285
1005 0.9532527508217772 4.792325210237232 8.724960072824137
1006 1.186166989895511 4.735444077569619 8.727461100474356
1007 0.6655051565926642 4.486471353295283 8.912276795668397
1008 0.4789325682321098 4.862683962872368 8.724960072820418
1009 0.7163005865812395 4.828906316808506 8.727461100065144
1010 0.2225494765661174 4.530098679694933 8.91227679567384
1011 0.2395358163344055 4.875863546687269 8.727461100845954
1012 3.818293900523511 0.1875807512165085 9.240424511406282
1013 4.166437761017285 0.4103583029686209 9.081431739916013
1014 4.177411878615692 0.2052230862108072 9.083342638108871
1015 3.781521642766502 0.5609357486242391 9.240424511417423
1016 4.106153076916864 0.8167646314245126 9.081431739862397
1017 4.137181118357404 0.6136928482766573 9.083342638141593
1018 3.708331264214463 0.9288886282129327 9.240424511418631
1019 4.006323893579435 1.215305069922991 9.081431739916013
1020 4.057107042103056 1.016252412829717 9.083342638166611
1021 3.599427628152973 1.287895802598326 9.240424511424713
1022 3.867911634615158 1.602141461014887 9.081431733251414
1023 3.938254352720099 1.409129942994718 9.08319907615356
1024 3.455859536280291 1.634499836266804 9.240424511392556
1025 3.692249244775556 1.973548344404146 9.081431739916013
1026 3.780889863122087 1.788227731764846 9.083342634861232
1027 3.279009627624067 1.965362742757806 9.240424511424148
1028 3.481028489737085 2.32594888311948 9.081431739916013
1029 3.58740686938889 2.150208936514459 9.083342638191889
1030 3.070581063502336 2.277298131828176 9.240424511418984
1031 3.236283527135311 2.655949262621371 9.081431739895072
1032 3.359375192912918 2.491482456421633 9.083342638180316
1033 2.832581125042903 2.567301894761284 9.240424511417524
1034 2.960371384965232 2.960371398363053 9.081431739920363
1035 3.098990896729445 2.808761638065658 9.083342638176696
1036 2.56730188276535 2.832581135963786 9.240424511402686
1037 2.655949259456006 3.236283547248862 9.081431733653092
1038 2.808761629773067 3.098990913451037 9.083342635035985
1039 2.277298120737069 3.070581071777101 9.240424511402686
1040 2.325948880041745 3.481028508401435 9.081431733550003
1041 2.491482453328848 3.359375212322553 9.083342631850197
1042 1.965362732688888 3.279009633709105 9.240424511406419
1043 1.973548333879075 3.692249250499735 9.081431739876002
1044 2.150208929514334 3.587406881695089 9.083342634988705
1045 1.63449982728543 3.455859540511923 9.240424511398631
1046 1.602141447556848 3.867911624595937 9.081431739893004
1047 1.788227719482742 3.780889860953873 9.083342638181705
1048 1.28789579539036 3.599427630801721 9.240424511397565
1049 1.215305064305802 4.00632389451232 9.081431740256175
1050 1.409024903000473 3.937960806655189 9.083342639577797
1051 0.9288886230175573 3.708331265552983 9.240424511403724
1052 0.816764626834147 4.10615307736609 9.081431740072127
1053 1.016252407759246 4.057107042867683 9.083342638392377
1054 0.56093574552376 3.781521643258606 9.240424511404248
1055 0.410358301352982 4.16643775758613 9.081431741563184
1056 0.6136928451446017 4.137181116800361 9.083342639062387
1057 0.187580750229277 3.818293900584745 9.240424511401018
1058 0.2052230854184774 4.177411876878514 9.083342638925698
1059 3.444504090599938 0.3392540419871597 9.38191335841659
1060 3.455003913879596 0.1697334583646119 9.382650931809639
1061 3.394665147247184 0.6752408826249093 9.381913359677608
1062 3.421730447626678 0.5075657659880815 9.382650890712149
1063 3.312133726086621 1.004724784218228 9.381913359677608
1064 3.355503902326645 0.8405099746376391 9.382650827138635
1065 3.1977046462735 1.324532637085127 9.381913359677608
1066 3.256962023950268 1.165359649692904 9.382650758789513
1067 3.052479922641953 1.631584516159242 9.381913359677608
1068 3.127053644213463 1.478986230692485 9.382650757415696
1069 2.877858148414082 1.922923344574474 9.381913359677608
1070 2.967030024734953 1.778369364451883 9.382650757429923
1071 2.675521026697716 2.195743370068826 9.381913359677608
1072 2.77843228398659 2.060625829073942 9.382650757427477
1073 2.447417175008136 2.447417186132762 9.381913359677608
1074 2.563076721284957 2.323037340312236 9.382650757452407
1075 2.195743359507476 2.675521035365193 9.381913359677608
1076 2.323037329488735 2.563076731210546 9.382650757420789
1077 1.922923335080904 2.877858154757483 9.381913359677608
1078 2.060625819043869 2.778432291450273 9.382650757420111
1079 1.631584507414412 3.052479927316162 9.381913359677608
1080 1.778369355255658 2.96703003027217 9.382650757421951
1081 1.324532629641474 3.197704649356762 9.381913359677608
1082 1.478986222602977 3.127053648030956 9.382650757418549
1083 1.004724778609183 3.312133727788106 9.381913359677608
1084 1.165359644437233 3.256962029781762 9.382650757418023
1085 0.6752408788221578 3.394665148003598 9.381913359677608
1086 0.8405100157993699 3.355504086962626 9.382650757420212
1087 0.3392540406576479 3.44450408258085 9.381913361408818
1088 0.5075658165889093 3.421730803263953 9.382650758278551
1089 0.1697334810546979 3.455004383757811 9.382650758374382
$EndNodes
$Elements
256
1 10 2 1 5 1 5 129 67 20 354 355 82 356
2 10 2 1 5 67 129 130 68 355 357 358 83 359
3 10 2 1 5 68 130 131 69 358 360 361 84 362
4 10 2 1 5 69 131 132 70 361 363 364 85 365
5 10 2 1 5 70 132 133 71 364 366 367 86 368
6 10 2 1 5 71 133 134 72 367 369 370 87 371
7 10 2 1 5 72 134 135 73 370 372 373 88 374
8 10 2 1 5 73 135 136 74 373 375 376 89 377
9 10 2 1 5 74 136 137 75 376 378 379 90 380
10 10 2 1 5 75 137 138 76 379 381 382 91 383
11 10 2 1 5 76 138 139 77 382 384 385 92 386
12 10 2 1 5 77 139 140 78 385 387 388 93 389
13 10 2 1 5 78 140 141 79 388 390 391 94 392
14 10 2 1 5 79 141 142 80 391 393 394 95 395
15 10 2 1 5 80 142 143 81 394 396 397 96 398
16 10 2 1 5 81 143 36 3 397 399 51 97 400
17 10 2 1 5 5 6 144 129 21 401 402 354 403
18 10 2 1 5 129 144 145 130 402 404 405 357 406
19 10 2 1 5 130 145 146 131 405 407 408 360 409
20 10 2 1 5 131 146 147 132 408 410 411 363 412
21 10 2 1 5 132 147 148 133 411 413 414 366 415
22 10 2 1 5 133 148 149 134 414 416 417 369 418
23 10 2 1 5 134 149 150 135 417 419 420 372 421
24 10 2 1 5 135 150 151 136 420 422 423 375 424
25 10 2 1 5 136 151 152 137 423 425 426 378 427
26 10 2 1 5 137 152 153 138 426 428 429 381 430
27 10 2 1 5 138 153 154 139 429 431 432 384 433
28 10 2 1 5 139 154 155 140 432 434 435 387 436
29 10 2 1 5 140 155 156 141 435 437 438 390 439
30 10 2 1 5 141 156 157 142 438 440 441 393 442
31 10 2 1 5 142 157 158 143 441 443 444 396 445
32 10 2 1 5 143 158 37 36 444 446 52 399 447
33 10 2 1 5 6 7 159 144 22 448 449 401 450
34 10 2 1 5 144 159 160 145 449 451 452 404 453
35 10 2 1 5 145 160 161 146 452 454 455 407 456
36 10 2 1 5 146 161 162 147 455 457 458 410 459
37 10 2 1 5 147 162 163 148 458 460 461 413 462
38 10 2 1 5 148 163 164 149 461 463 464 416 465
39 10 2 1 5 149 164 165 150 464 466 467 419 468
40 10 2 1 5 150 165 166 151 467 469 470 422 471
41 10 2 1 5 151 166 167 152 470 472 473 425 474
42 10 2 1 5 152 167 168 153 473 475 476 428 477
43 10 2 1 5 153 168 169 154 476 478 479 431 480
44 10 2 1 5 154 169 170 155 479 481 482 434 483
45 10 2 1 5 155 170 171 156 482 484 485 437 486
46 10 2 1 5 156 171 172 157 485 487 488 440 489
47 10 2 1 5 157 172 173 158 488 490 491 443 492
48 10 2 1 5 158 173 38 37 491 493 53 446 494
49 10 2 1 5 7 8 174 159 23 495 496 448 497
50 10 2 1 5 159 174 175 160 496 498 499 451 500
51 10 2 1 5 160 175 176 161 499 501 502 454 503
52 10 2 1 5 161 176 177 162 502 504 505 457 506
53 10 2 1 5 162 177 178 163 505 507 508 460 509
54 10 2 1 5 163 178 179 164 508 510 511 463 512
55 10 2 1 5 164 179 180 165 511 513 514 466 515
56 10 2 1 5 165 180 181 166 514 516 517 469 518
57 10 2 1 5 166 181 182 167 517 519 520 472 521
58 10 2 1 5 167 182 183 168 520 522 523 475 524
59 10 2 1 5 168 183 184 169 523 525 526 478 527
60 10 2 1 5 169 184 185 170 526 528 529 481 530
61 10 2 1 5 170 185 186 171 529 531 532 484 533
62 10 2 1 5 171 186 187 172 532 534 535 487 536
63 10 2 1 5 172 187 188 173 535 537 538 490 539
64 10 2 1 5 173 188 39 38 538 540 54 493 541
65 10 2 1 5 8 9 189 174 24 542 543 495 544
66 10 2 1 5 174 189 190 175 543 545 546 498 547
67 10 2 1 5 175 190 191 176 546 548 549 501 550
68 10 2 1 5 176 191 192 177 549 551 552 504 553
69 10 2 1 5 177 192 193 178 552 554 555 507 556
70 10 2 1 5 178 193 194 179 555 557 558 510 559
71 10 2 1 5 179 194 195 180 558 560 561 513 562
72 10 2 1 5 180 195 196 181 561 563 564 516 565
73 10 2 1 5 181 196 197 182 564 566 567 519 568
74 10 2 1 5 182 197 198 183 567 569 570 522 571
75 10 2 1 5 183 198 199 184 570 572 573 525 574
76 10 2 1 5 184 199 200 185 573 575 576 528 577
77 10 2 1 5 185 200 201 186 576 578 579 531 580
78 10 2 1 5 186 201 202 187 579 581 582 534 583
79 10 2 1 5 187 202 203 188 582 584 585 537 586
80 10 2 1 5 188 203 40 39 585 587 55 540 588
81 10 2 1 5 9 10 204 189 25 589 590 542 591
82 10 2 1 5 189 204 205 190 590 592 593 545 594
83 10 2 1 5 190 205 206 191 593 595 596 548 597
84 10 2 1 5 191 206 207 192 596 598 599 551 600
85 10 2 1 5 192 207 208 193 599 601 602 554 603
86 10 2 1 5 193 208 209 194 602 604 605 557 606
87 10 2 1 5 194 209 210 195 605 607 608 560 609
88 10 2 1 5 195 210 211 196 608 610 611 563 612
89 10 2 1 5 196 211 212 197 611 613 614 566 615
90 10 2 1 5 197 212 213 198 614 616 617 569 618
91 10 2 1 5 198 213 214 199 617 619 620 572 621
92 10 2 1 5 199 214 215 200 620 622 623 575 624
93 10 2 1 5 200 215 216 201 623 625 626 578 627
94 10 2 1 5 201 216 217 202 626 628 629 581 630
95 10 2 1 5 202 217 218 203 629 631 632 584 633
96 10 2 1 5 203 218 41 40 632 634 56 587 635
97 10 2 1 5 10 11 219 204 26 636 637 589 638
98 10 2 1 5 204 219 220 205 637 639 640 592 641
99 10 2 1 5 205 220 221 206 640 642 643 595 644
100 10 2 1 5 206 221 222 207 643 645 646 598 647
101 10 2 1 5 207 222 223 208 646 648 649 601 650
102 10 2 1 5 208 223 224 209 649 651 652 604 653
103 10 2 1 5 209 224 225 210 652 654 655 607 656
104 10 2 1 5 210 225 226 211 655 657 658 610 659
105 10 2 1 5 211 226 227 212 658 660 661 613 662
106 10 2 1 5 212 227 228 213 661 663 664 616 665
107 10 2 1 5 213 228 229 214 664 666 667 619 668
108 10 2 1 5 214 229 230 215 667 669 670 622 671
109 10 2 1 5 215 230 231 216 670 672 673 625 674
110 10 2 1 5 216 231 232 217 673 675 676 628 677
111 10 2 1 5 217 232 233 218 676 678 679 631 680
112 10 2 1 5 218 233 42 41 679 681 57 634 682
113 10 2 1 5 11 12 234 219 27 683 684 636 685
114 10 2 1 5 219 234 235 220 684 686 687 639 688
115 10 2 1 5 220 235 236 221 687 689 690 642 691
116 10 2 1 5 221 236 237 222 690 692 693 645 694
117 10 2 1 5 222 237 238 223 693 695 696 648 697
118 10 2 1 5 223 238 239 224 696 698 699 651 700
119 10 2 1 5 224 239 240 225 699 701 702 654 703
120 10 2 1 5 225 240 241 226 702 704 705 657 706
121 10 2 1 5 226 241 242 227 705 707 708 660 709
122 10 2 1 5 227 242 243 228 708 710 711 663 712
123 10 2 1 5 228 243 244 229 711 713 714 666 715
124 10 2 1 5 229 244 245 230 714 716 717 669 718
125 10 2 1 5 230 245 246 231 717 719 720 672 721
126 10 2 1 5 231 246 247 232 720 722 723 675 724
127 10 2 1 5 232 247 248 233 723 725 726 678 727
128 10 2 1 5 233 248 43 42 726 728 58 681 729
129 10 2 1 5 12 13 249 234 28 730 731 683 732
130 10 2 1 5 234 249 250 235 731 733 734 686 735
131 10 2 1 5 235 250 251 236 734 736 737 689 738
132 10 2 1 5 236 251 252 237 737 739 740 692 741
133 10 2 1 5 237 252 253 238 740 742 743 695 744
134 10 2 1 5 238 253 254 239 743 745 746 698 747
135 10 2 1 5 239 254 255 240 746 748 749 701 750
136 10 2 1 5 240 255 256 241 749 751 752 704 753
137 10 2 1 5 241 256 257 242 752 754 755 707 756
138 10 2 1 5 242 257 258 243 755 757 758 710 759
139 10 2 1 5 243 258 259 244 758 760 761 713 762
140 10 2 1 5 244 259 260 245 761 763 764 716 765
141 10 2 1 5 245 260 261 246 764 766 767 719 768
142 10 2 1 5 246 261 262 247 767 769 770 722 771
143 10 2 1 5 247 262 263 248 770 772 773 725 774
144 10 2 1 5 248 263 44 43 773 775 59 728 776
145 10 2 1 5 13 14 264 249 29 777 778 730 779
146 10 2 1 5 249 264 265 250 778 780 781 733 782
147 10 2 1 5 250 265 266 251 781 783 784 736 785
148 10 2 1 5 251 266 267 252 784 786 787 739 788
149 10 2 1 5 252 267 268 253 787 789 790 742 791
150 10 2 1 5 253 268 269 254 790 792 793 745 794
151 10 2 1 5 254 269 270 255 793 795 796 748 797
152 10 2 1 5 255 270 271 256 796 798 799 751 800
153 10 2 1 5 256 271 272 257 799 801 802 754 803
154 10 2 1 5 257 272 273 258 802 804 805 757 806
155 10 2 1 5 258 273 274 259 805 807 808 760 809
156 10 2 1 5 259 274 275 260 808 810 811 763 812
157 10 2 1 5 260 275 276 261 811 813 814 766 815
158 10 2 1 5 261 276 277 262 814 816 817 769 818
159 10 2 1 5 262 277 278 263 817 819 820 772 821
160 10 2 1 5 263 278 45 44 820 822 60 775 823
161 10 2 1 5 14 15 279 264 30 824 825 777 826
162 10 2 1 5 264 279 280 265 825 827 828 780 829
163 10 2 1 5 265 280 281 266 828 830 831 783 832
164 10 2 1 5 266 281 282 267 831 833 834 786 835
165 10 2 1 5 267 282 283 268 834 836 837 789 838
166 10 2 1 5 268 283 284 269 837 839 840 792 841
167 10 2 1 5 269 284 285 270 840 842 843 795 844
168 10 2 1 5 270 285 286 271 843 845 846 798 847
169 10 2 1 5 271 286 287 272 846 848 849 801 850
170 10 2 1 5 272 287 288 273 849 851 852 804 853
171 10 2 1 5 273 288 289 274 852 854 855 807 856
172 10 2 1 5 274 289 290 275 855 857 858 810 859
173 10 2 1 5 275 290 291 276 858 860 861 813 862
174 10 2 1 5 276 291 292 277 861 863 864 816 865
175 10 2 1 5 277 292 293 278 864 866 867 819 868
176 10 2 1 5 278 293 46 45 867 869 61 822 870
177 10 2 1 5 15 16 294 279 31 871 872 824 873
178 10 2 1 5 279 294 295 280 872 874 875 827 876
179 10 2 1 5 280 295 296 281 875 877 878 830 879
180 10 2 1 5 281 296 297 282 878 880 881 833 882
181 10 2 1 5 282 297 298 283 881 883 884 836 885
182 10 2 1 5 283 298 299 284 884 886 887 839 888
183 10 2 1 5 284 299 300 285 887 889 890 842 891
184 10 2 1 5 285 300 301 286 890 892 893 845 894
185 10 2 1 5 286 301 302 287 893 895 896 848 897
186 10 2 1 5 287 302 303 288 896 898 899 851 900
187 10 2 1 5 288 303 304 289 899 901 902 854 903
188 10 2 1 5 289 304 305 290 902 904 905 857 906
189 10 2 1 5 290 305 306 291 905 907 908 860 909
190 10 2 1 5 291 306 307 292 908 910 911 863 912
191 10 2 1 5 292 307 308 293 911 913 914 866 915
192 10 2 1 5 293 308 47 46 914 916 62 869 917
193 10 2 1 5 16 17 309 294 32 918 919 871 920
194 10 2 1 5 294 309 310 295 919 921 922 874 923
195 10 2 1 5 295 310 311 296 922 924 925 877 926
196 10 2 1 5 296 311 312 297 925 927 928 880 929
197 10 2 1 5 297 312 313 298 928 930 931 883 932
198 10 2 1 5 298 313 314 299 931 933 934 886 935
199 10 2 1 5 299 314 315 300 934 936 937 889 938
200 10 2 1 5 300 315 316 301 937 939 940 892 941
201 10 2 1 5 301 316 317 302 940 942 943 895 944
202 10 2 1 5 302 317 318 303 943 945 946 898 947
203 10 2 1 5 303 318 319 304 946 948 949 901 950
204 10 2 1 5 304 319 320 305 949 951 952 904 953
205 10 2 1 5 305 320 321 306 952 954 955 907 956
206 10 2 1 5 306 321 322 307 955 957 958 910 959
207 10 2 1 5 307 322 323 308 958 960 961 913 962
208 10 2 1 5 308 323 48 47 961 963 63 916 964
209 10 2 1 5 17 18 324 309 33 965 966 918 967
210 10 2 1 5 309 324 325 310 966 968 969 921 970
211 10 2 1 5 310 325 326 311 969 971 972 924 973
212 10 2 1 5 311 326 327 312 972 974 975 927 976
213 10 2 1 5 312 327 328 313 975 977 978 930 979
214 10 2 1 5 313 328 329 314 978 980 981 933 982
215 10 2 1 5 314 329 330 315 981 983 984 936 985
216 10 2 1 5 315 330 331 316 984 986 987 939 988
217 10 2 1 5 316 331 332 317 987 989 990 942 991
218 10 2 1 5 317 332 333 318 990 992 993 945 994
219 10 2 1 5 318 333 334 319 993 995 996 948 997
220 10 2 1 5 319 334 335 320 996 998 999 951 1000
221 10 2 1 5 320 335 336 321 999 1001 1002 954 1003
222 10 2 1 5 321 336 337 322 1002 1004 1005 957 1006
223 10 2 1 5 322 337 338 323 1005 1007 1008 960 1009
224 10 2 1 5 323 338 49 48 1008 1010 64 963 1011
225 10 2 1 5 18 19 339 324 34 1012 1013 965 1014
226 10 2 1 5 324 339 340 325 1013 1015 1016 968 1017
227 10 2 1 5 325 340 341 326 1016 1018 1019 971 1020
228 10 2 1 5 326 341 342 327 1019 1021 1022 974 1023
229 10 2 1 5 327 342 343 328 1022 1024 1025 977 1026
230 10 2 1 5 328 343 344 329 1025 1027 1028 980 1029
231 10 2 1 5 329 344 345 330 1028 1030 1031 983 1032
232 10 2 1 5 330 345 346 331 1031 1033 1034 986 1035
233 10 2 1 5 331 346 347 332 1034 1036 1037 989 1038
234 10 2 1 5 332 347 348 333 1037 1039 1040 992 1041
235 10 2 1 5 333 348 349 334 1040 1042 1043 995 1044
236 10 2 1 5 334 349 350 335 1043 1045 1046 998 1047
237 10 2 1 5 335 350 351 336 1046 1048 1049 1001 1050
238 10 2 1 5 336 351 352 337 1049 1051 1052 1004 1053
239 10 2 1 5 337 352 353 338 1052 1054 1055 1007 1056
240 10 2 1 5 338 353 50 49 1055 1057 65 1010 1058
241 10 2 1 5 19 2 98 339 35 113 1059 1012 1060
242 10 2 1 5 339 98 99 340 1059 114 1061 1015 1062
243 10 2 1 5 340 99 100 341 1061 115 1063 1018 1064
244 10 2 1 5 341 100 101 342 1063 116 1065 1021 1066
245 10 2 1 5 342 101 102 343 1065 117 1067 1024 1068
246 10 2 1 5 343 102 103 344 1067 118 1069 1027 1070
247 10 2 1 5 344 103 104 345 1069 119 1071 1030 1072
248 10 2 1 5 345 104 105 346 1071 120 1073 1033 1074
249 10 2 1 5 346 105 106 347 1073 121 1075 1036 1076
250 10 2 1 5 347 106 107 348 1075 122 1077 1039 1078
251 10 2 1 5 348 107 108 349 1077 123 1079 1042 1080
252 10 2 1 5 349 108 109 350 1079 124 1081 1045 1082
253 10 2 1 5 350 109 110 351 1081 125 1083 1048 1084
254 10 2 1 5 351 110 111 352 1083 126 1085 1051 1086
255 10 2 1 5 352 111 112 353 1085 127 1087 1054 1088
256 10 2 1 5 353 112 4 50 1087 128 66 1057 1089
$EndElements
