$MeshFormat
2.2 0 8
$EndMeshFormat
$PhysicalNames
1
2 1 "cylindrical_shell_roof"
$EndPhysicalNames
$Nodes
1089
1 16.06969024216348 0 19.15111107797445
2 0 0 25
3 16.06969024216348 25 19.15111107797445
4 0 25 25
5 16.06969024216348 1.562499999993635 19.15111107797445
6 16.06969024216348 3.124999999988169 19.15111107797445
7 16.06969024216348 4.687499999980144 19.15111107797445
8 16.06969024216348 6.249999999972031 19.15111107797445
9 16.06969024216348 7.812499999963925 19.15111107797445
10 16.06969024216348 9.374999999961023 19.15111107797445
11 16.06969024216348 10.93749999995847 19.15111107797445
12 16.06969024216348 12.49999999995591 19.15111107797445
13 16.06969024216348 14.06249999995336 19.15111107797445
14 16.06969024216348 15.6249999999508 19.15111107797445
15 16.06969024216348 17.18749999995726 19.15111107797445
16 16.06969024216348 18.74999999996581 19.15111107797445
17 16.06969024216348 20.31249999997436 19.15111107797445
18 16.06969024216348 21.8749999999829 19.15111107797445
19 16.06969024216348 23.43749999999146 19.15111107797445
20 16.06969024216348 0.7812499999969487 19.15111107797445
21 16.06969024216348 2.343749999990937 19.15111107797445
22 16.06969024216348 3.906249999984177 19.15111107797445
23 16.06969024216348 5.468749999976059 19.15111107797445
24 16.06969024216348 7.031249999968002 19.15111107797445
25 16.06969024216348 8.593749999962474 19.15111107797445
26 16.06969024216348 10.15624999995956 19.15111107797445
27 16.06969024216348 11.71874999995719 19.15111107797445
28 16.06969024216348 13.2812499999541 19.15111107797445
29 16.06969024216348 14.84374999995187 19.15111107797445
30 16.06969024216348 16.40624999995392 19.15111107797445
31 16.06969024216348 17.96874999996164 19.15111107797445
32 16.06969024216348 19.53124999996961 19.15111107797445
33 16.06969024216348 21.09374999997952 19.15111107797445
34 16.06969024216348 22.6562499999866 19.15111107797445
35 16.06969024216348 24.21874999999494 19.15111107797445
36 15.21903572407823 25 19.83383350815546
37 14.33941090536504 25 20.47880110961328
38 13.43249020320052 25 21.08478614880697
39 12.4999999912267 25 21.65063509967623
40 11.54371531800624 25 22.17527083615504
41 10.56545652594942 25 22.65769468410837
42 9.567085787564482 25 23.09698832171376
43 8.550503556475576 25 23.49231552935339
44 7.517644962870524 25 23.842923776505
45 6.470476107770116 25 24.1481456625302
46 5.41099033038723 25 24.40740018200332
47 4.341204430722733 25 24.62019382723607
48 3.263154796653824 25 24.78612153551006
49 2.178893561989156 25 24.90486745288002
50 1.090484677258621 25 24.9762055398466
51 15.64808680390083 25 19.49711207788437
52 14.78274120690648 25 20.16111510828777
53 13.88925582079056 25 20.78674031070374
54 12.9693314464429 25 21.37279677141734
55 12.02471921275137 25 21.91816889830189
56 11.05721724009944 25 22.42181854589961
57 10.06866722627493 25 22.88278698687153
58 9.060950933368595 25 23.3001967412957
59 8.0359866064335 25 23.67325324625286
60 6.995725328168641 25 24.00124636623731
61 5.942147288639513 25 24.28355175010678
62 4.877258035607598 25 24.51963201302379
63 3.80308464382159 25 24.70903776337574
64 2.721671864005376 25 24.85140845635679
65 1.635078224045259 25 24.94647308140478
66 0.545372122156337 25 24.99405067707863
67 0 23.4375000000111 25
68 0 21.8750000000222 25
69 0 20.31250000003331 25
70 0 18.75000000004441 25
71 0 17.18750000005551 25
72 0 15.62500000006453 25
73 0 14.06250000006453 25
74 0 12.50000000006453 25
75 0 10.93750000006453 25
76 0 9.375000000064531 25
77 0 7.812500000055511 25
78 0 6.250000000044405 25
79 0 4.687500000033303 25
80 0 3.125000000022201 25
81 0 1.562500000011099 25
82 0 24.21875000000575 25
83 0 22.65625000001817 25
84 0 21.09375000002764 25
85 0 19.53125000003942 25
86 0 17.96875000005019 25
87 0 16.40625000006089 25
88 0 14.84375000006453 25
89 0 13.28125000006453 25
90 0 11.71875000006438 25
91 0 10.15625000006453 25
92 0 8.59375000005943 25
93 0 7.031250000050051 25
94 0 5.468750000038664 25
95 0 3.906250000027072 25
96 0 2.343750000016662 25
97 0 0.7812500000046114 25
98 1.09048468656901 0 24.9762055394401
99 2.17889357434483 0 24.90486745179903
100 3.263154814106473 0 24.78612153321237
101 4.341204453696681 0 24.62019382318515
102 5.410990363700032 0 24.40740017461805
103 6.470476145783782 0 24.14814565234447
104 7.517645009075531 0 23.84292376193661
105 8.550503607828992 0 23.49231551066228
106 9.567085829786576 0 23.09698830422479
107 10.56545655891865 0 22.65769466873457
108 11.54371534302563 0 22.17527082313076
109 12.50000000734658 0 21.65063509036941
110 13.43249021482923 0 21.08478614139866
111 14.33941091214563 0 20.47880110486546
112 15.21903572899368 0 19.83383350438371
113 0.5453721271705246 0 24.99405067696922
114 1.635078234708186 0 24.94647308070589
115 2.721671878162009 0 24.85140845480638
116 3.803084665224841 0 24.70903776008146
117 4.877258063793436 0 24.51963200741728
118 5.942147324946774 0 24.28355174122245
119 6.995725371368969 0 24.00124635364556
120 8.035986656643713 0 23.67325322920879
121 9.06095097946829 0 23.30019672336851
122 10.0686672645789 0 22.88278697001738
123 11.05721726994177 0 22.421818531183
124 12.02471923237624 0 21.91816888753531
125 12.96933146128124 0 21.37279676241321
126 13.88925582961198 0 20.78674030480945
127 14.78274121306328 0 20.16111510377342
128 15.6480868065265 0 19.49711207577705
129 15.21903572868647 1.562499999994727 19.83383350461944
130 14.33941091172184 1.562499999995818 20.4788011051622
131 13.43249021410244 1.56249999999691 21.08478614186168
132 12.50000000633909 1.562499999998002 21.65063509095109
133 11.54371534146192 1.562499999999093 22.17527082394478
134 10.56545655685807 1.562500000000184 22.65769466969543
135 9.567085827147691 1.562500000001275 23.09698830531785
136 8.550503604619403 1.562500000002367 23.49231551183048
137 7.517645006187719 1.562500000003458 23.84292376284714
138 6.47047614340793 1.562500000004548 24.14814565298107
139 5.410990361617983 1.562500000005642 24.40740017507964
140 4.34120445226081 1.562500000006733 24.62019382343833
141 3.263154813015683 1.562500000007823 24.78612153335597
142 2.178893573572601 1.562500000008917 24.9048674518666
143 1.09048468598711 1.562500000010008 24.97620553946551
144 15.21903572837925 3.124999999990295 19.83383350485518
145 14.33941091129806 3.124999999992423 20.47880110545894
146 13.43249021337564 3.124999999994549 21.0847861423247
147 12.5000000053316 3.124999999996678 21.65063509153276
148 11.5437153398982 3.124999999998805 22.1752708247588
149 10.56545655479749 3.125000000000932 22.6576946706563
150 9.567085824508812 3.125000000003058 23.09698830641091
151 8.550503601409813 3.125000000005185 23.49231551299867
152 7.517645003299904 3.125000000007314 23.84292376375766
153 6.470476141032075 3.12500000000944 24.14814565361768
154 5.410990359535929 3.125000000011564 24.40740017554122
155 4.341204450824938 3.125000000013696 24.62019382369151
156 3.263154811924892 3.125000000015821 24.78612153349958
157 2.178893572800373 3.125000000017948 24.90486745193415
158 1.090484685405213 3.125000000020076 24.97620553949091
159 15.21903572807203 4.687499999983467 19.83383350509092
160 14.33941091087427 4.687499999986788 20.47880110575568
161 13.43249021264885 4.687499999990114 21.08478614278771
162 12.50000000432411 4.687499999993432 21.65063509211444
163 11.5437153383345 4.687499999996756 22.17527082557282
164 10.56545655273692 4.687500000000079 22.65769467161716
165 9.567085821869931 4.687500000003401 23.09698830750398
166 8.550503598200228 4.687500000006726 23.49231551416686
167 7.517645000412097 4.687500000010044 23.84292376466819
168 6.470476138656227 4.687500000013366 24.14814565425429
169 5.410990357453883 4.687500000016692 24.40740017600279
170 4.341204449389067 4.687500000020012 24.62019382394469
171 3.263154810834099 4.687500000023338 24.78612153364318
172 2.17889357202814 4.68750000002666 24.90486745200172
173 1.090484684823314 4.68750000002998 24.97620553951631
174 15.21903572776482 6.249999999976553 19.83383350532664
175 14.33941091045048 6.249999999981077 20.47880110605242
176 13.43249021192206 6.249999999985601 21.08478614325073
177 12.50000000331661 6.249999999990127 21.65063509269612
178 11.54371533677078 6.249999999994651 22.17527082638682
179 10.56545655067634 6.24999999999917 22.65769467257802
180 9.567085819231055 6.250000000003697 23.09698830859704
181 8.550503594990641 6.250000000008216 23.49231551533506
182 7.517644997524281 6.25000000001274 23.84292376557871
183 6.470476136280368 6.250000000017263 24.1481456548909
184 5.410990355371834 6.250000000021791 24.40740017646437
185 4.341204447953192 6.250000000026313 24.62019382419789
186 3.263154809743315 6.250000000030838 24.78612153378679
187 2.178893571255912 6.250000000035362 24.90486745206927
188 1.090484684241413 6.250000000039879 24.97620553954172
189 15.21903572745761 7.812499999969651 19.83383350556238
190 14.3394109100267 7.812499999975375 20.47880110634916
191 13.43249021119527 7.812499999981096 21.08478614371376
192 12.50000000230912 7.812499999986823 21.65063509327779
193 11.54371533520708 7.812499999992545 22.17527082720085
194 10.56545654861576 7.812499999998268 22.65769467353888
195 9.567085816592167 7.812500000003993 23.09698830969009
196 8.550503591781048 7.812500000009718 23.49231551650325
197 7.517644994636468 7.81250000001544 23.84292376648924
198 6.470476133904508 7.812500000021167 24.14814565552751
199 5.410990353289783 7.812500000026891 24.40740017692595
200 4.341204446517321 7.812500000032616 24.62019382445106
201 3.263154808652518 7.812500000038336 24.78612153393039
202 2.178893570483681 7.812500000044063 24.90486745213684
203 1.090484683659516 7.812500000049787 24.97620553956713
204 15.21903572715039 9.374999999967493 19.83383350579813
205 14.33941090960291 9.37499999997396 20.47880110664589
206 13.43249021046846 9.37499999998043 21.08478614417677
207 12.50000000130163 9.374999999986906 21.65063509385947
208 11.54371533364336 9.374999999993367 22.17527082801486
209 10.56545654655519 9.374999999999838 22.65769467449975
210 9.567085813953295 9.37500000000631 23.09698831078315
211 8.550503588571463 9.375000000012779 23.49231551767144
212 7.517644991748654 9.375000000019249 23.84292376739977
213 6.470476131528661 9.375000000025718 24.14814565616411
214 5.410990351207731 9.375000000032188 24.40740017738753
215 4.341204445081448 9.375000000038652 24.62019382470424
216 3.26315480756173 9.375000000045125 24.786121534074
217 2.178893569711452 9.375000000051594 24.9048674522044
218 1.090484683077613 9.375000000058067 24.97620553959255
219 15.21903572684317 10.93749999996509 19.83383350603386
220 14.33941090917912 10.93749999997173 20.47880110694264
221 13.43249020974167 10.93749999997835 21.08478614463979
222 12.50000000029414 10.93749999998498 21.65063509444115
223 11.54371533207965 10.93749999999161 22.17527082882889
224 10.56545654449461 10.93749999999824 22.65769467546061
225 9.56708581131441 10.93750000000487 23.09698831187622
226 8.550503585361868 10.9375000000115 23.49231551883964
227 7.517644988860843 10.93750000001813 23.84292376831029
228 6.470476129152802 10.93750000002476 24.14814565680072
229 5.410990349125684 10.93750000003139 24.40740017784911
230 4.341204443645577 10.93750000003801 24.62019382495743
231 3.263154806470937 10.93750000004464 24.7861215342176
232 2.178893568939222 10.93750000005128 24.90486745227196
233 1.090484682495716 10.9375000000579 24.97620553961795
234 15.21903572653596 12.4999999999627 19.83383350626958
235 14.33941090875533 12.49999999996949 20.47880110723937
236 13.43249020901487 12.49999999997627 21.08478614510281
237 12.49999999928664 12.49999999998307 21.65063509502282
238 11.54371533051594 12.49999999998985 22.1752708296429
239 10.56545654243403 12.49999999999664 22.65769467642147
240 9.567085808675529 12.50000000000343 23.09698831296928
241 8.550503582152283 12.50000000001022 23.49231552000784
242 7.517644985973027 12.50000000001701 23.84292376922081
243 6.470476126776949 12.5000000000238 24.14814565743733
244 5.410990347043635 12.50000000003059 24.40740017831069
245 4.341204442209706 12.50000000003738 24.62019382521062
246 3.263154805380149 12.50000000004417 24.78612153436121
247 2.178893568166994 12.50000000005095 24.90486745233952
248 1.090484681913814 12.50000000005775 24.97620553964336
249 15.21903572622874 14.0624999999603 19.83383350650531
250 14.33941090833155 14.06249999996725 20.47880110753611
251 13.43249020828808 14.0624999999742 21.08478614556583
252 12.49999999827915 14.06249999998115 21.65063509560449
253 11.54371532895222 14.0624999999881 22.17527083045692
254 10.56545654037346 14.06249999999505 22.65769467738233
255 9.567085806036644 14.06250000000199 23.09698831406234
256 8.550503578942696 14.06250000000894 23.49231552117603
257 7.517644983085217 14.0625000000159 23.84292377013133
258 6.470476124401099 14.06250000002284 24.14814565807394
259 5.410990344961583 14.06250000002979 24.40740017877227
260 4.341204440773835 14.06250000003674 24.62019382546379
261 3.263154804289354 14.06250000004369 24.78612153450482
262 2.178893567394764 14.06250000005063 24.90486745240708
263 1.090484681331916 14.06250000005758 24.97620553966876
264 15.21903572592153 15.62499999995791 19.83383350674107
265 14.33941090790776 15.62499999996501 20.47880110783285
266 13.43249020756129 15.62499999997213 21.08478614602885
267 12.49999999727166 15.62499999997923 21.65063509618619
268 11.54371532738851 15.62499999998634 22.17527083127094
269 10.56545653831288 15.62499999999345 22.6576946783432
270 9.567085803397767 15.62500000000055 23.09698831515539
271 8.550503575733106 15.62500000000767 23.49231552234422
272 7.517644980197407 15.62500000001477 23.84292377104186
273 6.47047612202524 15.62500000002188 24.14814565871055
274 5.410990342879533 15.62500000002899 24.40740017923384
275 4.341204439337964 15.6250000000361 24.62019382571698
276 3.263154803198565 15.62500000004321 24.78612153464842
277 2.178893566622532 15.62500000005031 24.90486745247465
278 1.090484680750018 15.62500000005743 24.97620553969417
279 15.21903572561431 17.1874999999634 19.8338335069768
280 14.33941090748397 17.18749999996955 20.47880110812959
281 13.43249020683449 17.18749999997569 21.08478614649187
282 12.49999999626416 17.18749999998183 21.65063509676785
283 11.5437153258248 17.18749999998796 22.17527083208495
284 10.5654565362523 17.18749999999411 22.65769467930406
285 9.567085800758884 17.18750000000025 23.09698831624846
286 8.550503572523516 17.18750000000639 23.49231552351242
287 7.517644977309588 17.18750000001253 23.84292377195238
288 6.470476119649386 17.18750000001867 24.14814565934716
289 5.410990340797484 17.18750000002481 24.40740017969543
290 4.341204437902094 17.18750000003095 24.62019382597016
291 3.263154802107777 17.18750000003709 24.78612153479202
292 2.178893565850304 17.18750000004323 24.90486745254221
293 1.090484680168118 17.18750000004936 24.97620553971957
294 15.2190357253071 18.74999999997072 19.83383350721252
295 14.33941090706019 18.74999999997564 20.47880110842632
296 13.4324902061077 18.74999999998055 21.08478614695489
297 12.49999999525667 18.74999999998547 21.65063509734953
298 11.54371532426109 18.74999999999038 22.17527083289897
299 10.56545653419172 18.74999999999528 22.65769468026492
300 9.567085798120004 18.7500000000002 23.09698831734152
301 8.550503569313927 18.75000000000511 23.49231552468062
302 7.517644974421776 18.75000000001002 23.84292377286291
303 6.470476117273534 18.75000000001494 24.14814565998376
304 5.410990338715432 18.75000000001985 24.40740018015701
305 4.341204436466221 18.75000000002476 24.62019382622334
306 3.263154801016983 18.75000000002968 24.78612153493563
307 2.178893565078074 18.75000000003458 24.90486745260977
308 1.090484679586217 18.7500000000395 24.97620553974498
309 15.21903572499988 20.31249999997805 19.83383350744826
310 14.3394109066364 20.31249999998174 20.47880110872307
311 13.4324902053809 20.31249999998541 21.08478614741791
312 12.49999999424918 20.31249999998909 21.65063509793121
313 11.54371532269738 20.31249999999279 22.17527083371299
314 10.56545653213115 20.31249999999647 22.65769468122578
315 9.567085795481123 20.31250000000015 23.09698831843458
316 8.550503566104341 20.31250000000383 23.4923155258488
317 7.517644971533967 20.31250000000752 23.84292377377342
318 6.470476114897678 20.3125000000112 24.14814566062037
319 5.410990336633384 20.31250000001489 24.40740018061859
320 4.341204435030348 20.31250000001857 24.62019382647653
321 3.263154799926194 20.31250000002226 24.78612153507924
322 2.178893564305842 20.31250000002594 24.90486745267733
323 1.090484679004321 20.31250000002962 24.97620553977038
324 15.21903572469266 21.87499999998536 19.833833507684
325 14.33941090621261 21.87499999998782 20.4788011090198
326 13.43249020465411 21.87499999999027 21.08478614788093
327 12.49999999324169 21.87499999999272 21.65063509851288
328 11.54371532113366 21.87499999999519 22.17527083452701
329 10.56545653007057 21.87499999999764 22.65769468218664
330 9.567085792842246 21.8750000000001 23.09698831952764
331 8.550503562894752 21.87500000000255 23.492315527017
332 7.517644968646153 21.87500000000502 23.84292377468395
333 6.470476112521827 21.87500000000747 24.14814566125699
334 5.410990334551334 21.87500000000993 24.40740018108017
335 4.341204433594475 21.87500000001238 24.62019382672971
336 3.263154798835404 21.87500000001483 24.78612153522284
337 2.178893563533616 21.8750000000173 24.90486745274488
338 1.09048467842242 21.87500000001975 24.97620553979579
339 15.21903572438545 23.43749999999268 19.83383350791972
340 14.33941090578883 23.43749999999391 20.47880110931654
341 13.43249020392731 23.43749999999514 21.08478614834394
342 12.4999999922342 23.43749999999637 21.65063509909456
343 11.54371531956995 23.43749999999759 22.17527083534102
344 10.56545652801 23.43749999999883 22.65769468314751
345 9.567085790203361 23.43750000000006 23.09698832062071
346 8.550503559685165 23.43750000000128 23.4923155281852
347 7.517644965758335 23.4375000000025 23.84292377559448
348 6.470476110145971 23.43750000000372 24.14814566189359
349 5.410990332469282 23.43750000000496 24.40740018154175
350 4.341204432158606 23.43750000000619 24.6201938269829
351 3.26315479774461 23.43750000000743 24.78612153536645
352 2.178893562761387 23.43750000000865 24.90486745281246
353 1.09048467784052 23.43750000000987 24.97620553982119
354 15.64808682162858 1.562499966919595 19.49711206365634
355 15.21903572884007 0.7812499999973638 19.83383350450158
356 15.64808681407754 0.7812499834598632 19.49711206971671
357 14.7827412123024 1.562499999995273 20.16111510433131
358 14.33941091193374 0.7812499999979092 20.47880110501383
359 14.78274121268284 0.7812499999976362 20.16111510405237
360 13.88925582966258 1.562499999996364 20.78674030477564
361 13.43249021446583 0.7812499999984549 21.08478614163016
362 13.88925582963728 0.7812499999981819 20.78674030479254
363 12.96933145989493 1.562499999997456 21.37279676325444
364 12.50000000684284 0.7812499999990008 21.65063509066025
365 12.96933146058809 0.781249999998728 21.37279676283383
366 12.02471925367893 1.56249994096412 21.91816887584825
367 11.54371534224378 0.781249999999547 22.17527082353777
368 12.02471924302759 0.7812499704820591 21.91816888169178
369 11.05721739857076 1.562499988314654 22.4218184677502
370 10.56545655788836 0.781250000000092 22.657694669215
371 11.05721733425627 0.7812499941573274 22.4218184994666
372 10.06866726213165 1.562500000000729 22.8827869710942
373 9.567085828467134 0.7812500000006386 23.09698830477132
374 10.06866726335528 0.7812500000003636 22.88278697055578
375 9.060950976833055 1.56250000000182 23.30019672439329
376 8.550503606224199 0.7812500000011834 23.49231551124637
377 9.060950978150673 0.78125000000091 23.3001967238809
378 8.035986652657312 1.562500000080523 23.67325323056198
379 7.517645007631627 0.7812500000017299 23.84292376239188
380 8.035986654650515 0.7812500000402622 23.67325322988539
381 6.995725425524623 1.562500000003588 24.00124633786063
382 6.470476144595859 0.7812500000022764 24.14814565266278
383 6.995725398446798 0.7812500000017941 24.00124634575309
384 5.942147322936389 1.562500000130026 24.28355174171438
385 5.410990362659007 0.7812500000028209 24.40740017484884
386 5.94214732394158 0.7812500000650144 24.28355174146843
387 4.877258062288321 1.562500000006203 24.51963200771666
388 4.341204452978747 0.7812500000033676 24.62019382331174
389 4.877258063040879 0.7812500000031015 24.51963200756698
390 3.803084663806307 1.56250000000728 24.70903776029979
391 3.263154813561077 0.7812500000039145 24.78612153328417
392 3.803084664515576 0.7812500000036383 24.70903776019063
393 2.721671985849633 1.562499946762681 24.85140844301266
394 2.178893573958716 0.7812500000044584 24.90486745183281
395 2.721671932005822 0.7812499733813391 24.85140844890953
396 1.635078354362237 1.562499894123647 24.94647307286334
397 1.09048468627806 0.7812500000050056 24.97620553945281
398 1.635078294535214 0.7812499470618237 24.94647307678461
399 0.5453721543183665 1.562500105674036 24.99405067637684
400 0.5453721407444456 0.7812500528365476 24.99405067667303
401 15.64808680648506 3.124999999806798 19.4971120758103
402 15.21903572853286 2.343749999992512 19.83383350473731
403 15.64808681405682 2.343749983363215 19.49711206973333
404 14.78274121193765 3.124999999991359 20.16111510459876
405 14.33941091150995 2.343749999994121 20.47880110531056
406 14.78274121212002 2.343749999993317 20.16111510446503
407 13.88925582908923 3.124999999993486 20.78674030515873
408 13.43249021373904 2.34374999999573 21.08478614209319
409 13.88925582937591 2.343749999994925 20.78674030496719
410 12.96933145902928 3.124999999995615 21.37279676377972
411 12.50000000583535 2.34374999999734 21.65063509124192
412 12.9693314594621 2.343749999996536 21.37279676351709
413 12.02471925248836 3.124999953670993 21.91816887650142
414 11.54371534068007 2.343749999998949 22.17527082435178
415 12.02471925308365 2.343749947317555 21.91816887617485
416 11.05721728592118 3.124999975978819 22.42181852330283
417 10.56545655582778 2.343750000000558 22.65769467017587
418 11.05721734224598 2.343749982146737 22.42181849552652
419 10.06866725978392 3.125000000001997 22.88278697212721
420 9.567085825828256 2.343750000002167 23.09698830586439
421 10.06866726095779 2.343750000001364 22.88278697161071
422 9.060950973910341 3.125000000004121 23.30019672552988
423 8.55050360301461 2.343750000003774 23.49231551241457
424 9.0609509753717 2.343750000002971 23.30019672496158
425 8.035986667132528 3.125000000006249 23.6732532256483
426 7.517645004743812 2.343750000005386 23.84292376330241
427 8.03598665989492 2.343750000043385 23.67325322810515
428 6.99572536544895 3.125000000037641 24.00124635537109
429 6.470476142220003 2.343750000006995 24.14814565329938
430 6.995725395486786 2.343750000020614 24.00124634661586
431 5.942147320614256 3.12500000014719 24.28355174228261
432 5.410990360576957 2.343750000008604 24.40740017531042
433 5.942147321775323 2.343750000138612 24.2835517419985
434 4.877258060527513 3.125000000012633 24.5196320080669
435 4.341204451542874 2.343750000010214 24.62019382356492
436 4.877258061407919 2.34375000000942 24.51963200789179
437 3.803084678450886 3.125000052240857 24.70903775804577
438 3.263154812470286 2.343750000011823 24.78612153342777
439 3.803084671128597 2.343750026124066 24.70903775917279
440 2.721671912578809 3.124999998579568 24.85140845103712
441 2.178893573186487 2.343750000013433 24.90486745190038
442 2.721671949214222 2.343749972671123 24.8514084470249
443 1.635078279969393 3.124999947074436 24.94647307773931
444 1.090484685696161 2.343750000015042 24.97620553947822
445 1.635078317165815 2.343749920599041 24.94647307530133
446 0.5453721265003308 3.125000000021305 24.99405067698384
447 0.5453721404093488 2.343750052847675 24.99405067668035
448 15.64808686622247 4.687499958771693 19.49711202786596
449 15.21903572822564 3.906249999986881 19.83383350497304
450 15.64808683635377 3.906249979289256 19.49711205183813
451 14.78274121170802 4.687499999985124 20.16111510476713
452 14.33941091108617 3.906249999989606 20.4788011056073
453 14.78274121182283 3.906249999988243 20.16111510468295
454 13.88925582851589 4.687499999988454 20.78674030554183
455 13.43249021301225 3.906249999992331 21.0847861425562
456 13.88925582880256 3.90624999999097 20.78674030535029
457 12.96933148130729 4.687499999991218 21.3727967502611
458 12.50000000482785 3.906249999995056 21.65063509182361
459 12.96933147016829 3.906249999993415 21.37279675702042
460 12.02471922885954 4.687499999995095 21.91816888946463
461 11.54371533911635 3.90624999999778 22.1752708251658
462 12.02471924067395 3.906249976833043 21.91816888298303
463 11.05721726380754 4.687499999998418 22.42181853420806
464 10.5654565537672 3.906250000000505 22.65769467113672
465 11.05721727486436 3.906249987988619 22.42181852875545
466 10.06866725757556 4.687500000001743 22.88278697309892
467 9.567085823189373 3.906250000003229 23.09698830695745
468 10.06866725867974 3.90625000000187 22.88278697261307
469 9.060950970987621 4.687500000005063 23.30019672666646
470 8.550503599805021 3.906250000005955 23.49231551358276
471 9.060950972448978 3.906250000004591 23.30019672609818
472 8.035986664303689 4.68750000000783 23.67325322660857
473 7.517645001856 3.906250000008679 23.84292376421293
474 8.035986665718106 3.906250000007038 23.67325322612845
475 6.995725362732808 4.687500000011706 24.00124635616277
476 6.470476139844151 3.906250000011402 24.14814565393599
477 6.995725364090881 3.906250000024674 24.00124635576694
478 5.942147392254567 4.687500000015585 24.28355172475233
479 5.410990358494908 3.906250000014129 24.407400175772
480 5.942147356434412 3.906250000081389 24.28355173351747
481 4.8772580587667 4.687500000018352 24.51963200841715
482 4.341204450107004 3.906250000016854 24.62019382381811
483 4.877258059647107 3.906250000015494 24.51963200824204
484 3.80308471192828 4.687500000022229 24.70903775289311
485 3.263154811379495 3.906250000019579 24.78612153357138
486 3.803084695189581 3.906250026131542 24.70903775546945
487 2.721671875637304 4.687500000024995 24.85140845508288
488 2.178893572414256 3.906250000022304 24.90486745196793
489 2.721671894108055 3.906249999302283 24.85140845306
490 1.635078233532481 4.687499999740748 24.94647308078295
491 1.090484685114264 3.906250000025029 24.97620553950361
492 1.635078256750937 3.90624997340759 24.94647307926113
493 0.5453721536435642 4.687500000067665 24.99405067639157
494 0.5453721400719463 3.906250000044146 24.99405067668771
495 15.64808680585326 6.249999999974291 19.49711207631738
496 15.21903572791843 5.468749999980011 19.83383350520879
497 15.64808683603787 5.468749979372979 19.49711205209168
498 14.78274124615665 6.250000085204263 20.16111507950834
499 14.33941091066237 5.468749999983934 20.47880110590405
500 14.78274122893234 5.468750042594696 20.16111509213774
501 13.8892558285343 6.249999956048041 20.78674030552953
502 13.43249021228545 5.468749999987857 21.08478614301923
503 13.8892558285251 5.468749978018249 20.78674030553568
504 12.96933145748529 6.250000000031859 21.37279676471665
505 12.50000000382036 5.46874999999178 21.65063509240527
506 12.96933146939629 5.468750000011537 21.37279675748888
507 12.02471922757678 6.249999999992389 21.91816889016838
508 11.54371533755264 5.468749999995704 22.17527082597982
509 12.02471922821817 5.468749999993742 21.91816888981651
510 11.05721726199743 6.249999999996912 22.42181853510071
511 10.56545655170663 5.468749999999626 22.65769467209759
512 11.05721726290249 5.468749999997664 22.42181853465439
513 10.06866725508847 6.250000000001438 22.88278697419327
514 9.567085820550492 5.468750000003548 23.09698830805051
515 10.06866725633202 5.468750000001592 22.8827869736461
516 9.060950968087957 6.250000000063206 23.30019672779407
517 8.550503596595432 5.46875000000747 23.49231551475096
518 9.060950969537789 5.468750000034133 23.30019672723027
519 8.035986694552957 6.249999899936139 23.67325321634033
520 7.517644998968189 5.468750000011394 23.84292376512345
521 8.035986679428321 5.468749949971984 23.67325322147445
522 6.995725360098614 6.250000000015003 24.00124635693057
523 6.470476137468297 5.468750000015314 24.1481456545726
524 6.99572536141571 5.468750000013356 24.00124635654667
525 5.942147383798149 6.249999948692688 24.28355172682161
526 5.410990356412857 5.46875000001924 24.40740017623359
527 5.942147388026359 5.468749974354136 24.28355172578698
528 4.877258057005886 6.250000000024052 24.5196320087674
529 4.341204448671131 5.468750000023164 24.62019382407129
530 4.877258057886292 5.468750000021203 24.51963200859228
531 3.803084660013631 6.250000000028577 24.70903776088355
532 3.263154810288706 5.468750000027085 24.78612153371498
533 3.803084685970955 5.468750000025402 24.70903775688833
534 2.72167187470789 6.249999999949083 24.85140845518466
535 2.178893571642028 5.468750000031008 24.9048674520355
536 2.721671875172599 5.46874999998704 24.85140845513377
537 1.635078232091891 6.25000000003762 24.94647308087737
538 1.090484684532363 5.468750000034934 24.97620553952903
539 1.635078232812185 5.468749999889184 24.94647308083016
540 0.545372301314359 6.249999788730039 24.99405067316938
541 0.5453722274789594 5.468749894398754 24.99405067478047
542 15.64808680570225 7.812499999966787 19.49711207643857
543 15.21903572761121 7.031249999973105 19.83383350544451
544 15.64808680577776 7.031249999970552 19.49711207637798
545 14.7827412108434 7.812499999972513 20.16111510540108
546 14.33941091023859 7.031249999978225 20.47880110620078
547 14.78274122850003 7.031250042588386 20.16111509245472
548 13.88925586197033 7.812499970722881 20.78674028318828
549 13.43249021155866 7.03124999998335 21.08478614348225
550 13.88925584525232 7.031249963385459 20.78674029435892
551 12.96933145643235 7.812499999983959 21.37279676535558
552 12.50000000281286 7.031249999988472 21.65063509298695
553 12.96933145695882 7.031250000007912 21.37279676503612
554 12.02471922629402 7.812499999989683 21.91816889087212
555 11.54371533598893 7.031249999993597 22.17527082679384
556 12.0247192269354 7.031249999991035 21.91816889052025
557 11.05721728088504 7.81249998831002 22.42181852578637
558 10.56545654964605 7.031249999998717 22.65769467305845
559 11.05721727144124 7.031249994153464 22.42181853044355
560 10.06866735075157 7.812500037725497 22.88278693210049
561 9.567085817911613 7.031250000003844 23.09698830914357
562 10.06866730292002 7.031250018863465 22.88278695314688
563 9.060951006354507 7.812500000005747 23.30019671291302
564 8.550503593385844 7.031250000008966 23.49231551591916
565 9.060950987221233 7.031250000034476 23.30019672035356
566 8.035986647415983 7.812500058541419 23.67325323234117
567 7.517644996080373 7.03125000001409 23.84292376603398
568 8.035986670984469 7.03124997923878 23.67325322434075
569 6.995725357464416 7.812500000018302 24.00124635769837
570 6.470476135092436 7.031250000019215 24.14814565520921
571 6.995725358781513 7.031250000016653 24.00124635731447
572 5.942147318504779 7.812500051351893 24.28355174279879
573 5.410990354330808 7.031250000024341 24.40740017669516
574 5.942147351151464 7.03125000002229 24.28355173481021
575 4.877258055584498 7.812500000432053 24.51963200905013
576 4.341204447235256 7.031250000029463 24.62019382432447
577 4.877258056295195 7.031250000228052 24.51963200890878
578 3.803084658810251 7.812500000026977 24.70903776106876
579 3.263154809197915 7.031250000034589 24.78612153385859
580 3.803084659411941 7.031250000027775 24.70903776097615
581 2.721671875029726 7.812500051846905 24.85140845514942
582 2.178893570869798 7.031250000039711 24.90486745210306
583 2.721671874868809 7.031250025897999 24.85140845516705
584 1.635078231414527 7.812500000046928 24.94647308092176
585 1.090484683950464 7.031250000044835 24.97620553955443
586 1.63507823175321 7.031250000042271 24.94647308089957
587 0.5453721534047749 7.812500000122473 24.99405067639678
588 0.5453722273595669 7.031249894426306 24.99405067478308
589 15.64808683436103 9.374999983426063 19.49711205343748
590 15.219035727304 8.593749999968569 19.83383350568025
591 15.64808682003164 8.593749991696422 19.49711206493802
592 14.78274122789007 9.374999957357723 20.16111509290195
593 14.3394109098148 8.593749999974669 20.47880110649753
594 14.78274121936674 8.593749978665119 20.16111509915152
595 13.88925582679587 9.374999999977195 20.7867403066911
596 13.43249021083187 8.593749999980762 21.08478614394527
597 13.88925584438311 8.593749985350041 20.7867402949397
598 12.96933145556671 9.374999999983668 21.37279676588087
599 12.50000000180538 8.593749999986862 21.65063509356863
600 12.96933145599953 8.593749999983814 21.37279676561823
601 12.02471922501126 9.374999999990136 21.91816889157587
602 11.54371533442522 8.593749999992955 22.17527082760785
603 12.02471922565264 8.593749999989909 21.918168891224
604 11.05721725846918 9.374999999965203 22.42181853684065
605 10.56545654758547 8.593749999999053 22.65769467401931
606 11.05721726967711 8.593749994137612 22.42181853131352
607 10.06866725039302 9.375000000003073 22.88278697625932
608 9.567085815272732 8.593750000005151 23.09698831023663
609 10.06866730057229 8.593750018864284 22.88278695417991
610 9.060950962981428 9.374999999926391 23.30019672977989
611 8.55050359017625 8.593750000011248 23.49231551708735
612 9.060950984667969 8.593749999966068 23.30019672134646
613 8.035986637370995 9.375000000016016 23.67325323575098
614 7.517644993192559 8.593750000017344 23.84292376694451
615 8.035986642393487 8.593750029278716 23.67325323404609
616 6.995725354830222 9.375000000022482 24.00124635846617
617 6.470476132716585 8.593750000023441 24.14814565584582
618 6.99572535614732 8.593750000020393 24.00124635808227
619 5.942147311518856 9.375000000028951 24.28355174450824
620 5.410990352248755 8.593750000029537 24.40740017715674
621 5.942147315011818 8.59375002569042 24.28355174365351
622 4.877258149879308 9.375000002613703 24.51963199029373
623 4.341204445799384 8.593750000035632 24.62019382457766
624 4.877258102731901 8.593750001522876 24.51963199967194
625 3.80308467514776 9.375000001046676 24.70903775855417
626 3.263154808107124 8.593750000041737 24.7861215340022
627 3.803084666979004 8.593750000536824 24.70903775981147
628 2.721671873167573 9.375000000050589 24.85140845535336
629 2.178893570097566 8.593750000047828 24.90486745217062
630 2.721671874098649 8.593750025948747 24.85140845525139
631 1.635078230848098 9.375000000178947 24.94647308095889
632 1.090484683368564 8.593750000053927 24.97620553957984
633 1.635078231131311 8.593750000112937 24.94647308094033
634 0.545372125427119 9.375000000061187 24.99405067700725
635 0.5453721394159472 8.593750000091536 24.99405067670202
636 15.64808680540026 10.93749999996178 19.49711207668095
637 15.21903572699678 10.15624999996629 19.83383350591598
638 15.64808681988064 10.15624999169383 19.49711206505922
639 14.78274121011391 10.93749999996841 20.16111510593598
640 14.33941090939102 10.15624999997284 20.47880110679426
641 14.78274121900199 10.15624997866306 20.16111509941897
642 13.8892558609631 10.93750004391038 20.7867402838613
643 13.43249021010507 10.15624999997939 21.08478614440829
644 13.88925584387949 10.15625002194379 20.7867402952762
645 12.9693314549964 10.9375000000852 21.37279676622694
646 12.50000000079788 10.15624999998594 21.65063509415031
647 12.96933145528156 10.15625000003444 21.37279676605391
648 12.0247192237285 10.9374999999883 21.91816889227962
649 11.54371533286151 10.15624999999249 22.17527082842187
650 12.02471922436988 10.15624999998922 21.91816889192776
651 11.0572172565671 10.93749999999493 22.42181853777866
652 10.5654565455249 10.15624999999904 22.65769467498018
653 11.05721725751814 10.15624999998007 22.42181853730966
654 10.06866724804529 10.93750000000156 22.88278697729234
655 9.567085812633849 10.15625000000559 23.09698831132969
656 10.06866724921915 10.15625000000231 22.88278697677583
657 9.060950959296743 10.93750000000819 23.30019673121279
658 8.550503586966665 10.15625000001214 23.49231551825554
659 9.060950961139087 10.15624999996728 23.30019673049635
660 8.035986641755997 10.93750005005114 23.67325323426248
661 7.517644990304748 10.15625000001869 23.84292376785503
662 8.035986639563497 10.15625002503358 23.67325323500674
663 6.995725352196028 10.93750000002144 24.00124635923397
664 6.47047613034073 10.15625000002524 24.14814565648242
665 6.995725353513127 10.15625000002196 24.00124635885007
666 5.942147312238529 10.93750000317016 24.28355174433213
667 5.410990350166707 10.15625000003179 24.40740017761832
668 5.942147311878694 10.15625000159956 24.28355174442019
669 4.877258150010274 10.93750005185996 24.51963199026768
670 4.341204444363513 10.15625000003833 24.62019382483084
671 4.877258149944788 10.15625002723683 24.51963199028071
672 3.803084656220949 10.93750000004133 24.70903776146729
673 3.263154807016333 10.15625000004488 24.78612153414581
674 3.803084665684355 10.156250000544 24.70903776001074
675 2.72167190725861 10.93749994680347 24.85140845161978
676 2.178893569325337 10.15625000005143 24.90486745223818
677 2.721671890213089 10.15624997342703 24.85140845348658
678 1.635078230094373 10.9375000000554 24.94647308100829
679 1.090484682786664 10.15625000005798 24.97620553960524
680 1.635078230471234 10.15625000011717 24.94647308098359
681 0.5453721250445946 10.93750000006122 24.99405067701561
682 0.5453721252358568 10.1562500000612 24.99405067701144
683 15.64808680524926 12.4999999999593 19.49711207680215
684 15.21903572668956 11.7187499999639 19.83383350615172
685 15.64808680532476 11.71874999996054 19.49711207674154
686 14.78274120974915 12.49999999996609 20.16111510620342
687 14.33941090896723 11.71874999997061 20.478801107091
688 14.78274120993153 11.71874999996726 20.1611151060697
689 13.8892558256492 12.49999999997288 20.78674030745729
690 13.43249020937828 11.71874999997732 21.0847861448713
691 13.88925584330615 11.71875002194163 20.7867402956593
692 12.9693314609316 12.50000004515373 21.37279676262537
693 12.49999999979039 11.71874999998403 21.65063509473198
694 12.969331457964 11.71875002261947 21.37279676442617
695 12.02471922267443 12.50000000002352 21.91816889285791
696 11.5437153312978 11.71874999999074 22.17527082923589
697 12.02471922320147 11.71875000000591 21.91816889256876
698 11.05721725475699 12.49999999999325 22.4218185386713
699 10.56545654346432 11.71874999999744 22.65769467594103
700 11.05721725566205 11.71874999999409 22.42181853822498
701 10.06866724569756 12.50000000000004 22.88278697832537
702 9.567085809994969 11.71875000000415 23.09698831242275
703 10.06866724687142 11.7187500000008 22.88278697780885
704 9.060950956374018 12.50000000000683 23.30019673234938
705 8.550503583757081 11.71875000001086 23.49231551942373
706 9.060950957835383 11.71875000000751 23.30019673178109
707 8.035986631269424 12.50000000001362 23.67325323782219
708 7.517644987416933 11.71875000001757 23.84292376876554
709 8.03598663651271 11.71875002503238 23.67325323604234
710 6.995725349561832 12.5000000000204 24.00124636000176
711 6.470476127964878 11.71875000002428 24.14814565711903
712 6.995725350878927 11.71875000002092 24.00124635961787
713 5.942147307058195 12.50000000002719 24.28355174559976
714 5.410990348084658 11.71875000003099 24.40740017807991
715 5.942147309648363 11.71875000159867 24.28355174496595
716 4.877258049962628 12.50000000003398 24.5196320101684
717 4.341204442927641 11.7187500000377 24.62019382508402
718 4.877258099986447 11.71875002594697 24.51963200021804
719 3.803084672109955 12.4999999478141 24.70903775902174
720 3.263154805925544 11.71875000004441 24.7861215342894
721 3.803084664165452 11.71874997392771 24.70903776024452
722 2.721671870976717 12.50000000004756 24.85140845559329
723 2.178893568553107 11.71875000005111 24.90486745230573
724 2.721671889117663 11.71874997342551 24.85140845360654
725 1.635078229382437 12.50000000005435 24.94647308105495
726 1.090484682204766 11.71875000005782 24.97620553963065
727 1.635078229738405 11.71875000005487 24.94647308103163
728 0.5453721901198694 12.50000000006003 24.99405067559565
729 0.5453721575822308 11.71875000006055 24.99405067630563
730 15.64808680509825 14.06249999995683 19.49711207692333
731 15.21903572638235 13.2812499999615 19.83383350638746
732 15.64808680517376 13.28124999995779 19.49711207686274
733 14.78274123327596 14.06249998434121 20.16111508895285
734 14.33941090854344 13.28124999996837 20.47880110738773
735 14.78274122151256 13.28124999215365 20.16111509757814
736 13.88925583439588 14.06249999997073 20.78674030161295
737 13.43249020865148 13.28124999997524 21.08478614533432
738 13.88925583002254 13.28124999997181 20.78674030453512
739 12.96933146012981 14.0624999999799 21.37279676311191
740 12.4999999987829 13.28124999998211 21.65063509531366
741 12.9693314605307 13.28125002256681 21.37279676286865
742 12.02471922144494 14.06249999998273 21.91816889353243
743 11.54371532973408 13.28124999998898 22.17527083004991
744 12.02471922205969 13.28125000000313 21.91816889319517
745 11.05721725912755 14.06249999999157 22.42181853651598
746 10.56545654140375 13.28124999999585 22.6576946769019
747 11.05721725694227 13.28124999999241 22.42181853759364
748 10.06866728022905 14.06249999999963 22.88278696313115
749 9.567085807356086 13.28125000000271 23.09698831351581
750 10.06866726296331 13.28124999999984 22.88278697072826
751 9.060950953451306 14.06250000000547 23.30019673348596
752 8.550503580547485 13.28125000000958 23.49231552059193
753 9.060950954912663 13.28125000000615 23.30019673291768
754 8.035986647326146 14.06250000001242 23.67325323237166
755 7.517644984529123 13.28125000001645 23.84292376967608
756 8.035986639297784 13.28125000001302 23.67325323509694
757 6.995725346927633 14.06250000001937 24.00124636076956
758 6.470476125589023 13.28125000002332 24.14814565775564
759 6.995725348244735 13.28125000001989 24.00124636038567
760 5.942147338649194 14.06250000630494 24.28355173786948
761 5.41099034600261 13.28125000003019 24.40740017854148
762 5.942147322853694 13.28125000316606 24.28355174173462
763 4.877258146743895 14.06250000518761 24.5196319909174
764 4.341204441491771 13.28125000003706 24.6201938253372
765 4.877258098353261 13.28125000261079 24.5196320005429
766 3.803084709052534 14.06250000004021 24.70903775333574
767 3.263154804834753 13.28125000004393 24.78612153443301
768 3.803084690581245 13.28124997392716 24.70903775617874
769 2.721671870044598 14.06250000004716 24.85140845569537
770 2.178893567780879 13.28125000005079 24.9048674523733
771 2.721671870510659 13.28125000004736 24.85140845564434
772 1.635078229436953 14.06249999926199 24.94647308105138
773 1.090484681622864 13.28125000005766 24.97620553965606
774 1.635078229409697 13.28124999965817 24.94647308105317
775 0.545372124604623 14.06249999994473 24.99405067702521
776 0.5453721573622439 13.28125000000238 24.99405067631044
777 15.64808680509767 15.62500000005133 19.49711207692381
778 15.21903572607514 14.8437499999591 19.83383350662318
779 15.64808680509796 14.84375000000398 19.49711207692358
780 14.78274120901966 15.62499999996146 20.16111510673831
781 14.33941090811965 14.84374999996614 20.47880110768447
782 14.78274122114781 14.84374999215133 20.16111509784559
783 13.88925582450252 15.62499999996857 20.78674030822348
784 13.43249020792469 14.84374999997317 21.08478614579734
785 13.8892558294492 14.84374999996965 20.78674030491822
786 12.96933145210414 15.62499999997568 21.37279676798201
787 12.4999999977754 14.84374999998019 21.65063509589534
788 12.96933145611697 14.84374999997779 21.37279676554697
789 12.02471924296939 15.62500004630952 21.91816888172371
790 11.54371532817037 14.84374999998722 22.17527083086392
791 12.02471923220716 14.84375002314613 21.91816888762807
792 11.05721725785695 15.62500001167638 22.42181853714257
793 10.56545653934317 14.84374999999425 22.65769467786277
794 11.05721725849225 14.84375000583398 22.42181853682929
795 10.0686673330652 15.6249999516314 22.88278693988268
796 9.567085804717207 14.84375000000127 23.09698831460886
797 10.06866730664713 14.84374997581551 22.88278695150692
798 9.060950950528584 15.62500000000412 23.30019673462254
799 8.550503577337899 14.84375000000831 23.49231552176013
800 9.060950951989945 14.84375000000479 23.30019673405425
801 8.035986625167855 15.62500000001122 23.6732532398934
802 7.517644981641311 14.84375000001533 23.84292377058659
803 8.035986636246998 14.84375000001182 23.67325323613253
804 6.995725344469401 15.62499999999437 24.00124636148607
805 6.470476123213167 14.84375000002236 24.14814565839224
806 6.995725345698514 14.84375000000687 24.00124636112782
807 5.942147375643932 15.62499994869918 24.28355172881693
808 5.410990343920558 14.84375000002939 24.40740017900306
809 5.942147357146563 14.84374997750206 24.28355173334321
810 4.877258068845831 15.62500000260971 24.51963200641229
811 4.341204440055898 14.84375000003642 24.62019382559039
812 4.877258107794862 14.84375000389866 24.51963199866486
813 3.803084652428273 15.62500000003965 24.70903776205104
814 3.263154803743962 14.84375000004345 24.78612153457662
815 3.803084680740405 14.84375000003993 24.70903775769339
816 2.721671979565739 15.62499999933101 24.85140844370086
817 2.178893567008652 14.84375000005047 24.90486745244086
818 2.72167192480517 14.84374999968909 24.85140844969813
819 1.635078228027709 15.62500000005387 24.94647308114375
820 1.090484681040967 14.8437500000575 24.97620553968147
821 1.635078228732333 14.84374999965792 24.94647308109757
822 0.5453721241711242 15.62500000006098 24.99405067703466
823 0.545372124387875 14.84375000000285 24.99405067702994
824 15.6480868066498 17.18749994220929 19.49711207567809
825 15.21903572576791 16.40624999996066 19.83383350685893
826 15.64808680587374 16.40624997113025 19.49711207630095
827 14.78274120865491 17.18749999996648 20.16111510700576
828 14.33941090769587 16.40624999996729 20.47880110798123
829 14.78274120883728 16.40624999996397 20.16111510687203
830 13.88925582392917 17.18749999997262 20.78674030860658
831 13.43249020719789 16.40624999997391 21.08478614626036
832 13.88925582421584 16.40624999997059 20.78674030841503
833 12.96933146094418 17.18750001368489 21.37279676261774
834 12.49999999676791 16.40624999998053 21.65063509647702
835 12.96933145652416 16.40625000683028 21.37279676529988
836 12.02471922898063 17.18750004631158 21.9181688893982
837 11.54371532660666 16.40624999998715 22.17527083167794
838 12.02471923597501 16.40625004631055 21.91816888556096
839 11.05721735942348 17.18749998830342 22.4218184870555
840 10.56545653728259 16.40624999999378 22.65769467882363
841 11.05721730864021 16.4062499999899 22.42181851209904
842 10.06866728947151 17.18749999999717 22.88278695906437
843 9.567085802078328 16.4062500000004 23.09698831570192
844 10.06866731126835 16.40624997581429 22.88278694947353
845 9.060950977629378 17.18749991108344 23.30019672408362
846 8.550503574128314 16.40625000000703 23.49231552292833
847 9.060950964078982 16.40624995554378 23.30019672935308
848 8.035986622117068 17.18750000000946 23.673253240929
849 7.517644978753497 16.40625000001365 23.84292377149712
850 8.035986623642462 16.40625000001034 23.67325324041121
851 6.995725396136748 17.18750005074519 24.00124634642641
852 6.470476120837311 16.40625000002028 24.14814565902886
853 6.995725370303076 16.40625002536978 24.00124635395625
854 5.942147373575208 17.18749995183532 24.28355172932314
855 5.410990341838507 16.4062500000269 24.40740017946464
856 5.942147374609575 16.40624995026726 24.28355172907004
857 4.877258044680177 17.18750000002787 24.51963201121913
858 4.341204438620029 16.40625000003352 24.62019382584357
859 4.877258056763003 16.40625000131879 24.51963200881572
860 3.80308473927813 17.18749999802444 24.70903774868357
861 3.26315480265317 16.40625000004015 24.78612153472022
862 3.803084695853202 16.40624999903205 24.70903775536731
863 2.721671906794374 17.18750021014626 24.85140845167062
864 2.178893566236417 16.40625000004678 24.90486745250843
865 2.721671943180056 16.40625010473864 24.85140844768574
866 1.635078274315306 17.18749989480738 24.9464730781099
867 1.090484680459068 16.4062500000534 24.97620553970687
868 1.635078251171509 16.40624994743063 24.94647307962683
869 0.5453721238799579 17.18750000005244 24.99405067704102
870 0.5453721240255407 16.40625000005714 24.99405067703784
871 15.64808683352177 18.74999999996605 19.49711205411105
872 15.2190357254607 17.96874999996707 19.83383350709466
873 15.64808682008579 17.96874997108772 19.49711206489457
874 14.78274120829016 18.74999999997319 20.1611151072732
875 14.33941090727208 17.96874999997259 20.47880110827796
876 14.78274120847254 17.96874999996983 20.16111510713949
877 13.88925588380841 18.74999995604274 20.78674026859655
878 13.4324902064711 17.96874999997812 21.08478614672338
879 13.8892558538688 17.96874997800768 20.78674028860157
880 12.96933145037285 18.749999999983 21.37279676903258
881 12.49999999576042 17.96874999998365 21.6506350970587
882 12.96933145565852 17.96875000683394 21.37279676582516
883 12.024719240592 18.74999999999236 21.91816888302798
884 11.54371532504294 17.96874999998917 22.17527083249196
885 12.02471923478632 17.96875002315198 21.91816888621309
886 11.05721736546954 18.74999999999061 22.42181848407392
887 10.56545653522202 17.9687499999947 22.65769467978449
888 11.05721736244651 17.96874999414702 22.42181848556472
889 10.06866723630665 18.74999999999774 22.88278698245747
890 9.567085799439447 17.96875000000022 23.09698831679499
891 10.06866726288908 17.96874999999746 22.88278697076093
892 9.060950944683151 18.75000000000266 23.30019673689571
893 8.550503570918721 17.96875000000575 23.49231552409652
894 9.060950961156262 17.96874995554305 23.30019673048967
895 8.035986619066271 18.75000000000757 23.6732532419646
896 7.517644975865681 17.96875000001128 23.84292377240764
897 8.035986620591668 17.96875000000852 23.67325324144681
898 6.995725339025055 18.75000000001247 24.00124636307296
899 6.470476118461459 17.9687500000168 24.14814565966546
900 6.995725367580898 17.96875002537884 24.00124635474968
901 5.942147298136868 18.75000000001739 24.28355174778279
902 5.410990339756458 17.96875000002232 24.40740017992621
903 5.942147335856038 17.96874997592636 24.28355173855297
904 4.877258118709761 18.75000000002674 24.51963199649374
905 4.341204437184156 17.96875000002785 24.62019382609676
906 4.877258081694968 17.96875000002731 24.51963200385644
907 3.803084649899819 18.75000000002721 24.70903776244021
908 3.26315480156238 17.96875000003338 24.78612153486383
909 3.803084694588974 17.96874999902582 24.7090377555619
910 2.721671941383677 18.75000000003212 24.85140844788247
911 2.17889356546419 17.96875000003891 24.90486745257599
912 2.721671924089026 17.9687501050892 24.85140844977656
913 1.635078226899539 18.74999999992576 24.9464730812177
914 1.090484679877167 17.96875000004443 24.97620553973227
915 1.63507825060742 17.96874994736657 24.9464730796638
916 0.5453721235888052 18.750000000042 24.99405067704737
917 0.5453721237343787 17.96875000004733 24.9940506770442
918 15.64808680449426 20.3124999999762 19.49711207740809
919 15.21903572515348 19.53124999997438 19.83383350733039
920 15.64808681900802 19.53124999997089 19.49711206575958
921 14.78274124071896 20.31249995736909 20.16111508349542
922 14.3394109068483 19.53124999997869 20.4788011085747
923 14.78274122450456 19.53124997867113 20.16111509538431
924 13.88925582278249 20.31249999998357 20.78674030937276
925 13.4324902057443 19.53124999998298 21.0847861471864
926 13.88925585329546 19.53124997801315 20.78674028898466
927 12.96933144950721 20.31249999998725 21.37279676955786
928 12.49999999475293 19.53124999998728 21.65063509764037
929 12.96933144994003 19.53124999998513 21.37279676929522
930 12.02471921603192 20.31249999999094 21.9181688965021
931 11.54371532347923 19.53124999999158 22.17527083330598
932 12.02471922831196 19.53124999999165 21.91816888976506
933 11.05721724570643 20.31249999999462 22.42181854313455
934 10.56545653316144 19.53124999999588 22.65769468074535
935 11.05721730558799 19.53124999999262 22.42181851360423
936 10.06866733332978 20.31249993035577 22.88278693976627
937 9.567085796800566 19.53125000000017 23.09698831788805
938 10.06866728481821 19.53124996517676 22.88278696111187
939 9.060950941760428 20.31250000000201 23.30019673803229
940 8.550503567709134 19.53125000000448 23.49231552526471
941 9.060950943221787 19.53125000000234 23.300196737464
942 8.035986690936202 20.31250000000568 23.67325321756805
943 7.51764497297787 19.53125000000878 23.84292377331816
944 8.035986655001237 19.53125000000662 23.67325322976632
945 6.995725336390862 20.31250000000936 24.00124636384075
946 6.470476116085607 19.53125000001307 24.14814566030207
947 6.995725337707957 19.53125000001092 24.00124636345685
948 5.94214729590654 20.31250000001305 24.28355174832855
949 5.410990337674406 19.53125000001737 24.4074001803878
950 5.942147297021702 19.53125000001522 24.28355174805567
951 4.877258072768717 20.31249994819153 24.51963200563198
952 4.341204435748287 19.53125000002166 24.62019382634993
953 4.87725809573924 19.53124997410913 24.51963200106286
954 3.803084649267026 20.31249999994106 24.7090377625376
955 3.263154800471588 19.53125000002596 24.78612153500743
956 3.803084649583419 19.53124999998414 24.7090377624889
957 2.721671907059882 20.31249994749776 24.85140845164154
958 2.178893564691959 19.53125000003025 24.90486745264354
959 2.721671924221782 19.53124997376494 24.85140844976202
960 1.635078236326309 20.31250000002555 24.94647308059982
961 1.090484679295268 19.53125000003456 24.97620553975768
962 1.635078231612925 19.53124999997567 24.94647308090877
963 0.5453721879909641 20.31250005289549 24.99405067564211
964 0.5453721557898831 19.53125002646902 24.99405067634475
965 15.64808680434326 21.87499999998414 19.49711207752928
966 15.21903572484627 21.0937499999817 19.83383350756613
967 15.64808680441876 21.09374999998062 19.49711207746869
968 14.78274120756066 21.87499999998659 20.16111510780809
969 14.33941090642451 21.09374999998477 20.47880110887144
970 14.78274122413981 21.09374997867785 20.16111509565176
971 13.8892558742258 21.87499999998682 20.78674027499944
972 13.43249020501751 21.09374999998784 21.08478614764942
973 13.88925584850415 21.09374999998519 20.78674029218611
974 12.96933146429709 21.8749999233474 21.37279676058314
975 12.49999999374544 21.09374999999091 21.65063509822204
976 12.96933145690215 21.09374996166732 21.3727967650705
977 12.02471926656811 21.87499999999617 21.91816886877701
978 11.54371532191552 21.09374999999398 22.17527083412001
979 12.02471924130002 21.09374999999356 21.91816888263956
980 11.05721724389632 21.87499999999642 22.4218185440272
981 10.56545653110086 21.09374999999705 22.65769468170622
982 11.05721724480137 21.09374999999551 22.42181854358086
983 10.06866723161119 21.87499999999886 22.88278698452351
984 9.567085794161684 21.09375000000012 23.09698831898111
985 10.06866728247049 21.09374996517732 22.88278696214489
986 9.060950939058218 21.87500000010586 23.30019673908312
987 8.550503564499545 21.09375000000319 23.4923155264329
988 9.06095094040932 21.09375000005394 23.30019673855771
989 8.035986613211689 21.87500000000378 23.67325324395197
990 7.517644970090059 21.09375000000627 23.84292377422869
991 8.035986652073941 21.09375000000474 23.67325323076001
992 6.995725333756658 21.87500000000624 24.00124636460855
993 6.470476113709752 21.09375000000934 24.14814566093868
994 6.995725335073761 21.09375000000779 24.00124636422465
995 5.942147293952216 21.87500000000871 24.28355174880677
996 5.410990335592357 21.09375000001241 24.40740018084938
997 5.942147294929376 21.09375000001087 24.28355174856766
998 4.877258039397732 21.87500000001118 24.51963201226988
999 4.34120443431241 21.09375000001548 24.62019382660313
1000 4.877258056083222 21.09374997410136 24.51963200895093
1001 3.803084647371367 21.87500000001361 24.70903776282938
1002 3.263154799380799 21.09375000001854 24.78612153515104
1003 3.803084648319196 21.09374999997733 24.70903776268348
1004 2.721671865384009 21.87500000001607 24.8514084562058
1005 2.17889356391973 21.09375000002161 24.9048674527111
1006 2.721671886221947 21.09374997375691 24.85140845392368
1007 1.635078238105487 21.87499994729106 24.94647308048322
1008 1.09048467871337 21.09375000002468 24.97620553978309
1009 1.635078237215899 21.09374997365832 24.94647308054153
1010 0.5453721508502042 21.87500000001654 24.99405067645252
1011 0.5453721694205849 21.09375002645595 24.99405067604732
1012 15.64808680419226 23.43749999999207 19.49711207765048
1013 15.21903572453906 22.65624999998903 19.83383350780186
1014 15.64808680426776 22.65624999998781 19.49711207758989
1015 14.78274120719591 23.4374999999933 20.16111510807555
1016 14.33941090600072 22.65624999999086 20.47880110916818
1017 14.78274120737829 22.65624999998995 20.16111510794182
1018 13.88925582163581 23.43749999999451 20.78674031013895
1019 13.43249020429071 22.65624999999272 21.08478614811244
1020 13.88925584793081 22.65624999999067 20.78674029256921
1021 12.96933144777593 23.43749999999576 21.37279677060844
1022 12.49999999273794 22.65624999999455 21.65063509880372
1023 12.96933145603651 22.65624996167157 21.37279676559579
1024 12.02471927315473 23.43749995366801 21.91816886516346
1025 11.54371532035181 22.65624999999639 22.17527083493401
1026 12.02471926986142 22.65624997683208 21.91816886697024
1027 11.05721724208621 23.43749999999821 22.42181854491984
1028 10.56545652904028 22.65624999999823 22.65769468266708
1029 11.05721724299127 22.65624999999731 22.42181854447352
1030 10.06866727396209 23.43750000000166 22.88278696588868
1031 9.567085791522796 22.65625000000008 23.09698832007417
1032 10.06866725278664 22.65625000000026 22.88278697520611
1033 9.060951043334606 23.43750000000067 23.30019669853225
1034 8.550503561289956 22.65625000000191 23.49231552760109
1035 9.060950991196412 22.65625000005327 23.30019671880769
1036 8.035986609913927 23.43750000000189 23.67325324507141
1037 7.517644967202246 22.65625000000376 23.84292377513922
1038 8.035986611562809 22.65625000000284 23.6732532445117
1039 6.995725331122469 23.43750000000312 24.00124636537634
1040 6.470476111333899 22.6562500000056 24.14814566157529
1041 6.995725332439562 22.65625000000468 24.00124636499246
1042 5.942147291608124 23.43749999999409 24.28355174938036
1043 5.410990333510306 22.65625000000744 24.40740018131096
1044 5.94214729278017 22.6562500000014 24.28355174909357
1045 4.877258037636919 23.43750000000558 24.51963201262013
1046 4.34120443287654 22.65625000000929 24.6201938268563
1047 4.877258038517325 22.65625000000838 24.51963201244501
1048 3.803084646107143 23.43750000000681 24.70903776302395
1049 3.263154798290008 22.65625000001113 24.78612153529464
1050 3.803084646739255 22.65625000001021 24.70903776292667
1051 2.721671899843482 23.43749999928896 24.85140845243187
1052 2.178893563147501 22.65625000001297 24.90486745277867
1053 2.721671882613747 22.65624999965252 24.85140845431883
1054 1.635078234016946 23.43750005252071 24.94647308075119
1055 1.090484678131471 22.65625000001481 24.9762055398085
1056 1.635078236061215 22.65624999990589 24.94647308061721
1057 0.5453721505527516 23.43749999997446 24.99405067645901
1058 0.54537215070148 22.65624999999626 24.99405067645578
1059 15.21903572423184 24.21874999999634 19.8338335080376
1060 15.64808680404654 24.21874999999564 19.49711207776742
1061 14.33941090557694 24.21874999999694 20.47880110946491
1062 14.7827412070512 24.21874999999666 20.16111510818165
1063 13.43249020356392 24.21874999999757 21.08478614857546
1064 13.88925582121318 24.21874999999726 20.78674031042134
1065 12.49999999173045 24.21874999999818 21.65063509938539
1066 12.96933144710941 24.21874999999788 21.37279677101289
1067 11.5437153187881 24.2187499999988 22.17527083574803
1068 12.02471924295306 24.218749976834 21.91816888173267
1069 10.56545652697971 24.21874999999941 22.65769468362794
1070 11.05721724109283 24.2187499999991 22.42181854540973
1071 9.567085788883917 24.21875000000003 23.09698832116723
1072 10.06866725011851 24.21875000000083 22.88278697638011
1073 8.550503558080365 24.21875000000064 23.49231552876929
1074 9.0609509883516 24.21875000000033 23.30019671991398
1075 7.517644964314432 24.21875000000125 23.84292377604973
1076 8.03598660817371 24.21875000000095 23.67325324566213
1077 6.47047610895804 24.21875000000186 24.1481456622119
1078 6.995725329645555 24.21875000000156 24.00124636580684
1079 5.41099033142826 24.21875000000248 24.40740018177253
1080 5.94214729012382 24.21874999999704 24.28355174974358
1081 4.341204431440671 24.2187500000031 24.62019382710949
1082 4.877258036622255 24.21875000000279 24.51963201282196
1083 3.263154797199213 24.21875000000371 24.78612153543824
1084 3.803084644964366 24.21875000000341 24.70903776319986
1085 2.178893562375272 24.21875000000433 24.90486745284623
1086 2.72167188192443 24.21874999964448 24.85140845439433
1087 1.090484677549574 24.21875000000493 24.9762055398339
1088 1.635078229031102 24.21875002626036 24.94647308107798
1089 0.5453721363545493 24.21874999998733 24.99405067676882
$EndNodes
$Elements
256
1 10 2 1 1 1 5 129 112 20 354 355 128 356
2 10 2 1 1 112 129 130 111 355 357 358 127 359
3 10 2 1 1 111 130 131 110 358 360 361 126 362
4 10 2 1 1 110 131 132 109 361 363 364 125 365
5 10 2 1 1 109 132 133 108 364 366 367 124 368
6 10 2 1 1 108 133 134 107 367 369 370 123 371
7 10 2 1 1 107 134 135 106 370 372 373 122 374
8 10 2 1 1 106 135 136 105 373 375 376 121 377
9 10 2 1 1 105 136 137 104 376 378 379 120 380
10 10 2 1 1 104 137 138 103 379 381 382 119 383
11 10 2 1 1 103 138 139 102 382 384 385 118 386
12 10 2 1 1 102 139 140 101 385 387 388 117 389
13 10 2 1 1 101 140 141 100 388 390 391 116 392
14 10 2 1 1 100 141 142 99 391 393 394 115 395
15 10 2 1 1 99 142 143 98 394 396 397 114 398
16 10 2 1 1 98 143 81 2 397 399 97 113 400
17 10 2 1 1 5 6 144 129 21 401 402 354 403
18 10 2 1 1 129 144 145 130 402 404 405 357 406
19 10 2 1 1 130 145 146 131 405 407 408 360 409
20 10 2 1 1 131 146 147 132 408 410 411 363 412
21 10 2 1 1 132 147 148 133 411 413 414 366 415
22 10 2 1 1 133 148 149 134 414 416 417 369 418
23 10 2 1 1 134 149 150 135 417 419 420 372 421
24 10 2 1 1 135 150 151 136 420 422 423 375 424
25 10 2 1 1 136 151 152 137 423 425 426 378 427
26 10 2 1 1 137 152 153 138 426 428 429 381 430
27 10 2 1 1 138 153 154 139 429 431 432 384 433
28 10 2 1 1 139 154 155 140 432 434 435 387 436
29 10 2 1 1 140 155 156 141 435 437 438 390 439
30 10 2 1 1 141 156 157 142 438 440 441 393 442
31 10 2 1 1 142 157 158 143 441 443 444 396 445
32 10 2 1 1 143 158 80 81 444 446 96 399 447
33 10 2 1 1 6 7 159 144 22 448 449 401 450
34 10 2 1 1 144 159 160 145 449 451 452 404 453
35 10 2 1 1 145 160 161 146 452 454 455 407 456
36 10 2 1 1 146 161 162 147 455 457 458 410 459
37 10 2 1 1 147 162 163 148 458 460 461 413 462
38 10 2 1 1 148 163 164 149 461 463 464 416 465
39 10 2 1 1 149 164 165 150 464 466 467 419 468
40 10 2 1 1 150 165 166 151 467 469 470 422 471
41 10 2 1 1 151 166 167 152 470 472 473 425 474
42 10 2 1 1 152 167 168 153 473 475 476 428 477
43 10 2 1 1 153 168 169 154 476 478 479 431 480
44 10 2 1 1 154 169 170 155 479 481 482 434 483
45 10 2 1 1 155 170 171 156 482 484 485 437 486
46 10 2 1 1 156 171 172 157 485 487 488 440 489
47 10 2 1 1 157 172 173 158 488 490 491 443 492
48 10 2 1 1 158 173 79 80 491 493 95 446 494
49 10 2 1 1 7 8 174 159 23 495 496 448 497
50 10 2 1 1 159 174 175 160 496 498 499 451 500
51 10 2 1 1 160 175 176 161 499 501 502 454 503
52 10 2 1 1 161 176 177 162 502 504 505 457 506
53 10 2 1 1 162 177 178 163 505 507 508 460 509
54 10 2 1 1 163 178 179 164 508 510 511 463 512
55 10 2 1 1 164 179 180 165 511 513 514 466 515
56 10 2 1 1 165 180 181 166 514 516 517 469 518
57 10 2 1 1 166 181 182 167 517 519 520 472 521
58 10 2 1 1 167 182 183 168 520 522 523 475 524
59 10 2 1 1 168 183 184 169 523 525 526 478 527
60 10 2 1 1 169 184 185 170 526 528 529 481 530
61 10 2 1 1 170 185 186 171 529 531 532 484 533
62 10 2 1 1 171 186 187 172 532 534 535 487 536
63 10 2 1 1 172 187 188 173 535 537 538 490 539
64 10 2 1 1 173 188 78 79 538 540 94 493 541
65 10 2 1 1 8 9 189 174 24 542 543 495 544
66 10 2 1 1 174 189 190 175 543 545 546 498 547
67 10 2 1 1 175 190 191 176 546 548 549 501 550
68 10 2 1 1 176 191 192 177 549 551 552 504 553
69 10 2 1 1 177 192 193 178 552 554 555 507 556
70 10 2 1 1 178 193 194 179 555 557 558 510 559
71 10 2 1 1 179 194 195 180 558 560 561 513 562
72 10 2 1 1 180 195 196 181 561 563 564 516 565
73 10 2 1 1 181 196 197 182 564 566 567 519 568
74 10 2 1 1 182 197 198 183 567 569 570 522 571
75 10 2 1 1 183 198 199 184 570 572 573 525 574
76 10 2 1 1 184 199 200 185 573 575 576 528 577
77 10 2 1 1 185 200 201 186 576 578 579 531 580
78 10 2 1 1 186 201 202 187 579 581 582 534 583
79 10 2 1 1 187 202 203 188 582 584 585 537 586
80 10 2 1 1 188 203 77 78 585 587 93 540 588
81 10 2 1 1 9 10 204 189 25 589 590 542 591
82 10 2 1 1 189 204 205 190 590 592 593 545 594
83 10 2 1 1 190 205 206 191 593 595 596 548 597
84 10 2 1 1 191 206 207 192 596 598 599 551 600
85 10 2 1 1 192 207 208 193 599 601 602 554 603
86 10 2 1 1 193 208 209 194 602 604 605 557 606
87 10 2 1 1 194 209 210 195 605 607 608 560 609
88 10 2 1 1 195 210 211 196 608 610 611 563 612
89 10 2 1 1 196 211 212 197 611 613 614 566 615
90 10 2 1 1 197 212 213 198 614 616 617 569 618
91 10 2 1 1 198 213 214 199 617 619 620 572 621
92 10 2 1 1 199 214 215 200 620 622 623 575 624
93 10 2 1 1 200 215 216 201 623 625 626 578 627
94 10 2 1 1 201 216 217 202 626 628 629 581 630
95 10 2 1 1 202 217 218 203 629 631 632 584 633
96 10 2 1 1 203 218 76 77 632 634 92 587 635
97 10 2 1 1 10 11 219 204 26 636 637 589 638
98 10 2 1 1 204 219 220 205 637 639 640 592 641
99 10 2 1 1 205 220 221 206 640 642 643 595 644
100 10 2 1 1 206 221 222 207 643 645 646 598 647
101 10 2 1 1 207 222 223 208 646 648 649 601 650
102 10 2 1 1 208 223 224 209 649 651 652 604 653
103 10 2 1 1 209 224 225 210 652 654 655 607 656
104 10 2 1 1 210 225 226 211 655 657 658 610 659
105 10 2 1 1 211 226 227 212 658 660 661 613 662
106 10 2 1 1 212 227 228 213 661 663 664 616 665
107 10 2 1 1 213 228 229 214 664 666 667 619 668
108 10 2 1 1 214 229 230 215 667 669 670 622 671
109 10 2 1 1 215 230 231 216 670 672 673 625 674
110 10 2 1 1 216 231 232 217 673 675 676 628 677
111 10 2 1 1 217 232 233 218 676 678 679 631 680
112 10 2 1 1 218 233 75 76 679 681 91 634 682
113 10 2 1 1 11 12 234 219 27 683 684 636 685
114 10 2 1 1 219 234 235 220 684 686 687 639 688
115 10 2 1 1 220 235 236 221 687 689 690 642 691
116 10 2 1 1 221 236 237 222 690 692 693 645 694
117 10 2 1 1 222 237 238 223 693 695 696 648 697
118 10 2 1 1 223 238 239 224 696 698 699 651 700
119 10 2 1 1 224 239 240 225 699 701 702 654 703
120 10 2 1 1 225 240 241 226 702 704 705 657 706
121 10 2 1 1 226 241 242 227 705 707 708 660 709
122 10 2 1 1 227 242 243 228 708 710 711 663 712
123 10 2 1 1 228 243 244 229 711 713 714 666 715
124 10 2 1 1 229 244 245 230 714 716 717 669 718
125 10 2 1 1 230 245 246 231 717 719 720 672 721
126 10 2 1 1 231 246 247 232 720 722 723 675 724
127 10 2 1 1 232 247 248 233 723 725 726 678 727
128 10 2 1 1 233 248 74 75 726 728 90 681 729
129 10 2 1 1 12 13 249 234 28 730 731 683 732
130 10 2 1 1 234 249 250 235 731 733 734 686 735
131 10 2 1 1 235 250 251 236 734 736 737 689 738
132 10 2 1 1 236 251 252 237 737 739 740 692 741
133 10 2 1 1 237 252 253 238 740 742 743 695 744
134 10 2 1 1 238 253 254 239 743 745 746 698 747
135 10 2 1 1 239 254 255 240 746 748 749 701 750
136 10 2 1 1 240 255 256 241 749 751 752 704 753
137 10 2 1 1 241 256 257 242 752 754 755 707 756
138 10 2 1 1 242 257 258 243 755 757 758 710 759
139 10 2 1 1 243 258 259 244 758 760 761 713 762
140 10 2 1 1 244 259 260 245 761 763 764 716 765
141 10 2 1 1 245 260 261 246 764 766 767 719 768
142 10 2 1 1 246 261 262 247 767 769 770 722 771
143 10 2 1 1 247 262 263 248 770 772 773 725 774
144 10 2 1 1 248 263 73 74 773 775 89 728 776
145 10 2 1 1 13 14 264 249 29 777 778 730 779
146 10 2 1 1 249 264 265 250 778 780 781 733 782
147 10 2 1 1 250 265 266 251 781 783 784 736 785
148 10 2 1 1 251 266 267 252 784 786 787 739 788
149 10 2 1 1 252 267 268 253 787 789 790 742 791
150 10 2 1 1 253 268 269 254 790 792 793 745 794
151 10 2 1 1 254 269 270 255 793 795 796 748 797
152 10 2 1 1 255 270 271 256 796 798 799 751 800
153 10 2 1 1 256 271 272 257 799 801 802 754 803
154 10 2 1 1 257 272 273 258 802 804 805 757 806
155 10 2 1 1 258 273 274 259 805 807 808 760 809
156 10 2 1 1 259 274 275 260 808 810 811 763 812
157 10 2 1 1 260 275 276 261 811 813 814 766 815
158 10 2 1 1 261 276 277 262 814 816 817 769 818
159 10 2 1 1 262 277 278 263 817 819 820 772 821
160 10 2 1 1 263 278 72 73 820 822 88 775 823
161 10 2 1 1 14 15 279 264 30 824 825 777 826
162 10 2 1 1 264 279 280 265 825 827 828 780 829
163 10 2 1 1 265 280 281 266 828 830 831 783 832
164 10 2 1 1 266 281 282 267 831 833 834 786 835
165 10 2 1 1 267 282 283 268 834 836 837 789 838
166 10 2 1 1 268 283 284 269 837 839 840 792 841
167 10 2 1 1 269 284 285 270 840 842 843 795 844
168 10 2 1 1 270 285 286 271 843 845 846 798 847
169 10 2 1 1 271 286 287 272 846 848 849 801 850
170 10 2 1 1 272 287 288 273 849 851 852 804 853
171 10 2 1 1 273 288 289 274 852 854 855 807 856
172 10 2 1 1 274 289 290 275 855 857 858 810 859
173 10 2 1 1 275 290 291 276 858 860 861 813 862
174 10 2 1 1 276 291 292 277 861 863 864 816 865
175 10 2 1 1 277 292 293 278 864 866 867 819 868
176 10 2 1 1 278 293 71 72 867 869 87 822 870
177 10 2 1 1 15 16 294 279 31 871 872 824 873
178 10 2 1 1 279 294 295 280 872 874 875 827 876
179 10 2 1 1 280 295 296 281 875 877 878 830 879
180 10 2 1 1 281 296 297 282 878 880 881 833 882
181 10 2 1 1 282 297 298 283 881 883 884 836 885
182 10 2 1 1 283 298 299 284 884 886 887 839 888
183 10 2 1 1 284 299 300 285 887 889 890 842 891
184 10 2 1 1 285 300 301 286 890 892 893 845 894
185 10 2 1 1 286 301 302 287 893 895 896 848 897
186 10 2 1 1 287 302 303 288 896 898 899 851 900
187 10 2 1 1 288 303 304 289 899 901 902 854 903
188 10 2 1 1 289 304 305 290 902 904 905 857 906
189 10 2 1 1 290 305 306 291 905 907 908 860 909
190 10 2 1 1 291 306 307 292 908 910 911 863 912
191 10 2 1 1 292 307 308 293 911 913 914 866 915
192 10 2 1 1 293 308 70 71 914 916 86 869 917
193 10 2 1 1 16 17 309 294 32 918 919 871 920
194 10 2 1 1 294 309 310 295 919 921 922 874 923
195 10 2 1 1 295 310 311 296 922 924 925 877 926
196 10 2 1 1 296 311 312 297 925 927 928 880 929
197 10 2 1 1 297 312 313 298 928 930 931 883 932
198 10 2 1 1 298 313 314 299 931 933 934 886 935
199 10 2 1 1 299 314 315 300 934 936 937 889 938
200 10 2 1 1 300 315 316 301 937 939 940 892 941
201 10 2 1 1 301 316 317 302 940 942 943 895 944
202 10 2 1 1 302 317 318 303 943 945 946 898 947
203 10 2 1 1 303 318 319 304 946 948 949 901 950
204 10 2 1 1 304 319 320 305 949 951 952 904 953
205 10 2 1 1 305 320 321 306 952 954 955 907 956
206 10 2 1 1 306 321 322 307 955 957 958 910 959
207 10 2 1 1 307 322 323 308 958 960 961 913 962
208 10 2 1 1 308 323 69 70 961 963 85 916 964
209 10 2 1 1 17 18 324 309 33 965 966 918 967
210 10 2 1 1 309 324 325 310 966 968 969 921 970
211 10 2 1 1 310 325 326 311 969 971 972 924 973
212 10 2 1 1 311 326 327 312 972 974 975 927 976
213 10 2 1 1 312 327 328 313 975 977 978 930 979
214 10 2 1 1 313 328 329 314 978 980 981 933 982
215 10 2 1 1 314 329 330 315 981 983 984 936 985
216 10 2 1 1 315 330 331 316 984 986 987 939 988
217 10 2 1 1 316 331 332 317 987 989 990 942 991
218 10 2 1 1 317 332 333 318 990 992 993 945 994
219 10 2 1 1 318 333 334 319 993 995 996 948 997
220 10 2 1 1 319 334 335 320 996 998 999 951 1000
221 10 2 1 1 320 335 336 321 999 1001 1002 954 1003
222 10 2 1 1 321 336 337 322 1002 1004 1005 957 1006
223 10 2 1 1 322 337 338 323 1005 1007 1008 960 1009
224 10 2 1 1 323 338 68 69 1008 1010 84 963 1011
225 10 2 1 1 18 19 339 324 34 1012 1013 965 1014
226 10 2 1 1 324 339 340 325 1013 1015 1016 968 1017
227 10 2 1 1 325 340 341 326 1016 1018 1019 971 1020
228 10 2 1 1 326 341 342 327 1019 1021 1022 974 1023
229 10 2 1 1 327 342 343 328 1022 1024 1025 977 1026
230 10 2 1 1 328 343 344 329 1025 1027 1028 980 1029
231 10 2 1 1 329 344 345 330 1028 1030 1031 983 1032
232 10 2 1 1 330 345 346 331 1031 1033 1034 986 1035
233 10 2 1 1 331 346 347 332 1034 1036 1037 989 1038
234 10 2 1 1 332 347 348 333 1037 1039 1040 992 1041
235 10 2 1 1 333 348 349 334 1040 1042 1043 995 1044
236 10 2 1 1 334 349 350 335 1043 1045 1046 998 1047
237 10 2 1 1 335 350 351 336 1046 1048 1049 1001 1050
238 10 2 1 1 336 351 352 337 1049 1051 1052 1004 1053
239 10 2 1 1 337 352 353 338 1052 1054 1055 1007 1056
240 10 2 1 1 338 353 67 68 1055 1057 83 1010 1058
241 10 2 1 1 19 3 36 339 35 51 1059 1012 1060
242 10 2 1 1 339 36 37 340 1059 52 1061 1015 1062
243 10 2 1 1 340 37 38 341 1061 53 1063 1018 1064
244 10 2 1 1 341 38 39 342 1063 54 1065 1021 1066
245 10 2 1 1 342 39 40 343 1065 55 1067 1024 1068
246 10 2 1 1 343 40 41 344 1067 56 1069 1027 1070
247 10 2 1 1 344 41 42 345 1069 57 1071 1030 1072
248 10 2 1 1 345 42 43 346 1071 58 1073 1033 1074
249 10 2 1 1 346 43 44 347 1073 59 1075 1036 1076
250 10 2 1 1 347 44 45 348 1075 60 1077 1039 1078
251 10 2 1 1 348 45 46 349 1077 61 1079 1042 1080
252 10 2 1 1 349 46 47 350 1079 62 1081 1045 1082
253 10 2 1 1 350 47 48 351 1081 63 1083 1048 1084
254 10 2 1 1 351 48 49 352 1083 64 1085 1051 1086
255 10 2 1 1 352 49 50 353 1085 65 1087 1054 1088
256 10 2 1 1 353 50 4 67 1087 66 82 1057 1089
$EndElements
