$MeshFormat
2.2 0 8
$EndMeshFormat
$PhysicalNames
1
2 1 "Rectangular_plate"
$EndPhysicalNames
$Nodes
1089
1 0 0 0
2 1 0 0
3 1 1 0
4 0 1 0
5 0.06249999999987291 0 0
6 0.1249999999997731 0 0
7 0.1874999999995934 0 0
8 0.2499999999994109 0 0
9 0.3124999999992285 0 0
10 0.3749999999990461 0 0
11 0.4374999999988636 0 0
12 0.4999999999986921 0 0
13 0.562499999998846 0 0
14 0.6249999999990109 0 0
15 0.6874999999991758 0 0
16 0.7499999999993406 0 0
17 0.8124999999995055 0 0
18 0.8749999999996703 0 0
19 0.9374999999998351 0 0
20 0.03124999999994181 0 0
21 0.09374999999982302 0 0
22 0.1562499999996833 0 0
23 0.2187499999995022 0 0
24 0.2812499999993197 0 0
25 0.3437499999991373 0 0
26 0.4062499999989548 0 0
27 0.4687499999987779 0 0
28 0.5312499999987691 0 0
29 0.5937499999989284 0 0
30 0.6562499999990933 0 0
31 0.7187499999992581 0 0
32 0.781249999999423 0 0
33 0.8437499999995879 0 0
34 0.9062499999997526 0 0
35 0.9687499999999175 0 0
36 1 0.06249999999987291 0
37 1 0.1249999999997731 0
38 1 0.1874999999995934 0
39 1 0.2499999999994109 0
40 1 0.3124999999992285 0
41 1 0.3749999999990461 0
42 1 0.4374999999988636 0
43 1 0.4999999999986921 0
44 1 0.562499999998846 0
45 1 0.6249999999990109 0
46 1 0.6874999999991758 0
47 1 0.7499999999993406 0
48 1 0.8124999999995055 0
49 1 0.8749999999996703 0
50 1 0.9374999999998351 0
51 1 0.03124999999994181 0
52 1 0.09374999999982302 0
53 1 0.1562499999996833 0
54 1 0.2187499999995022 0
55 1 0.2812499999993197 0
56 1 0.3437499999991373 0
57 1 0.4062499999989548 0
58 1 0.4687499999987779 0
59 1 0.5312499999987691 0
60 1 0.5937499999989284 0
61 1 0.6562499999990933 0
62 1 0.7187499999992581 0
63 1 0.781249999999423 0
64 1 0.8437499999995879 0
65 1 0.9062499999997526 0
66 1 0.9687499999999175 0
67 0.9374999999997398 1 0
68 0.8749999999995012 1 0
69 0.8124999999999132 1 0
70 0.7500000000003471 1 0
71 0.6875000000007805 1 0
72 0.625000000001214 1 0
73 0.5625000000016476 1 0
74 0.5000000000020595 1 0
75 0.437500000001821 1 0
76 0.3750000000015609 1 0
77 0.3125000000013007 1 0
78 0.2500000000010405 1 0
79 0.1875000000007804 1 0
80 0.1250000000005203 1 0
81 0.06250000000026013 1 0
82 0.968749999999867 1 0
83 0.9062499999996767 1 0
84 0.8437499999997156 1 0
85 0.7812500000001027 1 0
86 0.7187500000005669 1 0
87 0.6562500000009742 1 0
88 0.5937500000015158 1 0
89 0.5312500000018237 1 0
90 0.4687500000019402 1 0
91 0.4062500000016909 1 0
92 0.3437500000014307 1 0
93 0.2812500000011706 1 0
94 0.2187500000009104 1 0
95 0.1562500000006503 1 0
96 0.09375000000039013 1 0
97 0.03125000000013001 1 0
98 0 0.9374999999997398 0
99 0 0.8749999999995012 0
100 0 0.8124999999999132 0
101 0 0.7500000000003471 0
102 0 0.6875000000007805 0
103 0 0.625000000001214 0
104 0 0.5625000000016476 0
105 0 0.5000000000020595 0
106 0 0.437500000001821 0
107 0 0.3750000000015609 0
108 0 0.3125000000013007 0
109 0 0.2500000000010405 0
110 0 0.1875000000007804 0
111 0 0.1250000000005203 0
112 0 0.06250000000026013 0
113 0 0.968749999999867 0
114 0 0.9062499999996767 0
115 0 0.8437499999997156 0
116 0 0.7812500000001027 0
117 0 0.7187500000005669 0
118 0 0.6562500000009742 0
119 0 0.5937500000015158 0
120 0 0.5312500000018237 0
121 0 0.4687500000019402 0
122 0 0.4062500000016909 0
123 0 0.3437500000014307 0
124 0 0.2812500000011706 0
125 0 0.2187500000009104 0
126 0 0.1562500000006503 0
127 0 0.09375000000039013 0
128 0 0.03125000000013001 0
129 0.06249999999989712 0.06250000000023592 0
130 0.06249999999992131 0.1250000000004736 0
131 0.06249999999994552 0.1875000000007061 0
132 0.0624999999999697 0.2500000000009385 0
133 0.06249999999999391 0.3125000000011713 0
134 0.0625000000000181 0.3750000000014038 0
135 0.0625000000000423 0.4375000000016362 0
136 0.06250000000006653 0.5000000000018491 0
137 0.06250000000009073 0.5625000000014725 0
138 0.06250000000011491 0.6250000000010764 0
139 0.06250000000013911 0.6875000000006801 0
140 0.06250000000016331 0.750000000000284 0
141 0.06250000000018752 0.8124999999998876 0
142 0.06250000000021172 0.8749999999995119 0
143 0.06250000000023592 0.9374999999997459 0
144 0.1249999999998198 0.06250000000021172 0
145 0.1249999999998665 0.1250000000004269 0
146 0.1249999999999132 0.187500000000632 0
147 0.1249999999999599 0.2500000000008369 0
148 0.1250000000000066 0.3125000000010417 0
149 0.1250000000000533 0.3750000000012464 0
150 0.1250000000001 0.4375000000014513 0
151 0.1250000000001467 0.5000000000016386 0
152 0.1250000000001934 0.5625000000012973 0
153 0.1250000000002401 0.6250000000009387 0
154 0.1250000000002868 0.6875000000005798 0
155 0.1250000000003335 0.750000000000221 0
156 0.1250000000003801 0.8124999999998621 0
157 0.1250000000004269 0.8749999999995223 0
158 0.1250000000004736 0.9374999999997515 0
159 0.1874999999996675 0.06250000000018752 0
160 0.1874999999997418 0.1250000000003802 0
161 0.1874999999998159 0.1875000000005579 0
162 0.1874999999998901 0.2500000000007349 0
163 0.1874999999999643 0.3125000000009121 0
164 0.1875000000000385 0.3750000000010895 0
165 0.1875000000001127 0.4375000000012665 0
166 0.187500000000187 0.5000000000014281 0
167 0.1875000000002611 0.5625000000011223 0
168 0.1875000000003353 0.625000000000801 0
169 0.1875000000004095 0.6875000000004798 0
170 0.1875000000004836 0.7500000000001584 0
171 0.1875000000005578 0.8124999999998367 0
172 0.187500000000632 0.8749999999995329 0
173 0.1875000000007061 0.9374999999997576 0
174 0.2499999999995128 0.06250000000016331 0
175 0.2499999999996147 0.1250000000003335 0
176 0.2499999999997164 0.1875000000004836 0
177 0.2499999999998184 0.2500000000006332 0
178 0.2499999999999202 0.3125000000007827 0
179 0.250000000000022 0.3750000000009321 0
180 0.2500000000001238 0.4375000000010816 0
181 0.2500000000002258 0.5000000000012177 0
182 0.2500000000003276 0.5625000000009472 0
183 0.2500000000004294 0.6250000000006632 0
184 0.2500000000005314 0.6875000000003793 0
185 0.250000000000633 0.7500000000000955 0
186 0.2500000000007349 0.8124999999998114 0
187 0.2500000000008367 0.8749999999995437 0
188 0.2500000000009385 0.9374999999997637 0
189 0.312499999999358 0.06250000000013911 0
190 0.3124999999994875 0.1250000000002868 0
191 0.3124999999996171 0.1875000000004095 0
192 0.3124999999997468 0.2500000000005311 0
193 0.3124999999998761 0.3125000000006531 0
194 0.3125000000000056 0.3750000000007749 0
195 0.3125000000001351 0.4375000000008968 0
196 0.3125000000002647 0.5000000000010071 0
197 0.3125000000003941 0.5625000000007719 0
198 0.3125000000005236 0.6250000000005257 0
199 0.3125000000006531 0.687500000000279 0
200 0.3125000000007827 0.7500000000000325 0
201 0.3125000000009122 0.8124999999997857 0
202 0.3125000000010416 0.8749999999995541 0
203 0.3125000000011713 0.9374999999997697 0
204 0.3749999999992034 0.06250000000011491 0
205 0.3749999999993604 0.1250000000002402 0
206 0.3749999999995176 0.1875000000003353 0
207 0.3749999999996748 0.2500000000004294 0
208 0.3749999999998321 0.3125000000005236 0
209 0.374999999999989 0.3750000000006178 0
210 0.3750000000001464 0.437500000000712 0
211 0.3750000000003036 0.5000000000007966 0
212 0.3750000000004607 0.5625000000005969 0
213 0.3750000000006179 0.6250000000003879 0
214 0.375000000000775 0.6875000000001785 0
215 0.3750000000009321 0.7499999999999697 0
216 0.3750000000010894 0.8124999999997604 0
217 0.3750000000012466 0.8749999999995648 0
218 0.3750000000014038 0.9374999999997755 0
219 0.4374999999990484 0.06250000000009073 0
220 0.4374999999992333 0.1250000000001934 0
221 0.4374999999994182 0.1875000000002611 0
222 0.437499999999603 0.2500000000003275 0
223 0.4374999999997878 0.3125000000003941 0
224 0.4374999999999726 0.3750000000004608 0
225 0.4375000000001574 0.4375000000005271 0
226 0.4375000000003423 0.5000000000005861 0
227 0.4375000000005272 0.562500000000422 0
228 0.4375000000007119 0.6250000000002504 0
229 0.4375000000008968 0.6875000000000783 0
230 0.4375000000010817 0.7499999999999066 0
231 0.4375000000012664 0.8124999999997349 0
232 0.4375000000014513 0.874999999999575 0
233 0.4375000000016361 0.9374999999997813 0
234 0.4999999999989026 0.06250000000006653 0
235 0.4999999999991129 0.1250000000001466 0
236 0.4999999999993235 0.1875000000001869 0
237 0.499999999999534 0.2500000000002255 0
238 0.4999999999997445 0.3125000000002647 0
239 0.4999999999999549 0.3750000000003036 0
240 0.5000000000001653 0.4375000000003423 0
241 0.5000000000003758 0.5000000000003758 0
242 0.5000000000005863 0.5625000000002468 0
243 0.5000000000007968 0.6250000000001125 0
244 0.5000000000010071 0.6874999999999781 0
245 0.5000000000012176 0.7499999999998438 0
246 0.5000000000014281 0.8124999999997093 0
247 0.5000000000016386 0.8749999999995857 0
248 0.5000000000018491 0.9374999999997876 0
249 0.5624999999990213 0.06250000000004233 0
250 0.5624999999991961 0.1250000000001 0
251 0.5624999999993713 0.1875000000001127 0
252 0.5624999999995466 0.2500000000001238 0
253 0.5624999999997214 0.3125000000001351 0
254 0.5624999999998966 0.3750000000001464 0
255 0.5625000000000718 0.4375000000001574 0
256 0.5625000000002468 0.5000000000001653 0
257 0.562500000000422 0.5625000000000716 0
258 0.562500000000597 0.6249999999999746 0
259 0.5625000000007722 0.687499999999878 0
260 0.5625000000009471 0.749999999999781 0
261 0.5625000000011223 0.8124999999996838 0
262 0.5625000000012973 0.8749999999995963 0
263 0.5625000000014725 0.9374999999997934 0
264 0.6249999999991486 0.06250000000001812 0
265 0.6249999999992862 0.1250000000000533 0
266 0.624999999999424 0.1875000000000385 0
267 0.6249999999995616 0.2500000000000219 0
268 0.6249999999996995 0.3125000000000056 0
269 0.624999999999837 0.3749999999999892 0
270 0.6249999999999748 0.4374999999999727 0
271 0.6250000000001125 0.4999999999999548 0
272 0.6250000000002501 0.5624999999998966 0
273 0.6250000000003878 0.6249999999998369 0
274 0.6250000000005255 0.6874999999997776 0
275 0.6250000000006634 0.7499999999997179 0
276 0.625000000000801 0.8124999999996583 0
277 0.6250000000009387 0.874999999999607 0
278 0.6250000000010764 0.9374999999997996 0
279 0.6874999999992759 0.06249999999999392 0
280 0.6874999999993768 0.1250000000000067 0
281 0.6874999999994766 0.1874999999999643 0
282 0.6874999999995768 0.2499999999999201 0
283 0.6874999999996773 0.3124999999998761 0
284 0.6874999999997775 0.374999999999832 0
285 0.687499999999878 0.4374999999997878 0
286 0.6874999999999781 0.4999999999997445 0
287 0.6875000000000783 0.5624999999997217 0
288 0.6875000000001786 0.6249999999996992 0
289 0.687500000000279 0.6874999999996773 0
290 0.6875000000003794 0.7499999999996553 0
291 0.6875000000004797 0.812499999999633 0
292 0.6875000000005799 0.8749999999996174 0
293 0.6875000000006802 0.9374999999998054 0
294 0.7499999999994033 0.06249999999996972 0
295 0.7499999999994664 0.1249999999999599 0
296 0.749999999999529 0.1874999999998901 0
297 0.749999999999592 0.2499999999998183 0
298 0.7499999999996552 0.3124999999997465 0
299 0.7499999999997181 0.3749999999996749 0
300 0.7499999999997812 0.437499999999603 0
301 0.7499999999998438 0.4999999999995339 0
302 0.7499999999999071 0.5624999999995463 0
303 0.7499999999999697 0.6249999999995616 0
304 0.7500000000000325 0.6874999999995769 0
305 0.7500000000000953 0.7499999999995921 0
306 0.7500000000001583 0.8124999999996074 0
307 0.7500000000002213 0.8749999999996279 0
308 0.7500000000002841 0.9374999999998112 0
309 0.8124999999995313 0.06249999999994552 0
310 0.8124999999995567 0.1249999999999132 0
311 0.8124999999995821 0.1874999999998159 0
312 0.8124999999996071 0.2499999999997165 0
313 0.812499999999633 0.3124999999996171 0
314 0.8124999999996583 0.3749999999995178 0
315 0.812499999999684 0.4374999999994181 0
316 0.8124999999997093 0.4999999999993235 0
317 0.8124999999997349 0.5624999999993713 0
318 0.8124999999997602 0.6249999999994239 0
319 0.8124999999997857 0.6874999999994765 0
320 0.8124999999998113 0.7499999999995294 0
321 0.8124999999998368 0.8124999999995819 0
322 0.8124999999998623 0.8749999999996385 0
323 0.8124999999998879 0.9374999999998175 0
324 0.8749999999996598 0.06249999999992131 0
325 0.8749999999996486 0.1249999999998665 0
326 0.8749999999996384 0.1874999999997418 0
327 0.874999999999628 0.2499999999996146 0
328 0.8749999999996174 0.3124999999994875 0
329 0.8749999999996071 0.3749999999993605 0
330 0.8749999999995963 0.4374999999992333 0
331 0.8749999999995857 0.499999999999113 0
332 0.8749999999995752 0.5624999999991963 0
333 0.8749999999995646 0.6249999999992862 0
334 0.8749999999995541 0.6874999999993762 0
335 0.8749999999995435 0.7499999999994665 0
336 0.8749999999995328 0.8124999999995566 0
337 0.8749999999995222 0.8749999999996492 0
338 0.8749999999995117 0.9374999999998231 0
339 0.9374999999998296 0.06249999999989711 0
340 0.9374999999998234 0.1249999999998198 0
341 0.9374999999998174 0.1874999999996675 0
342 0.937499999999811 0.2499999999995128 0
343 0.9374999999998053 0.3124999999993581 0
344 0.9374999999997992 0.3749999999992032 0
345 0.9374999999997933 0.4374999999990485 0
346 0.9374999999997874 0.4999999999989025 0
347 0.9374999999997815 0.5624999999990211 0
348 0.9374999999997758 0.6249999999991486 0
349 0.9374999999997696 0.687499999999276 0
350 0.9374999999997636 0.7499999999994035 0
351 0.9374999999997576 0.8124999999995308 0
352 0.9374999999997516 0.8749999999996598 0
353 0.9374999999997459 0.9374999999998294 0
354 0.06249999999988502 0.03125000000011791 0
355 0.03124999999994856 0.06250000000024802 0
356 0.03124999999994518 0.03125000000012401 0
357 0.06249999999990921 0.09375000000035473 0
358 0.03124999999996066 0.1250000000004969 0
359 0.03124999999995461 0.09375000000037248 0
360 0.06249999999993341 0.1562500000005899 0
361 0.03124999999997276 0.1875000000007433 0
362 0.03124999999996671 0.1562500000006201 0
363 0.06249999999995761 0.2187500000008225 0
364 0.03124999999998487 0.2500000000009895 0
365 0.0312499999999788 0.2187500000008664 0
366 0.06249999999998182 0.2812500000010549 0
367 0.03124999999999697 0.312500000001236 0
368 0.03124999999999091 0.2812500000011128 0
369 0.06250000000000602 0.3437500000012874 0
370 0.03125000000000908 0.3750000000014823 0
371 0.03125000000000301 0.3437500000013591 0
372 0.06250000000003023 0.40625000000152 0
373 0.03125000000002118 0.4375000000017286 0
374 0.03125000000001511 0.4062500000016053 0
375 0.06250000000005443 0.4687500000017426 0
376 0.03125000000003329 0.5000000000019542 0
377 0.0312500000000272 0.4687500000018414 0
378 0.0625000000000786 0.5312500000016608 0
379 0.03125000000004539 0.5625000000015601 0
380 0.03125000000003932 0.5312500000017422 0
381 0.06250000000010283 0.5937500000012744 0
382 0.0312500000000575 0.6250000000011452 0
383 0.0312500000000514 0.5937500000013951 0
384 0.06250000000012704 0.6562500000008782 0
385 0.0312500000000696 0.6875000000007304 0
386 0.0312500000000635 0.6562500000009263 0
387 0.06250000000015123 0.7187500000004821 0
388 0.0312500000000817 0.7500000000003156 0
389 0.03125000000007561 0.7187500000005245 0
390 0.06250000000017542 0.7812500000000858 0
391 0.03125000000009372 0.8124999999999004 0
392 0.03125000000008771 0.7812500000000944 0
393 0.06250000000019962 0.8437499999996998 0
394 0.03125000000010592 0.8749999999995067 0
395 0.03125000000009981 0.8437499999997078 0
396 0.06250000000022382 0.906249999999629 0
397 0.03125000000011791 0.9374999999997428 0
398 0.03125000000011191 0.9062499999996528 0
399 0.06250000000024802 0.968749999999873 0
400 0.03125000000012401 0.96874999999987 0
401 0.1249999999997965 0.03125000000010592 0
402 0.09374999999985845 0.06250000000022382 0
403 0.09374999999984077 0.03125000000011191 0
404 0.1249999999998432 0.09375000000031931 0
405 0.09374999999989392 0.1250000000004502 0
406 0.09374999999987622 0.09375000000033706 0
407 0.1249999999998899 0.1562500000005294 0
408 0.09374999999992939 0.187500000000669 0
409 0.09374999999991167 0.1562500000005596 0
410 0.1249999999999366 0.2187500000007344 0
411 0.09374999999996485 0.2500000000008877 0
412 0.09374999999994707 0.2187500000007785 0
413 0.1249999999999832 0.2812500000009392 0
414 0.09375000000000025 0.3125000000011064 0
415 0.09374999999998253 0.2812500000009971 0
416 0.1250000000000299 0.3437500000011441 0
417 0.09375000000003575 0.3750000000013251 0
418 0.09375000000001799 0.3437500000012157 0
419 0.1250000000000767 0.406250000001349 0
420 0.09375000000007117 0.4375000000015438 0
421 0.09375000000005346 0.4062500000014344 0
422 0.1250000000001233 0.468750000001545 0
423 0.09375000000010658 0.5000000000017438 0
424 0.0937500000000889 0.4687500000016438 0
425 0.12500000000017 0.5312500000014679 0
426 0.09375000000014208 0.5625000000013849 0
427 0.09375000000012434 0.5312500000015643 0
428 0.1250000000002167 0.593750000001118 0
429 0.09375000000017752 0.6250000000010075 0
430 0.09375000000015979 0.593750000001196 0
431 0.1250000000002634 0.6562500000007593 0
432 0.09375000000021294 0.6875000000006299 0
433 0.09375000000019518 0.6562500000008188 0
434 0.1250000000003101 0.7187500000004006 0
435 0.09375000000024837 0.7500000000002525 0
436 0.0937500000002307 0.7187500000004412 0
437 0.1250000000003568 0.7812500000000415 0
438 0.09375000000028387 0.8124999999998749 0
439 0.09375000000026612 0.7812500000000637 0
440 0.1250000000004035 0.8437499999996922 0
441 0.09375000000031929 0.8749999999995171 0
442 0.09375000000030154 0.843749999999696 0
443 0.1250000000004502 0.906249999999637 0
444 0.09375000000035473 0.9374999999997489 0
445 0.09375000000033705 0.906249999999633 0
446 0.1250000000004969 0.9687499999998759 0
447 0.09375000000037248 0.9687499999998745 0
448 0.1874999999996305 0.0312500000000937 0
449 0.1562499999997437 0.06250000000019962 0
450 0.1562499999997135 0.03125000000009981 0
451 0.1874999999997047 0.0937500000002838 0
452 0.1562499999998042 0.1250000000004034 0
453 0.1562499999997739 0.09375000000030154 0
454 0.1874999999997788 0.1562500000004689 0
455 0.1562499999998646 0.1875000000005949 0
456 0.1562499999998344 0.1562500000004992 0
457 0.187499999999853 0.2187500000006464 0
458 0.156249999999925 0.2500000000007859 0
459 0.1562499999998947 0.2187500000006903 0
460 0.1874999999999272 0.2812500000008236 0
461 0.1562499999999855 0.312500000000977 0
462 0.1562499999999552 0.2812500000008815 0
463 0.1875000000000014 0.3437500000010008 0
464 0.156250000000046 0.3750000000011679 0
465 0.1562500000000157 0.3437500000010724 0
466 0.1875000000000756 0.4062500000011779 0
467 0.1562500000001064 0.4375000000013589 0
468 0.1562500000000761 0.4062500000012634 0
469 0.1875000000001498 0.4687500000013474 0
470 0.1562500000001668 0.5000000000015333 0
471 0.1562500000001366 0.4687500000014461 0
472 0.187500000000224 0.5312500000012752 0
473 0.1562500000002272 0.5625000000012098 0
474 0.156250000000197 0.5312500000013716 0
475 0.1875000000002982 0.5937500000009617 0
476 0.1562500000002877 0.6250000000008699 0
477 0.1562500000002575 0.5937500000010398 0
478 0.1875000000003723 0.6562500000006405 0
479 0.1562500000003482 0.6875000000005299 0
480 0.1562500000003179 0.6562500000006998 0
481 0.1875000000004465 0.7187500000003191 0
482 0.1562500000004086 0.7500000000001897 0
483 0.1562500000003783 0.7187500000003598 0
484 0.1875000000005208 0.7812499999999976 0
485 0.156250000000469 0.8124999999998495 0
486 0.1562500000004388 0.7812500000000195 0
487 0.1875000000005949 0.8437499999996849 0
488 0.1562500000005294 0.8749999999995277 0
489 0.1562500000004991 0.8437499999996887 0
490 0.1875000000006691 0.9062499999996453 0
491 0.1562500000005899 0.9374999999997546 0
492 0.1562500000005596 0.9062499999996411 0
493 0.1875000000007433 0.9687499999998789 0
494 0.1562500000006201 0.9687499999998774 0
495 0.2499999999994619 0.0312500000000817 0
496 0.2187499999995902 0.06250000000017542 0
497 0.2187499999995461 0.03125000000008771 0
498 0.2499999999995637 0.09375000000024845 0
499 0.2187499999996783 0.1250000000003568 0
500 0.2187499999996342 0.09375000000026611 0
501 0.2499999999996656 0.1562500000004086 0
502 0.2187499999997662 0.1875000000005208 0
503 0.2187499999997222 0.1562500000004388 0
504 0.2499999999997674 0.2187500000005584 0
505 0.2187499999998542 0.2500000000006841 0
506 0.2187499999998102 0.2187500000006024 0
507 0.2499999999998693 0.2812500000007078 0
508 0.2187499999999423 0.3125000000008474 0
509 0.2187499999998983 0.2812500000007659 0
510 0.2499999999999711 0.3437500000008574 0
511 0.2187500000000302 0.3750000000010107 0
512 0.2187499999999862 0.343750000000929 0
513 0.2500000000000729 0.4062500000010069 0
514 0.2187500000001182 0.437500000001174 0
515 0.2187500000000743 0.4062500000010924 0
516 0.2500000000001748 0.4687500000011496 0
517 0.2187500000002063 0.5000000000013229 0
518 0.2187500000001623 0.4687500000012486 0
519 0.2500000000002767 0.5312500000010825 0
520 0.2187500000002943 0.5625000000010347 0
521 0.2187500000002502 0.5312500000011788 0
522 0.2500000000003785 0.5937500000008054 0
523 0.2187500000003823 0.6250000000007322 0
524 0.2187500000003383 0.5937500000008835 0
525 0.2500000000004803 0.6562500000005214 0
526 0.2187500000004704 0.6875000000004298 0
527 0.2187500000004263 0.6562500000005809 0
528 0.2500000000005822 0.7187500000002374 0
529 0.2187500000005584 0.750000000000127 0
530 0.2187500000005144 0.7187500000002782 0
531 0.250000000000684 0.7812499999999534 0
532 0.2187500000006464 0.812499999999824 0
533 0.2187500000006024 0.7812499999999754 0
534 0.2500000000007858 0.8437499999996774 0
535 0.2187500000007343 0.8749999999995384 0
536 0.2187500000006904 0.8437499999996811 0
537 0.2500000000008877 0.9062499999996536 0
538 0.2187500000008224 0.9374999999997606 0
539 0.2187500000007784 0.9062499999996496 0
540 0.2500000000009895 0.9687499999998819 0
541 0.2187500000008664 0.9687499999998803 0
542 0.3124999999992932 0.0312500000000696 0
543 0.2812499999994353 0.0625000000001512 0
544 0.2812499999993774 0.03125000000007561 0
545 0.3124999999994228 0.09375000000021294 0
546 0.2812499999995511 0.1250000000003102 0
547 0.2812499999994933 0.0937500000002307 0
548 0.3124999999995524 0.1562500000003481 0
549 0.2812499999996668 0.1875000000004465 0
550 0.281249999999609 0.1562500000003784 0
551 0.3124999999996819 0.2187500000004702 0
552 0.2812499999997825 0.2500000000005822 0
553 0.2812499999997247 0.2187500000005144 0
554 0.3124999999998114 0.2812500000005922 0
555 0.2812499999998982 0.3125000000007178 0
556 0.2812499999998403 0.2812500000006502 0
557 0.3124999999999408 0.3437500000007141 0
558 0.2812500000000138 0.3750000000008535 0
559 0.281249999999956 0.3437500000007857 0
560 0.3125000000000704 0.4062500000008359 0
561 0.2812500000001295 0.4375000000009892 0
562 0.2812500000000716 0.4062500000009214 0
563 0.3125000000001998 0.468750000000952 0
564 0.2812500000002452 0.5000000000011124 0
565 0.2812500000001874 0.4687500000010509 0
566 0.3125000000003294 0.5312500000008895 0
567 0.2812500000003608 0.5625000000008595 0
568 0.281250000000303 0.531250000000986 0
569 0.3125000000004589 0.5937500000006488 0
570 0.2812500000004765 0.6250000000005945 0
571 0.2812500000004187 0.593750000000727 0
572 0.3125000000005885 0.6562500000004023 0
573 0.2812500000005922 0.6875000000003292 0
574 0.2812500000005344 0.6562500000004619 0
575 0.3125000000007179 0.7187500000001558 0
576 0.2812500000007079 0.7500000000000639 0
577 0.28125000000065 0.7187500000001965 0
578 0.3125000000008474 0.7812499999999092 0
579 0.2812500000008236 0.8124999999997985 0
580 0.2812500000007657 0.7812499999999312 0
581 0.3125000000009769 0.8437499999996699 0
582 0.2812500000009391 0.8749999999995488 0
583 0.2812500000008812 0.8437499999996738 0
584 0.3125000000011064 0.9062499999996619 0
585 0.2812500000010549 0.9374999999997666 0
586 0.2812500000009971 0.9062499999996576 0
587 0.312500000001236 0.9687499999998849 0
588 0.2812500000011128 0.9687499999998834 0
589 0.3749999999991248 0.0312500000000575 0
590 0.3437499999992805 0.06250000000012704 0
591 0.343749999999209 0.03125000000006352 0
592 0.3749999999992818 0.09375000000017752 0
593 0.343749999999424 0.1250000000002634 0
594 0.3437499999993523 0.0937500000001952 0
595 0.374999999999439 0.1562500000002877 0
596 0.3437499999995673 0.1875000000003724 0
597 0.3437499999994956 0.1562500000003178 0
598 0.3749999999995962 0.2187500000003823 0
599 0.3437499999997108 0.2500000000004803 0
600 0.3437499999996391 0.2187500000004263 0
601 0.3749999999997534 0.2812500000004765 0
602 0.3437499999998541 0.3125000000005885 0
603 0.3437499999997824 0.2812500000005344 0
604 0.3749999999999105 0.3437500000005706 0
605 0.3437499999999973 0.3750000000006964 0
606 0.3437499999999257 0.3437500000006423 0
607 0.3750000000000676 0.4062500000006649 0
608 0.3437500000001407 0.4375000000008045 0
609 0.343750000000069 0.4062500000007504 0
610 0.375000000000225 0.4687500000007543 0
611 0.3437500000002841 0.5000000000009018 0
612 0.3437500000002124 0.4687500000008532 0
613 0.3750000000003821 0.5312500000006968 0
614 0.3437500000004274 0.5625000000006845 0
615 0.3437500000003557 0.5312500000007931 0
616 0.3750000000005393 0.5937500000004925 0
617 0.3437500000005708 0.6250000000004567 0
618 0.343750000000499 0.5937500000005707 0
619 0.3750000000006964 0.6562500000002832 0
620 0.3437500000007141 0.6875000000002287 0
621 0.3437500000006425 0.6562500000003428 0
622 0.3750000000008535 0.7187500000000742 0
623 0.3437500000008574 0.7500000000000011 0
624 0.3437500000007857 0.718750000000115 0
625 0.3750000000010107 0.781249999999865 0
626 0.3437500000010008 0.8124999999997731 0
627 0.343750000000929 0.781249999999887 0
628 0.375000000001168 0.8437499999996625 0
629 0.3437500000011441 0.8749999999995595 0
630 0.3437500000010724 0.8437499999996663 0
631 0.3750000000013252 0.90624999999967 0
632 0.3437500000012875 0.9374999999997726 0
633 0.3437500000012158 0.906249999999666 0
634 0.3750000000014823 0.9687499999998876 0
635 0.3437500000013591 0.9687499999998863 0
636 0.4374999999989561 0.03125000000004539 0
637 0.4062499999991258 0.06250000000010283 0
638 0.4062499999990404 0.03125000000005142 0
639 0.4374999999991407 0.09375000000014208 0
640 0.4062499999992968 0.1250000000002167 0
641 0.4062499999992113 0.09375000000015979 0
642 0.4374999999993257 0.1562500000002272 0
643 0.4062499999994679 0.1875000000002982 0
644 0.4062499999993825 0.1562500000002573 0
645 0.4374999999995106 0.2187500000002943 0
646 0.406249999999639 0.2500000000003785 0
647 0.4062499999995535 0.2187500000003383 0
648 0.4374999999996955 0.2812500000003608 0
649 0.4062499999998099 0.3125000000004589 0
650 0.4062499999997244 0.2812500000004187 0
651 0.4374999999998802 0.3437500000004274 0
652 0.4062499999999808 0.3750000000005392 0
653 0.4062499999998954 0.343750000000499 0
654 0.4375000000000649 0.4062500000004939 0
655 0.4062500000001519 0.4375000000006194 0
656 0.4062500000000663 0.4062500000005794 0
657 0.4375000000002498 0.4687500000005567 0
658 0.4062500000003229 0.5000000000006913 0
659 0.4062500000002373 0.4687500000006554 0
660 0.4375000000004348 0.531250000000504 0
661 0.4062500000004939 0.5625000000005095 0
662 0.4062500000004085 0.5312500000006004 0
663 0.4375000000006196 0.5937500000003362 0
664 0.4062500000006649 0.6250000000003191 0
665 0.4062500000005794 0.5937500000004143 0
666 0.4375000000008044 0.6562500000001643 0
667 0.4062500000008359 0.6875000000001283 0
668 0.4062500000007504 0.6562500000002238 0
669 0.4375000000009892 0.7187499999999925 0
670 0.4062500000010069 0.7499999999999382 0
671 0.4062500000009215 0.7187500000000333 0
672 0.4375000000011741 0.7812499999998208 0
673 0.4062500000011778 0.8124999999997476 0
674 0.4062500000010923 0.781249999999843 0
675 0.437500000001359 0.8437499999996549 0
676 0.4062500000013489 0.8749999999995699 0
677 0.4062500000012635 0.8437499999996588 0
678 0.4375000000015436 0.9062499999996783 0
679 0.4062500000015199 0.9374999999997784 0
680 0.4062500000014344 0.9062499999996743 0
681 0.4375000000017287 0.9687499999998906 0
682 0.4062500000016054 0.9687499999998892 0
683 0.4999999999987973 0.03125000000003329 0
684 0.4687499999989755 0.06250000000007863 0
685 0.4687499999988768 0.03125000000003932 0
686 0.4999999999990078 0.09375000000010661 0
687 0.4687499999991731 0.12500000000017 0
688 0.4687499999990742 0.09375000000012432 0
689 0.4999999999992183 0.1562500000001668 0
690 0.4687499999993708 0.1875000000002239 0
691 0.4687499999992719 0.156250000000197 0
692 0.4999999999994288 0.2187500000002063 0
693 0.4687499999995685 0.2500000000002767 0
694 0.4687499999994696 0.2187500000002502 0
695 0.4999999999996392 0.2812500000002451 0
696 0.4687499999997663 0.3125000000003294 0
697 0.4687499999996674 0.281250000000303 0
698 0.4999999999998497 0.3437500000002841 0
699 0.4687499999999638 0.3750000000003822 0
700 0.468749999999865 0.3437500000003557 0
701 0.5000000000000601 0.4062500000003229 0
702 0.4687500000001615 0.4375000000004348 0
703 0.4687500000000625 0.4062500000004083 0
704 0.5000000000002706 0.468750000000359 0
705 0.468750000000359 0.5000000000004809 0
706 0.4687500000002601 0.4687500000004579 0
707 0.5000000000004811 0.5312500000003113 0
708 0.4687500000005568 0.5625000000003344 0
709 0.468750000000458 0.5312500000004077 0
710 0.5000000000006916 0.5937500000001796 0
711 0.4687500000007542 0.6250000000001814 0
712 0.4687500000006555 0.5937500000002579 0
713 0.5000000000009019 0.6562500000000453 0
714 0.4687500000009518 0.6875000000000282 0
715 0.4687500000008532 0.6562500000001048 0
716 0.5000000000011123 0.718749999999911 0
717 0.4687500000011496 0.7499999999998752 0
718 0.4687500000010507 0.7187499999999517 0
719 0.5000000000013228 0.7812499999997766 0
720 0.4687500000013473 0.8124999999997221 0
721 0.4687500000012484 0.7812499999997986 0
722 0.5000000000015333 0.8437499999996475 0
723 0.468750000001545 0.8749999999995803 0
724 0.4687500000014462 0.8437499999996512 0
725 0.5000000000017438 0.9062499999996867 0
726 0.4687500000017426 0.9374999999997844 0
727 0.4687500000016437 0.9062499999996823 0
728 0.5000000000019542 0.9687499999998939 0
729 0.4687500000018414 0.9687499999998923 0
730 0.5624999999989335 0.03125000000002118 0
731 0.5312499999989619 0.06250000000005443 0
732 0.5312499999988654 0.03125000000002721 0
733 0.5624999999991086 0.09375000000007117 0
734 0.5312499999991545 0.1250000000001233 0
735 0.5312499999990581 0.0937500000000889 0
736 0.5624999999992837 0.1562500000001064 0
737 0.5312499999993474 0.1875000000001498 0
738 0.5312499999992509 0.1562500000001366 0
739 0.5624999999994589 0.2187500000001184 0
740 0.5312499999995403 0.2500000000001748 0
741 0.5312499999994439 0.2187500000001623 0
742 0.5624999999996341 0.2812500000001296 0
743 0.5312499999997331 0.3125000000001998 0
744 0.5312499999996366 0.2812500000001875 0
745 0.562499999999809 0.3437500000001407 0
746 0.5312499999999257 0.375000000000225 0
747 0.5312499999998294 0.3437500000002124 0
748 0.5624999999999842 0.4062500000001519 0
749 0.5312500000001186 0.4375000000002497 0
750 0.5312500000000222 0.4062500000002374 0
751 0.5625000000001593 0.4687500000001614 0
752 0.5312500000003113 0.5000000000002706 0
753 0.5312500000002149 0.4687500000002601 0
754 0.5625000000003344 0.5312500000001185 0
755 0.5312500000005042 0.5625000000001592 0
756 0.5312500000004078 0.5312500000002148 0
757 0.5625000000005095 0.5937500000000231 0
758 0.5312500000006969 0.6250000000000435 0
759 0.5312500000006005 0.5937500000001014 0
760 0.5625000000006846 0.6562499999999263 0
761 0.5312500000008896 0.6874999999999281 0
762 0.5312500000007933 0.6562499999999858 0
763 0.5625000000008596 0.7187499999998295 0
764 0.5312500000010824 0.7499999999998124 0
765 0.531250000000986 0.7187499999998702 0
766 0.5625000000010347 0.7812499999997324 0
767 0.5312500000012752 0.8124999999996966 0
768 0.5312500000011787 0.7812499999997546 0
769 0.5625000000012098 0.8437499999996401 0
770 0.5312500000014679 0.874999999999591 0
771 0.5312500000013716 0.8437499999996438 0
772 0.5625000000013849 0.9062499999996949 0
773 0.5312500000016608 0.9374999999997905 0
774 0.5312500000015643 0.9062499999996907 0
775 0.5625000000015601 0.9687499999998967 0
776 0.5312500000017422 0.9687499999998954 0
777 0.6249999999990797 0.03125000000000908 0
778 0.5937499999990848 0.06250000000003023 0
779 0.5937499999990068 0.03125000000001511 0
780 0.6249999999992174 0.09375000000003572 0
781 0.5937499999992413 0.1250000000000766 0
782 0.593749999999163 0.09375000000005343 0
783 0.624999999999355 0.1562500000000459 0
784 0.5937499999993974 0.1875000000000756 0
785 0.5937499999993197 0.1562500000000761 0
786 0.6249999999994927 0.2187500000000303 0
787 0.5937499999995541 0.2500000000000731 0
788 0.5937499999994758 0.2187500000000743 0
789 0.6249999999996305 0.2812500000000138 0
790 0.5937499999997105 0.3125000000000704 0
791 0.5937499999996323 0.2812500000000718 0
792 0.6249999999997682 0.3437499999999973 0
793 0.5937499999998668 0.3750000000000678 0
794 0.5937499999997886 0.3437500000000691 0
795 0.6249999999999059 0.4062499999999809 0
796 0.5937500000000233 0.4375000000000651 0
797 0.593749999999945 0.4062500000000664 0
798 0.6250000000000437 0.4687499999999638 0
799 0.5937500000001796 0.5000000000000601 0
800 0.5937500000001015 0.4687500000000626 0
801 0.6250000000001813 0.5312499999999257 0
802 0.5937500000003361 0.5624999999999841 0
803 0.5937500000002579 0.5312500000000221 0
804 0.625000000000319 0.5937499999998668 0
805 0.5937500000004924 0.6249999999999057 0
806 0.5937500000004142 0.5937499999999449 0
807 0.6250000000004566 0.6562499999998073 0
808 0.5937500000006488 0.6874999999998278 0
809 0.5937500000005705 0.6562499999998668 0
810 0.6250000000005944 0.7187499999997478 0
811 0.5937500000008052 0.7499999999997494 0
812 0.593750000000727 0.7187499999997886 0
813 0.6250000000007322 0.781249999999688 0
814 0.5937500000009617 0.812499999999671 0
815 0.5937500000008835 0.7812499999997102 0
816 0.6250000000008699 0.8437499999996327 0
817 0.593750000001118 0.8749999999996017 0
818 0.5937500000010398 0.8437499999996363 0
819 0.6250000000010075 0.9062499999997033 0
820 0.5937500000012744 0.9374999999997965 0
821 0.5937500000011962 0.9062499999996991 0
822 0.6250000000011452 0.9687499999998999 0
823 0.5937500000013951 0.9687499999998983 0
824 0.6874999999992261 0.03124999999999697 0
825 0.6562499999992124 0.06250000000000602 0
826 0.656249999999153 0.03125000000000301 0
827 0.6874999999993262 0.09375000000000028 0
828 0.6562499999993314 0.1250000000000299 0
829 0.6562499999992719 0.09375000000001799 0
830 0.6874999999994267 0.1562499999999855 0
831 0.6562499999994501 0.1875000000000014 0
832 0.6562499999993909 0.1562500000000157 0
833 0.6874999999995268 0.2187499999999422 0
834 0.6562499999995692 0.2499999999999711 0
835 0.6562499999995097 0.2187499999999862 0
836 0.6874999999996271 0.2812499999998981 0
837 0.6562499999996881 0.3124999999999408 0
838 0.6562499999996289 0.2812499999999559 0
839 0.6874999999997273 0.343749999999854 0
840 0.6562499999998073 0.3749999999999105 0
841 0.6562499999997478 0.3437499999999257 0
842 0.6874999999998277 0.4062499999998099 0
843 0.6562499999999265 0.4374999999998803 0
844 0.6562499999998668 0.4062499999998954 0
845 0.6874999999999281 0.4687499999997662 0
846 0.6562500000000453 0.4999999999998497 0
847 0.656249999999986 0.468749999999865 0
848 0.6875000000000282 0.5312499999997331 0
849 0.6562500000001642 0.5624999999998092 0
850 0.6562500000001048 0.5312499999998295 0
851 0.6875000000001285 0.5937499999997105 0
852 0.6562500000002832 0.6249999999997681 0
853 0.6562500000002237 0.5937499999997886 0
854 0.6875000000002288 0.6562499999996882 0
855 0.6562500000004022 0.6874999999997274 0
856 0.6562500000003427 0.6562499999997478 0
857 0.6875000000003292 0.7187499999996663 0
858 0.6562500000005214 0.7499999999996866 0
859 0.6562500000004617 0.718749999999707 0
860 0.6875000000004297 0.7812499999996441 0
861 0.6562500000006404 0.8124999999996456 0
862 0.6562500000005809 0.781249999999666 0
863 0.6875000000005298 0.8437499999996252 0
864 0.6562500000007593 0.8749999999996122 0
865 0.6562500000006998 0.843749999999629 0
866 0.6875000000006299 0.9062499999997113 0
867 0.6562500000008783 0.9374999999998025 0
868 0.6562500000008188 0.9062499999997073 0
869 0.6875000000007303 0.9687499999999027 0
870 0.6562500000009261 0.9687499999999014 0
871 0.7499999999993721 0.03124999999998487 0
872 0.7187499999993396 0.06249999999998182 0
873 0.718749999999299 0.03124999999999091 0
874 0.7499999999994351 0.09374999999996481 0
875 0.7187499999994216 0.1249999999999833 0
876 0.7187499999993807 0.09374999999998254 0
877 0.7499999999994977 0.156249999999925 0
878 0.7187499999995031 0.1874999999999272 0
879 0.7187499999994624 0.1562499999999552 0
880 0.7499999999995608 0.2187499999998542 0
881 0.7187499999995846 0.2499999999998692 0
882 0.7187499999995439 0.2187499999998982 0
883 0.7499999999996236 0.2812499999997824 0
884 0.7187499999996663 0.3124999999998112 0
885 0.7187499999996254 0.2812499999998402 0
886 0.7499999999996867 0.3437499999997107 0
887 0.7187499999997478 0.3749999999997534 0
888 0.7187499999997069 0.3437499999997825 0
889 0.7499999999997494 0.406249999999639 0
890 0.7187499999998295 0.4374999999996953 0
891 0.7187499999997886 0.4062499999997244 0
892 0.7499999999998124 0.4687499999995685 0
893 0.718749999999911 0.4999999999996392 0
894 0.7187499999998702 0.4687499999996673 0
895 0.7499999999998751 0.5312499999995401 0
896 0.7187499999999926 0.562499999999634 0
897 0.7187499999999518 0.5312499999996365 0
898 0.7499999999999383 0.5937499999995539 0
899 0.7187500000000742 0.6249999999996304 0
900 0.7187500000000334 0.5937499999996322 0
901 0.7500000000000011 0.6562499999995692 0
902 0.7187500000001558 0.6874999999996271 0
903 0.718750000000115 0.6562499999996287 0
904 0.7500000000000639 0.7187499999995846 0
905 0.7187500000002374 0.7499999999996236 0
906 0.7187500000001966 0.7187499999996254 0
907 0.7500000000001268 0.7812499999995997 0
908 0.7187500000003191 0.8124999999996202 0
909 0.7187500000002782 0.7812499999996219 0
910 0.7500000000001898 0.8437499999996176 0
911 0.7187500000004006 0.8749999999996226 0
912 0.7187500000003598 0.8437499999996214 0
913 0.7500000000002527 0.9062499999997196 0
914 0.7187500000004822 0.9374999999998082 0
915 0.7187500000004413 0.9062499999997154 0
916 0.7500000000003155 0.9687499999999056 0
917 0.7187500000005245 0.9687499999999043 0
918 0.8124999999995183 0.03124999999997276 0
919 0.7812499999994672 0.06249999999995762 0
920 0.7812499999994449 0.03124999999997881 0
921 0.8124999999995438 0.09374999999992936 0
922 0.7812499999995115 0.1249999999999366 0
923 0.7812499999994893 0.09374999999994706 0
924 0.8124999999995693 0.1562499999998646 0
925 0.7812499999995557 0.187499999999853 0
926 0.7812499999995338 0.1562499999998948 0
927 0.8124999999995945 0.2187499999997662 0
928 0.7812499999995997 0.2499999999997674 0
929 0.7812499999995777 0.2187499999998102 0
930 0.8124999999996201 0.2812499999996668 0
931 0.7812499999996441 0.3124999999996818 0
932 0.781249999999622 0.2812499999997246 0
933 0.8124999999996456 0.3437499999995673 0
934 0.781249999999688 0.3749999999995963 0
935 0.781249999999666 0.3437499999996391 0
936 0.8124999999996712 0.4062499999994679 0
937 0.7812499999997324 0.4374999999995106 0
938 0.7812499999997102 0.4062499999995534 0
939 0.8124999999996967 0.4687499999993708 0
940 0.7812499999997766 0.4999999999994286 0
941 0.7812499999997546 0.4687499999994696 0
942 0.8124999999997221 0.5312499999993474 0
943 0.7812499999998208 0.5624999999994588 0
944 0.7812499999997989 0.5312499999994438 0
945 0.8124999999997475 0.5937499999993976 0
946 0.781249999999865 0.6249999999994927 0
947 0.7812499999998431 0.5937499999994758 0
948 0.8124999999997731 0.6562499999994502 0
949 0.7812499999999092 0.6874999999995267 0
950 0.781249999999887 0.6562499999995097 0
951 0.8124999999997985 0.718749999999503 0
952 0.7812499999999533 0.7499999999995608 0
953 0.7812499999999311 0.7187499999995438 0
954 0.812499999999824 0.7812499999995557 0
955 0.7812499999999976 0.8124999999995947 0
956 0.7812499999999754 0.7812499999995777 0
957 0.8124999999998496 0.8437499999996102 0
958 0.7812500000000417 0.8749999999996332 0
959 0.7812500000000198 0.843749999999614 0
960 0.8124999999998751 0.906249999999728 0
961 0.7812500000000859 0.9374999999998144 0
962 0.7812500000000637 0.9062499999997238 0
963 0.8124999999999005 0.9687499999999087 0
964 0.7812500000000941 0.9687499999999072 0
965 0.874999999999665 0.03124999999996066 0
966 0.8437499999995954 0.06249999999993341 0
967 0.8437499999995917 0.03124999999996671 0
968 0.8749999999996543 0.09374999999989392 0
969 0.8437499999996028 0.1249999999998899 0
970 0.8437499999995992 0.09374999999991161 0
971 0.8749999999996436 0.1562499999998042 0
972 0.8437499999996105 0.1874999999997788 0
973 0.8437499999996065 0.1562499999998344 0
974 0.8749999999996333 0.2187499999996782 0
975 0.8437499999996176 0.2499999999996656 0
976 0.8437499999996142 0.2187499999997222 0
977 0.8749999999996227 0.2812499999995511 0
978 0.843749999999625 0.3124999999995523 0
979 0.8437499999996214 0.2812499999996089 0
980 0.8749999999996122 0.343749999999424 0
981 0.8437499999996325 0.3749999999994391 0
982 0.843749999999629 0.3437499999994957 0
983 0.8749999999996017 0.4062499999992969 0
984 0.8437499999996401 0.4374999999993257 0
985 0.8437499999996365 0.4062499999993824 0
986 0.874999999999591 0.4687499999991732 0
987 0.8437499999996475 0.4999999999992183 0
988 0.8437499999996438 0.468749999999272 0
989 0.8749999999995804 0.5312499999991547 0
990 0.8437499999996551 0.5624999999992838 0
991 0.8437499999996513 0.531249999999251 0
992 0.8749999999995699 0.5937499999992413 0
993 0.8437499999996624 0.6249999999993551 0
994 0.8437499999996587 0.5937499999993194 0
995 0.8749999999995595 0.6562499999993312 0
996 0.84374999999967 0.6874999999994263 0
997 0.843749999999666 0.6562499999993907 0
998 0.8749999999995488 0.7187499999994214 0
999 0.8437499999996774 0.749999999999498 0
1000 0.8437499999996736 0.7187499999994622 0
1001 0.8749999999995381 0.7812499999995115 0
1002 0.8437499999996847 0.8124999999995692 0
1003 0.843749999999681 0.7812499999995337 0
1004 0.8749999999995275 0.8437499999996029 0
1005 0.8437499999996922 0.8749999999996438 0
1006 0.8437499999996886 0.8437499999996065 0
1007 0.8749999999995169 0.9062499999997362 0
1008 0.8437499999996998 0.9374999999998203 0
1009 0.843749999999696 0.906249999999732 0
1010 0.8749999999995064 0.9687499999999116 0
1011 0.8437499999997076 0.9687499999999103 0
1012 0.9374999999998324 0.03124999999994856 0
1013 0.9062499999997446 0.06249999999990921 0
1014 0.9062499999997484 0.03124999999995461 0
1015 0.9374999999998264 0.09374999999985843 0
1016 0.906249999999736 0.1249999999998432 0
1017 0.9062499999997404 0.0937499999998762 0
1018 0.9374999999998201 0.1562499999997437 0
1019 0.9062499999997278 0.1874999999997047 0
1020 0.906249999999732 0.1562499999997739 0
1021 0.9374999999998141 0.2187499999995902 0
1022 0.9062499999997196 0.2499999999995637 0
1023 0.9062499999997236 0.2187499999996342 0
1024 0.9374999999998082 0.2812499999994355 0
1025 0.9062499999997113 0.3124999999994228 0
1026 0.9062499999997156 0.2812499999994933 0
1027 0.9374999999998024 0.3437499999992807 0
1028 0.9062499999997032 0.3749999999992819 0
1029 0.9062499999997071 0.3437499999993523 0
1030 0.9374999999997964 0.4062499999991259 0
1031 0.9062499999996946 0.4374999999991409 0
1032 0.9062499999996989 0.4062499999992114 0
1033 0.9374999999997904 0.4687499999989754 0
1034 0.9062499999996865 0.4999999999990078 0
1035 0.9062499999996907 0.4687499999990743 0
1036 0.9374999999997845 0.5312499999989618 0
1037 0.9062499999996785 0.5624999999991087 0
1038 0.9062499999996825 0.5312499999990583 0
1039 0.9374999999997786 0.5937499999990848 0
1040 0.90624999999967 0.6249999999992174 0
1041 0.9062499999996743 0.593749999999163 0
1042 0.9374999999997726 0.6562499999992123 0
1043 0.9062499999996618 0.6874999999993261 0
1044 0.906249999999666 0.6562499999992718 0
1045 0.9374999999997666 0.7187499999993398 0
1046 0.9062499999996536 0.749999999999435 0
1047 0.9062499999996579 0.7187499999993805 0
1048 0.9374999999997607 0.7812499999994671 0
1049 0.9062499999996452 0.8124999999995437 0
1050 0.9062499999996494 0.7812499999994893 0
1051 0.9374999999997543 0.8437499999995953 0
1052 0.906249999999637 0.8749999999996545 0
1053 0.906249999999641 0.8437499999995991 0
1054 0.937499999999749 0.9062499999997446 0
1055 0.9062499999996287 0.9374999999998263 0
1056 0.9062499999996327 0.9062499999997404 0
1057 0.9374999999997429 0.9687499999999147 0
1058 0.9062499999996527 0.9687499999999132 0
1059 0.9687499999999146 0.06249999999988501 0
1060 0.9687499999999161 0.03124999999994518 0
1061 0.9687499999999116 0.1249999999997965 0
1062 0.9687499999999133 0.09374999999984074 0
1063 0.9687499999999087 0.1874999999996305 0
1064 0.9687499999999101 0.1562499999997135 0
1065 0.9687499999999056 0.2499999999994619 0
1066 0.9687499999999071 0.2187499999995462 0
1067 0.9687499999999027 0.3124999999992933 0
1068 0.9687499999999041 0.2812499999993776 0
1069 0.9687499999998996 0.3749999999991247 0
1070 0.9687499999999011 0.343749999999209 0
1071 0.9687499999998967 0.4374999999989561 0
1072 0.9687499999998983 0.4062499999990404 0
1073 0.9687499999998936 0.4999999999987973 0
1074 0.9687499999998952 0.4687499999988767 0
1075 0.9687499999998908 0.5624999999989335 0
1076 0.9687499999998923 0.5312499999988654 0
1077 0.9687499999998879 0.6249999999990797 0
1078 0.9687499999998892 0.5937499999990066 0
1079 0.9687499999998848 0.687499999999226 0
1080 0.9687499999998863 0.6562499999991529 0
1081 0.9687499999998819 0.7499999999993721 0
1082 0.9687499999998833 0.718749999999299 0
1083 0.9687499999998788 0.8124999999995182 0
1084 0.9687499999998803 0.7812499999994451 0
1085 0.9687499999998759 0.874999999999665 0
1086 0.9687499999998772 0.8437499999995915 0
1087 0.968749999999873 0.9374999999998322 0
1088 0.9687499999998743 0.9062499999997486 0
1089 0.96874999999987 0.9687499999999162 0
$EndNodes
$Elements
256
1 10 2 1 1 1 5 129 112 20 354 355 128 356
2 10 2 1 1 112 129 130 111 355 357 358 127 359
3 10 2 1 1 111 130 131 110 358 360 361 126 362
4 10 2 1 1 110 131 132 109 361 363 364 125 365
5 10 2 1 1 109 132 133 108 364 366 367 124 368
6 10 2 1 1 108 133 134 107 367 369 370 123 371
7 10 2 1 1 107 134 135 106 370 372 373 122 374
8 10 2 1 1 106 135 136 105 373 375 376 121 377
9 10 2 1 1 105 136 137 104 376 378 379 120 380
10 10 2 1 1 104 137 138 103 379 381 382 119 383
11 10 2 1 1 103 138 139 102 382 384 385 118 386
12 10 2 1 1 102 139 140 101 385 387 388 117 389
13 10 2 1 1 101 140 141 100 388 390 391 116 392
14 10 2 1 1 100 141 142 99 391 393 394 115 395
15 10 2 1 1 99 142 143 98 394 396 397 114 398
16 10 2 1 1 98 143 81 4 397 399 97 113 400
17 10 2 1 1 5 6 144 129 21 401 402 354 403
18 10 2 1 1 129 144 145 130 402 404 405 357 406
19 10 2 1 1 130 145 146 131 405 407 408 360 409
20 10 2 1 1 131 146 147 132 408 410 411 363 412
21 10 2 1 1 132 147 148 133 411 413 414 366 415
22 10 2 1 1 133 148 149 134 414 416 417 369 418
23 10 2 1 1 134 149 150 135 417 419 420 372 421
24 10 2 1 1 135 150 151 136 420 422 423 375 424
25 10 2 1 1 136 151 152 137 423 425 426 378 427
26 10 2 1 1 137 152 153 138 426 428 429 381 430
27 10 2 1 1 138 153 154 139 429 431 432 384 433
28 10 2 1 1 139 154 155 140 432 434 435 387 436
29 10 2 1 1 140 155 156 141 435 437 438 390 439
30 10 2 1 1 141 156 157 142 438 440 441 393 442
31 10 2 1 1 142 157 158 143 441 443 444 396 445
32 10 2 1 1 143 158 80 81 444 446 96 399 447
33 10 2 1 1 6 7 159 144 22 448 449 401 450
34 10 2 1 1 144 159 160 145 449 451 452 404 453
35 10 2 1 1 145 160 161 146 452 454 455 407 456
36 10 2 1 1 146 161 162 147 455 457 458 410 459
37 10 2 1 1 147 162 163 148 458 460 461 413 462
38 10 2 1 1 148 163 164 149 461 463 464 416 465
39 10 2 1 1 149 164 165 150 464 466 467 419 468
40 10 2 1 1 150 165 166 151 467 469 470 422 471
41 10 2 1 1 151 166 167 152 470 472 473 425 474
42 10 2 1 1 152 167 168 153 473 475 476 428 477
43 10 2 1 1 153 168 169 154 476 478 479 431 480
44 10 2 1 1 154 169 170 155 479 481 482 434 483
45 10 2 1 1 155 170 171 156 482 484 485 437 486
46 10 2 1 1 156 171 172 157 485 487 488 440 489
47 10 2 1 1 157 172 173 158 488 490 491 443 492
48 10 2 1 1 158 173 79 80 491 493 95 446 494
49 10 2 1 1 7 8 174 159 23 495 496 448 497
50 10 2 1 1 159 174 175 160 496 498 499 451 500
51 10 2 1 1 160 175 176 161 499 501 502 454 503
52 10 2 1 1 161 176 177 162 502 504 505 457 506
53 10 2 1 1 162 177 178 163 505 507 508 460 509
54 10 2 1 1 163 178 179 164 508 510 511 463 512
55 10 2 1 1 164 179 180 165 511 513 514 466 515
56 10 2 1 1 165 180 181 166 514 516 517 469 518
57 10 2 1 1 166 181 182 167 517 519 520 472 521
58 10 2 1 1 167 182 183 168 520 522 523 475 524
59 10 2 1 1 168 183 184 169 523 525 526 478 527
60 10 2 1 1 169 184 185 170 526 528 529 481 530
61 10 2 1 1 170 185 186 171 529 531 532 484 533
62 10 2 1 1 171 186 187 172 532 534 535 487 536
63 10 2 1 1 172 187 188 173 535 537 538 490 539
64 10 2 1 1 173 188 78 79 538 540 94 493 541
65 10 2 1 1 8 9 189 174 24 542 543 495 544
66 10 2 1 1 174 189 190 175 543 545 546 498 547
67 10 2 1 1 175 190 191 176 546 548 549 501 550
68 10 2 1 1 176 191 192 177 549 551 552 504 553
69 10 2 1 1 177 192 193 178 552 554 555 507 556
70 10 2 1 1 178 193 194 179 555 557 558 510 559
71 10 2 1 1 179 194 195 180 558 560 561 513 562
72 10 2 1 1 180 195 196 181 561 563 564 516 565
73 10 2 1 1 181 196 197 182 564 566 567 519 568
74 10 2 1 1 182 197 198 183 567 569 570 522 571
75 10 2 1 1 183 198 199 184 570 572 573 525 574
76 10 2 1 1 184 199 200 185 573 575 576 528 577
77 10 2 1 1 185 200 201 186 576 578 579 531 580
78 10 2 1 1 186 201 202 187 579 581 582 534 583
79 10 2 1 1 187 202 203 188 582 584 585 537 586
80 10 2 1 1 188 203 77 78 585 587 93 540 588
81 10 2 1 1 9 10 204 189 25 589 590 542 591
82 10 2 1 1 189 204 205 190 590 592 593 545 594
83 10 2 1 1 190 205 206 191 593 595 596 548 597
84 10 2 1 1 191 206 207 192 596 598 599 551 600
85 10 2 1 1 192 207 208 193 599 601 602 554 603
86 10 2 1 1 193 208 209 194 602 604 605 557 606
87 10 2 1 1 194 209 210 195 605 607 608 560 609
88 10 2 1 1 195 210 211 196 608 610 611 563 612
89 10 2 1 1 196 211 212 197 611 613 614 566 615
90 10 2 1 1 197 212 213 198 614 616 617 569 618
91 10 2 1 1 198 213 214 199 617 619 620 572 621
92 10 2 1 1 199 214 215 200 620 622 623 575 624
93 10 2 1 1 200 215 216 201 623 625 626 578 627
94 10 2 1 1 201 216 217 202 626 628 629 581 630
95 10 2 1 1 202 217 218 203 629 631 632 584 633
96 10 2 1 1 203 218 76 77 632 634 92 587 635
97 10 2 1 1 10 11 219 204 26 636 637 589 638
98 10 2 1 1 204 219 220 205 637 639 640 592 641
99 10 2 1 1 205 220 221 206 640 642 643 595 644
100 10 2 1 1 206 221 222 207 643 645 646 598 647
101 10 2 1 1 207 222 223 208 646 648 649 601 650
102 10 2 1 1 208 223 224 209 649 651 652 604 653
103 10 2 1 1 209 224 225 210 652 654 655 607 656
104 10 2 1 1 210 225 226 211 655 657 658 610 659
105 10 2 1 1 211 226 227 212 658 660 661 613 662
106 10 2 1 1 212 227 228 213 661 663 664 616 665
107 10 2 1 1 213 228 229 214 664 666 667 619 668
108 10 2 1 1 214 229 230 215 667 669 670 622 671
109 10 2 1 1 215 230 231 216 670 672 673 625 674
110 10 2 1 1 216 231 232 217 673 675 676 628 677
111 10 2 1 1 217 232 233 218 676 678 679 631 680
112 10 2 1 1 218 233 75 76 679 681 91 634 682
113 10 2 1 1 11 12 234 219 27 683 684 636 685
114 10 2 1 1 219 234 235 220 684 686 687 639 688
115 10 2 1 1 220 235 236 221 687 689 690 642 691
116 10 2 1 1 221 236 237 222 690 692 693 645 694
117 10 2 1 1 222 237 238 223 693 695 696 648 697
118 10 2 1 1 223 238 239 224 696 698 699 651 700
119 10 2 1 1 224 239 240 225 699 701 702 654 703
120 10 2 1 1 225 240 241 226 702 704 705 657 706
121 10 2 1 1 226 241 242 227 705 707 708 660 709
122 10 2 1 1 227 242 243 228 708 710 711 663 712
123 10 2 1 1 228 243 244 229 711 713 714 666 715
124 10 2 1 1 229 244 245 230 714 716 717 669 718
125 10 2 1 1 230 245 246 231 717 719 720 672 721
126 10 2 1 1 231 246 247 232 720 722 723 675 724
127 10 2 1 1 232 247 248 233 723 725 726 678 727
128 10 2 1 1 233 248 74 75 726 728 90 681 729
129 10 2 1 1 12 13 249 234 28 730 731 683 732
130 10 2 1 1 234 249 250 235 731 733 734 686 735
131 10 2 1 1 235 250 251 236 734 736 737 689 738
132 10 2 1 1 236 251 252 237 737 739 740 692 741
133 10 2 1 1 237 252 253 238 740 742 743 695 744
134 10 2 1 1 238 253 254 239 743 745 746 698 747
135 10 2 1 1 239 254 255 240 746 748 749 701 750
136 10 2 1 1 240 255 256 241 749 751 752 704 753
137 10 2 1 1 241 256 257 242 752 754 755 707 756
138 10 2 1 1 242 257 258 243 755 757 758 710 759
139 10 2 1 1 243 258 259 244 758 760 761 713 762
140 10 2 1 1 244 259 260 245 761 763 764 716 765
141 10 2 1 1 245 260 261 246 764 766 767 719 768
142 10 2 1 1 246 261 262 247 767 769 770 722 771
143 10 2 1 1 247 262 263 248 770 772 773 725 774
144 10 2 1 1 248 263 73 74 773 775 89 728 776
145 10 2 1 1 13 14 264 249 29 777 778 730 779
146 10 2 1 1 249 264 265 250 778 780 781 733 782
147 10 2 1 1 250 265 266 251 781 783 784 736 785
148 10 2 1 1 251 266 267 252 784 786 787 739 788
149 10 2 1 1 252 267 268 253 787 789 790 742 791
150 10 2 1 1 253 268 269 254 790 792 793 745 794
151 10 2 1 1 254 269 270 255 793 795 796 748 797
152 10 2 1 1 255 270 271 256 796 798 799 751 800
153 10 2 1 1 256 271 272 257 799 801 802 754 803
154 10 2 1 1 257 272 273 258 802 804 805 757 806
155 10 2 1 1 258 273 274 259 805 807 808 760 809
156 10 2 1 1 259 274 275 260 808 810 811 763 812
157 10 2 1 1 260 275 276 261 811 813 814 766 815
158 10 2 1 1 261 276 277 262 814 816 817 769 818
159 10 2 1 1 262 277 278 263 817 819 820 772 821
160 10 2 1 1 263 278 72 73 820 822 88 775 823
161 10 2 1 1 14 15 279 264 30 824 825 777 826
162 10 2 1 1 264 279 280 265 825 827 828 780 829
163 10 2 1 1 265 280 281 266 828 830 831 783 832
164 10 2 1 1 266 281 282 267 831 833 834 786 835
165 10 2 1 1 267 282 283 268 834 836 837 789 838
166 10 2 1 1 268 283 284 269 837 839 840 792 841
167 10 2 1 1 269 284 285 270 840 842 843 795 844
168 10 2 1 1 270 285 286 271 843 845 846 798 847
169 10 2 1 1 271 286 287 272 846 848 849 801 850
170 10 2 1 1 272 287 288 273 849 851 852 804 853
171 10 2 1 1 273 288 289 274 852 854 855 807 856
172 10 2 1 1 274 289 290 275 855 857 858 810 859
173 10 2 1 1 275 290 291 276 858 860 861 813 862
174 10 2 1 1 276 291 292 277 861 863 864 816 865
175 10 2 1 1 277 292 293 278 864 866 867 819 868
176 10 2 1 1 278 293 71 72 867 869 87 822 870
177 10 2 1 1 15 16 294 279 31 871 872 824 873
178 10 2 1 1 279 294 295 280 872 874 875 827 876
179 10 2 1 1 280 295 296 281 875 877 878 830 879
180 10 2 1 1 281 296 297 282 878 880 881 833 882
181 10 2 1 1 282 297 298 283 881 883 884 836 885
182 10 2 1 1 283 298 299 284 884 886 887 839 888
183 10 2 1 1 284 299 300 285 887 889 890 842 891
184 10 2 1 1 285 300 301 286 890 892 893 845 894
185 10 2 1 1 286 301 302 287 893 895 896 848 897
186 10 2 1 1 287 302 303 288 896 898 899 851 900
187 10 2 1 1 288 303 304 289 899 901 902 854 903
188 10 2 1 1 289 304 305 290 902 904 905 857 906
189 10 2 1 1 290 305 306 291 905 907 908 860 909
190 10 2 1 1 291 306 307 292 908 910 911 863 912
191 10 2 1 1 292 307 308 293 911 913 914 866 915
192 10 2 1 1 293 308 70 71 914 916 86 869 917
193 10 2 1 1 16 17 309 294 32 918 919 871 920
194 10 2 1 1 294 309 310 295 919 921 922 874 923
195 10 2 1 1 295 310 311 296 922 924 925 877 926
196 10 2 1 1 296 311 312 297 925 927 928 880 929
197 10 2 1 1 297 312 313 298 928 930 931 883 932
198 10 2 1 1 298 313 314 299 931 933 934 886 935
199 10 2 1 1 299 314 315 300 934 936 937 889 938
200 10 2 1 1 300 315 316 301 937 939 940 892 941
201 10 2 1 1 301 316 317 302 940 942 943 895 944
202 10 2 1 1 302 317 318 303 943 945 946 898 947
203 10 2 1 1 303 318 319 304 946 948 949 901 950
204 10 2 1 1 304 319 320 305 949 951 952 904 953
205 10 2 1 1 305 320 321 306 952 954 955 907 956
206 10 2 1 1 306 321 322 307 955 957 958 910 959
207 10 2 1 1 307 322 323 308 958 960 961 913 962
208 10 2 1 1 308 323 69 70 961 963 85 916 964
209 10 2 1 1 17 18 324 309 33 965 966 918 967
210 10 2 1 1 309 324 325 310 966 968 969 921 970
211 10 2 1 1 310 325 326 311 969 971 972 924 973
212 10 2 1 1 311 326 327 312 972 974 975 927 976
213 10 2 1 1 312 327 328 313 975 977 978 930 979
214 10 2 1 1 313 328 329 314 978 980 981 933 982
215 10 2 1 1 314 329 330 315 981 983 984 936 985
216 10 2 1 1 315 330 331 316 984 986 987 939 988
217 10 2 1 1 316 331 332 317 987 989 990 942 991
218 10 2 1 1 317 332 333 318 990 992 993 945 994
219 10 2 1 1 318 333 334 319 993 995 996 948 997
220 10 2 1 1 319 334 335 320 996 998 999 951 1000
221 10 2 1 1 320 335 336 321 999 1001 1002 954 1003
222 10 2 1 1 321 336 337 322 1002 1004 1005 957 1006
223 10 2 1 1 322 337 338 323 1005 1007 1008 960 1009
224 10 2 1 1 323 338 68 69 1008 1010 84 963 1011
225 10 2 1 1 18 19 339 324 34 1012 1013 965 1014
226 10 2 1 1 324 339 340 325 1013 1015 1016 968 1017
227 10 2 1 1 325 340 341 326 1016 1018 1019 971 1020
228 10 2 1 1 326 341 342 327 1019 1021 1022 974 1023
229 10 2 1 1 327 342 343 328 1022 1024 1025 977 1026
230 10 2 1 1 328 343 344 329 1025 1027 1028 980 1029
231 10 2 1 1 329 344 345 330 1028 1030 1031 983 1032
232 10 2 1 1 330 345 346 331 1031 1033 1034 986 1035
233 10 2 1 1 331 346 347 332 1034 1036 1037 989 1038
234 10 2 1 1 332 347 348 333 1037 1039 1040 992 1041
235 10 2 1 1 333 348 349 334 1040 1042 1043 995 1044
236 10 2 1 1 334 349 350 335 1043 1045 1046 998 1047
237 10 2 1 1 335 350 351 336 1046 1048 1049 1001 1050
238 10 2 1 1 336 351 352 337 1049 1051 1052 1004 1053
239 10 2 1 1 337 352 353 338 1052 1054 1055 1007 1056
240 10 2 1 1 338 353 67 68 1055 1057 83 1010 1058
241 10 2 1 1 19 2 36 339 35 51 1059 1012 1060
242 10 2 1 1 339 36 37 340 1059 52 1061 1015 1062
243 10 2 1 1 340 37 38 341 1061 53 1063 1018 1064
244 10 2 1 1 341 38 39 342 1063 54 1065 1021 1066
245 10 2 1 1 342 39 40 343 1065 55 1067 1024 1068
246 10 2 1 1 343 40 41 344 1067 56 1069 1027 1070
247 10 2 1 1 344 41 42 345 1069 57 1071 1030 1072
248 10 2 1 1 345 42 43 346 1071 58 1073 1033 1074
249 10 2 1 1 346 43 44 347 1073 59 1075 1036 1076
250 10 2 1 1 347 44 45 348 1075 60 1077 1039 1078
251 10 2 1 1 348 45 46 349 1077 61 1079 1042 1080
252 10 2 1 1 349 46 47 350 1079 62 1081 1045 1082
253 10 2 1 1 350 47 48 351 1081 63 1083 1048 1084
254 10 2 1 1 351 48 49 352 1083 64 1085 1051 1086
255 10 2 1 1 352 49 50 353 1085 65 1087 1054 1088
256 10 2 1 1 353 50 3 67 1087 66 82 1057 1089
$EndElements
